<svg id="Layer_1" height="300" viewBox="0 0 512 512" width="300" xmlns="http://www.w3.org/2000/svg" data-name="Layer 1" version="1.1" xmlns:xlink="http://www.w3.org/1999/xlink" xmlns:svgjs="http://svgjs.dev/svgjs"><g width="100%" height="100%" transform="matrix(1,0,0,1,0,0)"><path d="m395.5 191a74.5 74.5 0 1 1 74.5-74.5 74.588 74.588 0 0 1 -74.5 74.5zm0-191a116.5 116.5 0 1 0 116.5 116.5 116.633 116.633 0 0 0 -116.5-116.5zm-332.5 233.22h107.219a63.07 63.07 0 0 0 63-63v-107.22a63.064 63.064 0 0 0 -63-63h-107.219a63.064 63.064 0 0 0 -63 63v107.219a63.07 63.07 0 0 0 63 63zm386 45.56h-107.226a63.063 63.063 0 0 0 -63 62.986v107.234a63.066 63.066 0 0 0 63 63h107.226a63.07 63.07 0 0 0 63-63v-107.234a63.067 63.067 0 0 0 -63-62.986zm-386 233.22h107.219a63.066 63.066 0 0 0 63-63v-107.234a63.063 63.063 0 0 0 -63-62.986h-107.219a63.063 63.063 0 0 0 -63 62.986v107.234a63.066 63.066 0 0 0 63 63z" fill-rule="evenodd" fill="#dab048" fill-opacity="1" data-original-color="#000000ff" stroke="none" stroke-opacity="1"/></g></svg>