<?xml version="1.0" encoding="utf-8"?>
<!-- Generator: Adobe Illustrator 28.1.0, SVG Export Plug-In . SVG Version: 6.00 Build 0)  -->
<svg version="1.1" id="Layer_1" xmlns="http://www.w3.org/2000/svg" xmlns:xlink="http://www.w3.org/1999/xlink" x="0px" y="0px"
	 viewBox="0 0 48 48" style="enable-background:new 0 0 48 48;" xml:space="preserve">
<style type="text/css">
	.st0{fill:#DAB048;}
</style>
<path class="st0" d="M9.1,32H4.9L4,41.1C3.9,41.6,3.5,42,3,42H2.9c-0.5-0.1-1-0.5-0.9-1.1l0.9-9.2c-0.7-0.4-1.2-1.1-1.3-1.9L0,16.7
	c-0.1-0.4,0.1-0.9,0.4-1.2C0.7,15.2,1.1,15,1.5,15h1.1c0.7,0,1.3,0.5,1.4,1.1l2.7,11H9l-0.3,2.6C8.6,30.6,8.7,31.4,9.1,32z"/>
<path class="st0" d="M16,40.9c0,0.5-0.4,1-0.9,1.1H15c-0.5,0-0.9-0.4-1-0.9L13.3,34c0.7,0,1.4-0.2,2-0.4L16,40.9z"/>
<path class="st0" d="M32.7,33.5c0.6,0.2,1.3,0.4,2,0.4L34,41.1c-0.1,0.5-0.5,0.9-1,0.9h-0.1c-0.5-0.1-1-0.5-0.9-1.1L32.7,33.5z"/>
<path class="st0" d="M48,16.7l-1.6,13.1c-0.1,0.8-0.6,1.5-1.3,1.9l0.9,9.2c0,0.5-0.3,1-0.9,1.1H45c-0.5,0-0.9-0.4-1-0.9L43.1,32
	h-4.2c0.4-0.6,0.5-1.4,0.4-2.2L39,27.1h2.2l2.7-11c0.2-0.7,0.8-1.1,1.5-1.1h1.1c0.4,0,0.8,0.2,1.1,0.5C47.9,15.8,48,16.3,48,16.7z"
	/>
<path class="st0" d="M29,40.5V41c0,0.5-0.5,1-1,1h-8c-0.5,0-1-0.5-1-1v-0.5c0-0.3,0.2-0.7,0.5-0.8l2.1-1.4c0.3-0.2,0.5-0.5,0.5-0.8
	v-3.8c0.6,0.2,1.3,0.3,2,0.3h0c0.7,0,1.4-0.1,2-0.3v3.8c0,0.3,0.2,0.7,0.5,0.8l2.1,1.4C28.8,39.9,29,40.2,29,40.5z"/>
<path class="st0" d="M37.3,30l-1.2-10.5C36,18.6,35.3,18,34.4,18H13.6c-0.9,0-1.6,0.6-1.7,1.5L10.6,30c-0.1,0.8,0.4,1.7,1.3,1.9
	c1.3,0.3,2.7,0,3.7-0.9c1.6-1.3,4.1-1.3,5.7,0c0.8,0.6,1.7,1,2.7,1c1,0,2-0.3,2.7-1c1.6-1.3,4.1-1.3,5.7,0c1,0.9,2.4,1.1,3.7,0.9
	C36.9,31.7,37.5,30.9,37.3,30L37.3,30z"/>
<path class="st0" d="M31,14L31,14c-0.5-3.1-2.9-5.5-6-5.9V8c0.6,0,1-0.4,1-1s-0.4-1-1-1h-2c-0.6,0-1,0.4-1,1s0.4,1,1,1v0.1
	c-3.1,0.4-5.5,2.9-5.9,5.9H17c-0.6,0-1,0.4-1,1s0.4,1,1,1h14c0.6,0,1-0.4,1-1S31.6,14,31,14z"/>
</svg>
