<?xml version="1.0" encoding="utf-8"?>
<!-- Generator: Adobe Illustrator 28.1.0, SVG Export Plug-In . SVG Version: 6.00 Build 0)  -->
<svg version="1.1" id="Layer_1" xmlns="http://www.w3.org/2000/svg" xmlns:xlink="http://www.w3.org/1999/xlink" x="0px" y="0px"
	 viewBox="0 0 512 512" style="enable-background:new 0 0 512 512;" xml:space="preserve">
<style type="text/css">
	.st0{fill:#FFFFFF;}
</style>
<g>
	<path class="st0" d="M139.9,283.7h81.3c6,0,10.8-4.9,10.8-10.8s-4.8-10.8-10.8-10.8h-81.3c-6,0-10.8,4.8-10.8,10.8
		S133.9,283.7,139.9,283.7z"/>
	<path class="st0" d="M370.2,239.6h7.1c2.9,0,5.4-2.4,5.4-5.4v-49.4c0-2.9-2.4-5.4-5.4-5.4h-7.1c-16.6,0-30.1,13.5-30.1,30.1
		S353.6,239.6,370.2,239.6L370.2,239.6z"/>
	<path class="st0" d="M313.6,139.9v-8.8c0-9.5-7.8-17.2-17.2-17.2v43.4C305.9,157.2,313.6,149.5,313.6,139.9z"/>
	<path class="st0" d="M297.6,228.5c0,7,5.7,12.6,12.6,12.6c7,0,12.6-5.7,12.6-12.6s-5.7-12.6-12.6-12.6
		C303.2,215.9,297.6,221.6,297.6,228.5z"/>
	<path class="st0" d="M464.2,385.6c4,0,8,0.3,11.9,0.9c6.7,0.9,11.2-7.1,7-12.5c-14.8-19-38.6-30.7-65-28.9
		c-28.9,2-54.1,21.4-64.9,48.3c-5.4,13.3-6.4,25.9-4.6,37.6c1,6.8,6.7,11.9,13.7,11.9h20.4C394.8,409.6,426.7,385.6,464.2,385.6
		L464.2,385.6z"/>
	<path class="st0" d="M282.1,357.8V243.2c0-16.7-13.5-30.2-30.2-30.2H140.5v9.9c0,13.1,10.6,23.7,23.7,23.7h84.2v111.2L282.1,357.8
		L282.1,357.8z"/>
	<path class="st0" d="M179.2,117.8V75.6h42.2c0-23.4-18.9-42.2-42.2-42.2c-23.4,0-42.2,18.9-42.2,42.2
		C136.9,99,155.8,117.8,179.2,117.8z"/>
	<path class="st0" d="M491.2,397.2c-4,3.1-8.8,4.9-14,4.9c-1.1,0-2.2-0.1-3.3-0.2c-3.2-0.5-6.4-0.7-9.6-0.7c-6,0-11.8,0.8-17.5,2.2
		c6.9,2.9,11.7,9.9,11.7,17.8c0,10.7-8.7,19.4-19.4,19.4c-10.7,0-19.4-8.7-19.4-19.4c0-1.6,0.2-3.2,0.6-4.7
		c-10.2,8.1-18.4,18.9-23,31.8l-3.1,8.6c10.6,13.2,26.7,21.7,44.9,21.7c31.7,0,57.4-25.7,57.4-57.4
		C496.5,412.6,494.5,404.5,491.2,397.2L491.2,397.2z"/>
	<path class="st0" d="M151.6,427.4c-2.7-3.3-6.7-5.1-11-5.2l-17-0.2c-0.5,10.3-8.9,18.5-19.3,18.5c-10.6,0-19.1-8.4-19.3-18.9
		l-38-0.3c0.2,31.6,25.8,57.2,57.4,57.2c26.3,0,48.4-17.7,55.2-41.8L151.6,427.4z"/>
	<path class="st0" d="M23,326.9c-4.1,0-7.4,3.3-7.4,7.4v31.6c0,3.9,3,7,6.9,7.3c2.7-17.1,9.5-32.9,19.3-46.3L23,326.9z"/>
	<path class="st0" d="M300.6,383.7c0-10-8.1-18.2-18.2-18.2h-39.6v20.9h57.9L300.6,383.7L300.6,383.7z"/>
	<path class="st0" d="M179.2,133.4c-10.3,0-19.5-3.8-26.9-9.9c-7,3.3-11.8,10.3-11.8,18.5v55.5H201v-10.2l4.8,5.5
		c6.9,8,17,12.6,27.6,12.6h76.8c0-16.6-13.5-30.1-30.1-30.1h-46.7c-1.9,0-3.6-0.8-4.9-2.2l-34.8-42.4
		C189.1,132.3,184.3,133.4,179.2,133.4L179.2,133.4z"/>
	<path class="st0" d="M194.7,91.2v24.4c13.1-0.8,23.6-11.2,24.2-24.4H194.7z"/>
	<path class="st0" d="M334.3,181.5c3.3-4.1,7.1-7.7,11.6-10.5c-0.1-1.4-0.5-2.7-1.6-3.7l-16.8-18c-1.2,4-3.1,7.8-5.7,10.9l12.3,13.3
		L334.3,181.5L334.3,181.5z"/>
	<path class="st0" d="M407.4,330.9c-1.9-6.6-5-13-9.5-18.8l-39-55.7l-0.3-2.9c-8.9-2.3-16.7-7.3-22.6-14c-2,4.7-5.4,8.8-9.5,11.8
		l10,17.2l14.4,71.8c0.9,4.1-0.1,8.5-2.5,11.9l-29.7,43.1c-2.9,4.2-7.7,6.7-12.8,6.7h-87.9c0,0-27.7,0.9-27.4-31.7
		c0.3-26.2,25.4-43.1,35.2-48.7c2.5-1.4,4-4,4-6.7V307c0-4.3-3.5-7.8-7.8-7.8h-95c-50,0-90.5,40.5-90.5,90.5v7.7
		c0,4.7,3.8,8.5,8.5,8.5l95.7,0.8c8.8,0.1,17.1,4,22.8,10.8l7.8,9.3c5.7,6.7,14.1,10.7,23,10.7h138.6c0.5,0,0.9-0.1,1.4-0.2
		c-0.4-1.3-0.8-2.6-0.9-4c-2.3-15.5-0.5-30.9,5.5-45.8C350.7,357.9,377,336.4,407.4,330.9L407.4,330.9z"/>
	<path class="st0" d="M407.7,214v-8.8c0-6.7-3.9-12.5-9.5-15.4v39.6C403.9,226.4,407.7,220.6,407.7,214L407.7,214z"/>
	<path class="st0" d="M35.4,283.7h68.8c4.3,0,7.8-3.5,7.8-7.8v-39.7H27.6v39.7C27.6,280.2,31.1,283.7,35.4,283.7z"/>
	<path class="st0" d="M112,207c0-4.3-3.5-7.8-7.8-7.8H35.4c-4.3,0-7.8,3.5-7.8,7.8v13.6h84.3L112,207L112,207z"/>
</g>
</svg>
