<?xml version="1.0" encoding="utf-8"?>
<!-- Generator: Adobe Illustrator 28.1.0, SVG Export Plug-In . SVG Version: 6.00 Build 0)  -->
<svg version="1.1" id="Layer_1" xmlns="http://www.w3.org/2000/svg" xmlns:xlink="http://www.w3.org/1999/xlink" x="0px" y="0px"
	 viewBox="0 0 512 512" style="enable-background:new 0 0 512 512;" xml:space="preserve">
<style type="text/css">
	.st0{fill:#FFFFFF;}
</style>
<g id="Layer_1_00000088824835137151923460000013939558927387076232_">
	<g>
		<path class="st0" d="M82.2,259.1l21.2,4c5.1-27.3,23.1-50.7,48.2-62.7l-9.3-19.5C111,195.9,88.6,225.1,82.2,259.1L82.2,259.1z"/>
		<path class="st0" d="M405.4,224.9c-28.7-51.5-77.6-87.3-134-99.7c-1.2-23.4-20.5-42-44.1-42c-23.7,0-43,18.7-44.2,42.1
			c-36.7,8.1-70.5,26.2-98,53.1c-38.2,37.2-60.1,87-61.7,140.2c-0.1,4.3,1.5,8.7,4.7,11.9c2.9,3,6.7,4.6,10.7,4.6h257.7
			c0.4,5.3,1.3,10.5,2.5,15.5H27.3c-5.2,0-10,2.6-12.8,6.9c-2.8,4.3-3.3,9.7-1.2,14.4c0.1,0.3,0.2,0.5,0.4,0.8l25.1,47.2
			c2.6,5.3,7.9,8.7,13.8,8.7c0,0,342.3,0,345.5,0c56.3,0,102-45.8,102-102.1C500,272.9,458.2,228.8,405.4,224.9L405.4,224.9z
			 M227.2,104.8c10.5,0,19.2,7.2,21.8,16.8c-7.2-0.8-14.5-1.2-21.8-1.2c-7.3,0-14.6,0.4-21.8,1.2C207.9,112,216.7,104.8,227.2,104.8
			z M296.8,313.6H45.1c5.8-96.6,84.8-171.5,182.1-171.5c63,0,120.5,31.8,153.7,84C336.9,233.6,302.5,269.1,296.8,313.6z M56.3,407.2
			l-18.5-34.9h268.9c6.8,13.7,16.7,25.6,28.6,34.9H56.3z M447.9,340.1h-39.2v39.2h-21.6v-39.2H348v-21.6h39.2v-39.2h21.6v39.2h39.2
			V340.1z"/>
	</g>
</g>
<g id="Layer_2_00000113337408568190053300000017598281668103436717_">
</g>
<g id="Layer_3">
</g>
</svg>
