<?xml version="1.0" encoding="utf-8"?>
<!-- Generator: Adobe Illustrator 28.1.0, SVG Export Plug-In . SVG Version: 6.00 Build 0)  -->
<svg version="1.1" id="Layer_1" xmlns="http://www.w3.org/2000/svg" xmlns:xlink="http://www.w3.org/1999/xlink" x="0px" y="0px"
	 viewBox="0 0 512 512" style="enable-background:new 0 0 512 512;" xml:space="preserve">
<style type="text/css">
	.st0{fill-rule:evenodd;clip-rule:evenodd;fill:#FFFFFF;}
</style>
<g>
	<path class="st0" d="M26.7,53.3c0-14.7,11.9-26.7,26.7-26.7h149.3c14.7,0,26.7,11.9,26.7,26.7v96c0,8.8-7.2,16-16,16
		c-8.8,0-16-7.2-16-16V58.7H58.7v394.7h138.7v-90.7c0-8.8,7.2-16,16-16c8.8,0,16,7.2,16,16v96c0,14.7-11.9,26.7-26.7,26.7H53.3
		c-14.7,0-26.7-11.9-26.7-26.7V53.3z"/>
	<path class="st0" d="M282.7,53.3c0-14.7,11.9-26.7,26.7-26.7h149.3c14.7,0,26.7,11.9,26.7,26.7v405.3c0,14.7-11.9,26.7-26.7,26.7
		H309.3c-14.7,0-26.7-11.9-26.7-26.7v-96c0-8.8,7.2-16,16-16c8.8,0,16,7.2,16,16v90.7h138.7V58.7H314.7v90.7c0,8.8-7.2,16-16,16
		c-8.8,0-16-7.2-16-16V53.3z"/>
	<path class="st0" d="M282.7,256c0-8.8,7.2-16,16-16h170.7c8.8,0,16,7.2,16,16c0,8.8-7.2,16-16,16H298.7
		C289.8,272,282.7,264.8,282.7,256z"/>
	<path class="st0" d="M37.3,256c0-8.8,7.2-16,16-16h160c8.8,0,16,7.2,16,16c0,8.8-7.2,16-16,16h-160C44.5,272,37.3,264.8,37.3,256z"
		/>
	<path class="st0" d="M360.6,194.3c6.2,6.2,6.2,16.4,0,22.6L321,256.5l39.6,39.6c6.2,6.2,6.2,16.4,0,22.6s-16.4,6.2-22.6,0
		l-50.9-50.9c-6.2-6.2-6.2-16.4,0-22.6l50.9-50.9C344.3,188,354.4,188,360.6,194.3z"/>
	<path class="st0" d="M152.7,194.3c6.2-6.2,16.4-6.2,22.6,0l50.9,50.9c3,3,4.7,7.1,4.7,11.3c0,4.2-1.7,8.3-4.7,11.3l-50.9,50.9
		c-6.2,6.2-16.4,6.2-22.6,0c-6.2-6.2-6.2-16.4,0-22.6l39.6-39.6l-39.6-39.6C146.4,210.6,146.4,200.5,152.7,194.3L152.7,194.3z"/>
</g>
</svg>
