<?xml version="1.0" encoding="utf-8"?>
<!-- Generator: Adobe Illustrator 28.1.0, SVG Export Plug-In . SVG Version: 6.00 Build 0)  -->
<svg version="1.1" id="Layer_1" xmlns="http://www.w3.org/2000/svg" xmlns:xlink="http://www.w3.org/1999/xlink" x="0px" y="0px"
	 viewBox="0 0 491.5 491.5" style="enable-background:new 0 0 491.5 491.5;" xml:space="preserve">
<style type="text/css">
	.st0{fill:#FFFFFF;}
</style>
<g>
	<path class="st0" d="M89.4,267.7H46.7c-8.8,0-16,7.2-16,16v42.7c0,8.8,7.2,16,15.9,16h42.7c8.8,0,15.9-7.2,15.9-15.9v-42.7
		C105.3,274.8,98.2,267.7,89.4,267.7z"/>
	<path class="st0" d="M89.4,149.2H46.7c-8.8,0-16,7.2-16,16v42.7c0,8.8,7.2,16,16,16h42.7c8.8,0,15.9-7.2,15.9-15.9v-42.7
		C105.3,156.4,98.2,149.2,89.4,149.2z"/>
	<path class="st0" d="M89.4,386.2H46.7c-8.8,0-16,7.2-16,16v42.7c0,8.8,7.2,16,16,16h42.7c8.8,0,15.9-7.2,15.9-15.9v-42.7
		C105.3,393.3,98.2,386.2,89.4,386.2z"/>
	<path class="st0" d="M164,105.3h280.8c8.8,0,15.9-7.1,15.9-15.9V46.7c0-8.8-7.2-16-16-16H163.9c-8.8,0-16,7.2-16,16v42.7
		C148.1,98.2,155.2,105.3,164,105.3z"/>
	<path class="st0" d="M444.9,149.2H164.1c-8.8,0-16,7.2-16,16v42.7c0,8.8,7.2,15.9,16,15.9h280.8c8.8,0,15.9-7.1,15.9-15.9v-42.7
		C460.8,156.4,453.7,149.2,444.9,149.2z"/>
	<path class="st0" d="M444.9,267.7H164.1c-8.8,0-16,7.2-16,16v42.7c0,8.8,7.2,16,16,16h280.8c8.8,0,15.9-7.1,15.9-15.9v-42.7
		C460.8,274.8,453.7,267.7,444.9,267.7z"/>
	<path class="st0" d="M89.4,30.7H46.7c-8.8,0-16,7.2-16,16v42.7c0,8.8,7.2,16,16,16h42.7c8.8,0,15.9-7.2,15.9-15.9V46.7
		C105.3,37.9,98.2,30.7,89.4,30.7z"/>
	<path class="st0" d="M444.9,386.2H164c-8.8,0-16,7.2-16,16v42.7c0,8.8,7.2,16,16,16h280.8c8.8,0,15.9-7.1,15.9-15.9v-42.7
		C460.8,393.3,453.7,386.2,444.9,386.2z"/>
</g>
</svg>
