<?xml version="1.0" encoding="utf-8"?>
<!-- Generator: Adobe Illustrator 28.1.0, SVG Export Plug-In . SVG Version: 6.00 Build 0)  -->
<svg version="1.1" id="Capa_1" xmlns="http://www.w3.org/2000/svg" xmlns:xlink="http://www.w3.org/1999/xlink" x="0px" y="0px"
	 viewBox="0 0 512 512" style="enable-background:new 0 0 512 512;" xml:space="preserve">
<style type="text/css">
	.st0{fill:#FFFFFF;}
</style>
<g>
	<path class="st0" d="M497,100.6h-76.8v115.8c0,24.1-19.6,43.7-43.7,43.7h-39.6l-46.4,59.5c-17.5,22.5-51.5,22.5-69,0l-46.4-59.5
		h-39.6c-24.1,0-43.7-19.6-43.7-43.7c0-28.2,0-91.9,0-115.8H15c-8.3,0-15,6.7-15,15V359h512V115.6C512,107.3,505.3,100.6,497,100.6z
		"/>
	<path class="st0" d="M0,389v48c0,8.3,6.7,15,15,15h182.5v30H133c-8.3,0-15,6.7-15,15s6.7,15,15,15h246c8.3,0,15-6.7,15-15
		s-6.7-15-15-15h-64.5v-30H497c8.3,0,15-6.7,15-15v-48C505.6,389,10.9,389,0,389z"/>
	<path class="st0" d="M302,139.8c0-25.4-20.6-46-46-46c-25.4,0-46,20.7-46,46v12.8H302V139.8z"/>
	<path class="st0" d="M135.5,230.1h47.2c4.5,0,8.7,2,11.5,5.6l51,65.5c5.5,7,16.2,7.1,21.6,0l51-65.5c2.8-3.6,6.9-5.6,11.5-5.6h47.2
		c7.6,0,13.7-6.1,13.7-13.7V13.7C390.2,6.1,384,0,376.5,0H135.5c-7.6,0-13.7,6.1-13.7,13.7v202.7C121.8,224,128,230.1,135.5,230.1z
		 M179.4,152.6h0.6v-12.8c0-36.8,26.3-67.5,61-74.5V54.2c0-8.3,6.7-15,15-15c8.3,0,15,6.7,15,15v11.1c34.8,7,61,37.8,61,74.5v12.8
		h0.6c8.3,0,15,6.7,15,15s-6.7,15-15,15H179.4c-8.3,0-15-6.7-15-15S171.1,152.6,179.4,152.6L179.4,152.6z"/>
</g>
</svg>
