<?xml version="1.0" encoding="utf-8"?>
<!-- Generator: Adobe Illustrator 28.1.0, SVG Export Plug-In . SVG Version: 6.00 Build 0)  -->
<svg version="1.1" id="Layer_1" xmlns="http://www.w3.org/2000/svg" xmlns:xlink="http://www.w3.org/1999/xlink" x="0px" y="0px"
	 viewBox="0 0 512 512" style="enable-background:new 0 0 512 512;" xml:space="preserve">
<style type="text/css">
	.st0{fill:#FFFFFF;}
</style>
<path class="st0" d="M258.4,352.8H178c-9.6,0-18.9-2.6-27.1-7.7l-26,69.3c-4.8,12.8,1.7,27,14.4,31.8c2.8,1,5.7,1.6,8.7,1.6h345.2
	c-2.9-23.8-23.1-41.7-47.1-41.8c-2.9,0-5.4-2.2-5.7-5.2l-14.7-162.6c-8.6-1.4-15.9-6.8-19.8-14.6h-14.4l9.7,116.5
	c4.1,81.2-114.2,90.2-121.3,8C273.1,351.2,265.8,352.8,258.4,352.8L258.4,352.8z M231.5,415.5c0,3.1-2.6,5.7-5.7,5.7H165
	c-3.1,0-5.7-2.6-5.7-5.7v-22.8c0-11.5,9.3-20.9,20.9-20.9c0,0,0,0,0,0h30.4c11.5,0,20.9,9.3,20.9,20.9c0,0,0,0,0,0L231.5,415.5z
	 M220.1,392.7v17.1h-49.4v-17.1c0-5.2,4.3-9.5,9.5-9.5l0,0h30.4C215.8,383.2,220.1,387.5,220.1,392.7L220.1,392.7z M218,163.5
	c-10.5-76.1-110.7-76.1-121.3,0C137,167.9,177.7,167.9,218,163.5L218,163.5z M180.1,141.7c3.3-5.4,8.7-1.7,12.6,0.7
	c2.7,1.6,3.7,5.1,2.1,7.8c-3.2,5.4-8.8,1.7-12.6-0.7C179.5,147.9,178.5,144.4,180.1,141.7L180.1,141.7z M135.3,147.2
	c-2.2,1.9-5.6,7.3-8.9,6.9c-4.8,0.2-7.6-6.2-4.2-9.6l4.8-5.1C132,134,140.5,141.9,135.3,147.2L135.3,147.2z M150.4,125.1
	c-5.1-5.3,3.3-13.3,8.3-7.8l5.7,6.1c5.1,5.3-3.3,13.3-8.3,7.8L150.4,125.1z M218.8,214.5c0.5,6.3-0.5,14.1-7.7,15.3
	c-17.7,3.4-35.7,5.2-53.7,5.2c-18.1,0-36.1-1.8-53.8-5.2c-7-1.3-8.1-8.9-7.6-15.2c0.6,0.1,1.1,0.1,1.7,0c9.3,0,14.3-3.5,18.3-6.4
	c5.5-5.5,17.6-5.5,23.2,0.1c4,2.8,8.9,6.3,18.2,6.3s14.2-3.5,18.2-6.3c5.6-5.5,17.7-5.6,23.3,0C202.7,211.3,209.9,215.5,218.8,214.5
	L218.8,214.5z M404.2,200.9c-1.3,3.7-1.8,7.5-1.4,11.4h-51.7c-7.4-0.1-7.4-11.3,0-11.4H404.2z M81.9,183.2l10.3-8.7
	c43.4,4.9,87.2,4.9,130.5,0l10.1,8.6c-2.1,5.8-6.2,15-11.5,18.8c-5.5,3.5-11.9,0.2-15.8-2.8c-4-2.8-9-6.3-18.2-6.3
	c-15.9-0.4-16.5,9.9-29.9,10.6c-13.4-0.6-13.8-11-29.8-10.6c-16.4-0.3-16.2,10.1-30.5,10.6C91.7,203.6,84.5,190.4,81.9,183.2
	L81.9,183.2z M457.6,193.8c17.3,3.7,17.3,29.5,0,33.2C439.9,222.9,439.8,197.9,457.6,193.8z M431.1,193.3h7.4
	c-7.2,10.3-7.2,23.9,0,34.2H431C408.3,226.8,408.3,193.9,431.1,193.3L431.1,193.3z M148.6,493.4H43.4c-13.6,0-24.7-11.1-24.7-24.7
	V43.2c0-13.6,11.1-24.7,24.7-24.7h227.9c13.6,0,24.7,11.1,24.7,24.7v254.4c-4.8-2.8-13.7-1.8-19-2V58.4c0-11.5-9.3-20.9-20.9-20.9
	c0,0,0,0,0,0H58.6c-11.5,0-20.9,9.3-20.9,20.9c0,0,0,0,0,0v395.1c0,11.5,9.3,20.9,20.9,20.9c0,0,0,0,0,0h75.8
	C137.4,481.8,142.3,488.4,148.6,493.4L148.6,493.4z M124.2,384.1l-8,21.1c-6.3-0.8-10.7-6.5-10-12.8c0-0.2,0-0.3,0.1-0.5
	C107.4,385.3,113.9,380,124.2,384.1z M295.2,319.1c-6.7,13.4-21.5,22.3-36.9,22.3H178c-15.2,0.1-29-8.5-35.7-22.1
	c-2.1-4.1-0.4-9.1,3.7-11.2c1.2-0.6,2.5-0.9,3.8-0.9c31.6-0.1,113.9-0.2,138-0.2c4.6,0,8.4,3.7,8.4,8.3
	C296.1,316.6,295.8,317.9,295.2,319.1z M220.6,459.2c-7.1,46.3-72.5,45.4-78.7-0.6C138.9,459.7,219.8,459,220.6,459.2z M406.8,459.2
	h78.7c-3.3,23.4-22.1,34.2-39.3,34.2C428.9,493.4,410.2,482.6,406.8,459.2z M149.7,295.8l115.9-0.2V58.4c0-5.2-4.3-9.5-9.5-9.5H58.6
	c-5.2,0-9.5,4.3-9.5,9.5v395.1c0,5.2,4.3,9.5,9.5,9.5H131c-0.5-2.8-0.8-5.7-0.8-8.6c-13.3-7.2-20.7-23.6-17.5-38.3
	c-30.4-7-19.2-55.9,15.4-42.8l13.4-35.7c-3.8-3.9-7-8.3-9.5-13.2c-4.9-9.7-1-21.6,8.8-26.5C143.6,296.6,146.6,295.8,149.7,295.8
	L149.7,295.8z M153.4,62c2.3-2.1,5.8-2.1,8.1,0c3.6,3.4,0.9,9.9-4,9.7C152.5,71.9,149.8,65.3,153.4,62L153.4,62z M71.9,176.7
	L85,165.5c4.8-48.2,40.5-70.2,72.5-70.2c31.9,0.1,67.6,22.1,72.3,70.2l13.3,11.2c1.7,1.4,2.4,3.7,1.8,5.9c-0.5,2-5.1,17.9-14.7,26.4
	v10.9c0,10.3-7.3,19.5-16.9,21.2c-18.4,3.5-37.1,5.3-55.8,5.3c-18.8,0-37.5-1.8-55.9-5.3c-9.7-1.8-16.9-10.7-16.9-21.2v-10.5
	c-5.8-5.5-10.1-14.2-12.5-20.4C69.8,183.5,68.2,179.6,71.9,176.7L71.9,176.7z M119.4,360.4H73.8V349h45.6V360.4z M119.4,333.8H73.8
	v-11.4h45.6V333.8z M119.4,307.2H73.8v-11.4h45.6V307.2z M73.8,278.2v-11.4H241v11.4H73.8z M354.9,121.1
	c15.6-0.3,30.9-1.6,35.3,15.8c9.4,2.2,16.1,10.6,16,20.3v32.3h-11.4v-32.3c0-3.5-1.9-6.8-5.1-8.4c-2.5,7.6-9,13.9-19.5,14.1h-15.3
	C327.5,162.3,327.5,121.7,354.9,121.1L354.9,121.1z"/>
</svg>
