<?xml version="1.0" encoding="utf-8"?>
<!-- Generator: Adobe Illustrator 28.1.0, SVG Export Plug-In . SVG Version: 6.00 Build 0)  -->
<svg version="1.1" id="Layer_1" xmlns="http://www.w3.org/2000/svg" xmlns:xlink="http://www.w3.org/1999/xlink" x="0px" y="0px"
	 viewBox="0 0 20 20" style="enable-background:new 0 0 20 20;" xml:space="preserve">
<style type="text/css">
	.st0{fill:#FFFFFF;}
</style>
<g id="Transfer">
	<path class="st0" d="M14.8,6.2h-4.3V4.8C10.5,4,9.8,3.3,9,3.3H5.2C4.4,3.3,3.7,4,3.7,4.8v7.5c0,0.8,0.7,1.5,1.5,1.5h4.3v1.3
		c0,0.8,0.7,1.5,1.5,1.5h3.8c0.8,0,1.5-0.7,1.5-1.5V7.7C16.3,6.8,15.6,6.2,14.8,6.2z M5.2,12.8c-0.3,0-0.5-0.2-0.5-0.5V4.8
		c0-0.3,0.2-0.5,0.5-0.5H9c0.3,0,0.5,0.2,0.5,0.5v5.1H7.8c-0.3,0-0.5,0.2-0.5,0.5s0.2,0.5,0.5,0.5h1.7v1.9H5.2z M15.3,15.2
		c0,0.3-0.2,0.5-0.5,0.5H11c-0.3,0-0.5-0.2-0.5-0.5v-4.2h2.1l-0.9,0.7c-0.2,0.2-0.2,0.5-0.1,0.7c0.2,0.2,0.5,0.2,0.7,0.1l1.2-1
		c0.3-0.2,0.5-0.6,0.5-1l0,0l0,0l0,0c0-0.4-0.2-0.7-0.5-1l-1.2-1c-0.2-0.2-0.5-0.2-0.7,0.1c-0.2,0.2-0.2,0.5,0.1,0.7c0,0,0,0,0,0
		l0.9,0.7h-2.1V7.2h4.3c0.3,0,0.5,0.2,0.5,0.5V15.2z"/>
</g>
</svg>
