<?xml version="1.0" encoding="utf-8"?>
<!-- Generator: Adobe Illustrator 28.1.0, SVG Export Plug-In . SVG Version: 6.00 Build 0)  -->
<svg version="1.1" id="Layer_1" xmlns="http://www.w3.org/2000/svg" xmlns:xlink="http://www.w3.org/1999/xlink" x="0px" y="0px"
	 viewBox="0 0 468 468" style="enable-background:new 0 0 468 468;" xml:space="preserve">
<style type="text/css">
	.st0{fill:#FFFFFF;}
</style>
<g>
	<g>
		<path class="st0" d="M144.6,133.7h30.7c2.8,0,5.1,2.3,5.1,5.1v53.7c0,6.3,5.2,11.5,11.5,11.5s11.5-5.1,11.5-11.5v-17.1
			c0-2.8,2.3-5.1,5.1-5.1s5.1,2.3,5.1,5.1v13.1c0,6.3,5.2,11.5,11.5,11.5c6.3,0,11.5-5.2,11.5-11.5v-17.1c0-2.8,2.3-5.1,5.1-5.1
			s5.1,2.3,5.1,5.1v13.1c0,6.3,5.1,11.5,11.5,11.5c6.3,0,11.5-5.1,11.5-11.5l0.1-15.5c0-2.8,2.3-5.1,5.1-5.1s5.1,2.3,5.1,5.1v7.4
			c0,6.3,5.2,11.5,11.5,11.5s11.5-5.1,11.5-11.5v-53.7c1.2-21.8-11.2-53.7-19.4-69.9c-0.4-0.7-0.6-1.5-0.6-2.3V0H177v55.1
			c0,1.1-0.4,2.2-1,3.1l-25.8,33.9c-3.6,4.7-5.6,10.6-5.6,16.6L144.6,133.7L144.6,133.7z"/>
		<path class="st0" d="M334.1,232.6H356v-73.4c0-8.5-6.9-15.3-15.3-15.3h-27.4v21.9H329c2.8,0,5.1,2.3,5.1,5.1L334.1,232.6z
			 M112,232.6h21.9v-61.7c0-2.8,2.3-5.1,5.1-5.1h31.2v-21.9h-30.7c-0.2,0-0.3,0-0.5,0h-11.6c-8.5,0-15.3,6.9-15.3,15.3L112,232.6z"
			/>
	</g>
	<g>
		<path class="st0" d="M317.4,402.6c0.3-4.2,0.4-8.6,0.4-11.6c-3-110.8-164.7-110.7-167.7,0c0,2.9,0.1,7.4,0.4,11.6L317.4,402.6z"/>
		<path class="st0" d="M221.7,297.6c9.5-1.2,19.3-1,28.8,0.6v-3.1c0-9.1-7.4-16.5-16.5-16.5c-9.1,0-16.5,7.4-16.5,16.5v3.1
			C218.9,298,220.3,297.8,221.7,297.6L221.7,297.6z"/>
		<path class="st0" d="M322.1,412.8c-0.1,0-0.1,0-0.2,0l-0.5,0H146.6l-0.1,0c-0.1,0-0.3,0-0.4,0c0,0,0,0-0.1,0
			c-5.2,0.3-9.4,4.6-9.4,9.9c0,5.5,4.5,9.9,9.9,9.9h175c5.5,0,9.9-4.5,9.9-9.9C331.4,417.5,327.3,413.2,322.1,412.8z"/>
		<path class="st0" d="M383.5,242.8h-299c-8.5,0-15.3,6.9-15.3,15.3v194.6c0,8.5,6.9,15.3,15.3,15.3h299c8.5,0,15.3-6.9,15.3-15.3
			V258.1C398.8,249.7,392,242.8,383.5,242.8L383.5,242.8z M321.5,442.9h-175c-11.1,0-20.2-9-20.2-20.2c0-9,5.9-16.6,14-19.2
			c-0.3-4.6-0.5-9.4-0.5-12.6c0-42.7,28.5-78.8,67.4-90.3v-5.6c0-14.7,12-26.7,26.7-26.7c14.7,0,26.7,12,26.7,26.7v5.6
			c38.9,11.5,67.4,47.7,67.4,90.3c0,3.2-0.1,8-0.4,12.6c8.1,2.6,14,10.2,14,19.2C341.6,433.8,332.6,442.9,321.5,442.9L321.5,442.9z"
			/>
	</g>
</g>
</svg>
