<?xml version="1.0" encoding="utf-8"?>
<!-- Generator: Adobe Illustrator 28.1.0, SVG Export Plug-In . SVG Version: 6.00 Build 0)  -->
<svg version="1.1" id="Layer_1" xmlns="http://www.w3.org/2000/svg" xmlns:xlink="http://www.w3.org/1999/xlink" x="0px" y="0px"
	 viewBox="0 0 512 512" style="enable-background:new 0 0 512 512;" xml:space="preserve">
<style type="text/css">
	.st0{fill:#FFFFFF;}
</style>
<path class="st0" d="M260.7,385.3c-3,6.5-9.4,17-18,19.6c-1.2,0.2-2.6,0.4-4,0.5c-6.7-0.1-9.8-3.4-14.1-7.9
	c-12.8-16.2-34.5-15.2-45.6,2.6c-8.3,13-19.9,13-28.3,0c-11.5-17.9-32.7-18.8-46.2-2.9c-4.5,4.5-8,8-15,8.1
	c-0.6-0.1-1.2-0.1-1.8-0.2c-9.9-1.3-16.5-14.1-18.9-19.9l14.4-18c26.9,5,54.2,7.5,81.6,7.5c27.4,0,54.6-2.5,81.6-7.5L260.7,385.3z
	 M202.1,397.3c-6.9-0.4-11.2,6-16,12.2c12.9-0.4,23.7-1.1,32.5-1.9C213.6,402.5,210,397.2,202.1,397.3z M127.4,397.3
	c-7.8-0.1-11.8,5.1-17,10.2c10.1,0.8,21.5,1.6,33.2,2C138.7,403.3,134.4,397,127.4,397.3L127.4,397.3z M243.2,443.3
	c-39.9,6-116.9,6-156.8,0c-0.8,6.9,2.1,13.9,9.8,15.1c22.7,3.9,45.6,6,68.7,6c22.8-0.1,45.6-2.1,68.1-5.9
	C240.6,457.3,244.1,450.3,243.2,443.3z M252.5,95.7c5.9-4.5,12.8,4.5,6.9,9.1l-70.2,53.4c-24.8,19.4,3.4,56.9,29,38.4l68.6-51.4
	c2.5-1.9,6.1-1.4,8,1.1c1.9,2.5,1.4,6.1-1.1,8l-16.7,12.5h43.7c56.6-4.5,50.3-141,0-140.6h-68.4C197.8,26,148.1,57,124.3,105.9
	h114.8L252.5,95.7z M71.4,159.1h102c3.8-9,43.3-35.2,50.7-41.8H71.5C57.5,125.4,55.9,149.5,71.4,159.1z M242.7,356.4
	c-25.7,4.6-51.8,7-77.9,7c-26.1-0.1-52.2-2.4-77.9-7c2.8-33.7,35.2-69.5,77.9-69.5S240,322.6,242.7,356.4z M121.8,327.3l-6.6,6.5
	c-5.3,5.2,2.6,13.3,7.9,8.2l6.6-6.5C135.1,330.2,127.2,322.1,121.8,327.3z M160.5,305.5c-4-3.1-10.2-13.4-15.9-7.5
	c-2.2,2.3-2.1,5.9,0.1,8.1c3.9,3.1,10.2,13.4,15.9,7.5C162.8,311.3,162.7,307.7,160.5,305.5z M171.6,339.4l-5,4.8
	c-3.7,3.4-0.9,10,4,9.8c3.2,0.4,6.8-4.7,8.9-6.5C184.9,342.5,176.8,334.2,171.6,339.4z M206.5,320.4c-2.8-1.5-6.2-0.4-7.7,2.4
	c-1.5,2.8-0.4,6.2,2.4,7.7l0,0c4.2,2.1,10.9,7.3,14.4,1.1C218.7,325.3,210.6,322.7,206.5,320.4L206.5,320.4z M342,20.9
	c39.6,28.3,41.2,121.2-0.2,151c36.3,11.4,48.5-38.1,49.1-75.5C390.4,58.1,379,11.7,342,20.9z M449.8,18.5
	c-31.3,0-49.7,8.2-60.2,16.1c3.5,7.2,6.2,14.8,8,22.6c13.5-6.6,29.1-7.6,43.3-2.8c3,0.9,4.7,4.1,3.8,7.1s-4.1,4.7-7.1,3.8
	c-0.1,0-0.2-0.1-0.3-0.1c-12.4-4.2-26.1-2.9-37.5,3.7c3.3,26.1,3.3,29.2,0,55.2c11.4,6.5,25,7.8,37.5,3.7c3-1.1,6.2,0.5,7.3,3.5
	s-0.5,6.2-3.5,7.3c-0.1,0-0.2,0.1-0.3,0.1c-13.8,5.2-33.2,2.7-43.3-2.9c-1.8,7.8-4.5,15.4-8,22.6c10.5,7.9,28.9,16.1,60.2,16.1h24.7
	V18.5L449.8,18.5z M303.5,317.5v173.3l26.6-10.6V324.4c0-3.1,2.5-5.7,5.7-5.7c3.1,0,5.7,2.5,5.7,5.7c0,0,0,0,0,0v155.7l26.6,10.6
	V317.5l-32.3-129.2L303.5,317.5z M260.7,385.3c-3,6.5-9.4,17-18,19.6c-1.2,0.2-2.6,0.4-4,0.5c-6.7-0.1-9.8-3.4-14.1-7.9
	c-12.8-16.2-34.5-15.2-45.6,2.6c-8.3,13-19.9,13-28.3,0c-11.5-17.9-32.7-18.8-46.2-2.9c-4.5,4.5-8,8-15,8.1
	c-0.6-0.1-1.2-0.1-1.8-0.2c-9.9-1.3-16.5-14.1-18.9-19.9l14.4-18c26.9,5,54.2,7.5,81.6,7.5c27.4,0,54.6-2.5,81.6-7.5L260.7,385.3z
	 M255.2,430.1c-15.7,2.8-54.2,6.6-90.4,6.6c-36.3,0-74.8-3.9-90.4-6.6c-11.5-2.8-6-16.9,2.8-14.9c2.1,0.4,4.5,0.7,7,1
	c1.3,0.3,2.5,0.4,3.8,0.5c34.5,5.8,124.9,5.5,151.7,0c1.6-0.1,3.2-0.3,4.7-0.6c3-0.5,6.1-0.8,9.2-1
	C263.2,415,264.6,428.4,255.2,430.1L255.2,430.1z M233,458.6c-22.5,3.8-45.3,5.8-68.1,5.9c-23-0.1-46-2.1-68.7-6
	c-7.7-1.2-10.6-8.2-9.8-15.1c39.9,6,116.9,6,156.8,0C244.1,450.3,240.6,457.3,233,458.6z M242.7,356.4c-25.7,4.6-51.8,7-77.9,7
	c-26.1-0.1-52.2-2.4-77.9-7c2.8-33.7,35.2-69.5,77.9-69.5S240,322.6,242.7,356.4z M121.8,327.3l-6.6,6.5c-5.3,5.2,2.6,13.3,7.9,8.2
	l6.6-6.5C135.1,330.3,127.2,322.1,121.8,327.3z M160.5,305.5c-4-3.1-10.2-13.4-15.9-7.5c-2.2,2.3-2.1,5.9,0.1,8.1
	c3.9,3.1,10.2,13.4,15.9,7.5C162.8,311.3,162.7,307.7,160.5,305.5z M171.6,339.4l-5,4.8c-3.7,3.4-0.9,10,4,9.8
	c3.2,0.4,6.8-4.7,8.9-6.5C184.9,342.5,176.8,334.2,171.6,339.4z M206.5,320.4c-2.8-1.5-6.2-0.4-7.7,2.4c-1.5,2.8-0.4,6.2,2.4,7.7
	l0,0c4.2,2.1,10.9,7.3,14.4,1.1C218.7,325.3,210.6,322.7,206.5,320.4L206.5,320.4z M218.6,407.7c-8.8,0.8-19.6,1.5-32.5,1.9
	c4.8-6.2,9.1-12.6,16-12.2C210,397.2,213.5,402.6,218.6,407.7z M143.6,409.5c-11.7-0.4-23.1-1.1-33.2-2c5.2-5.1,9.2-10.3,17-10.2
	C134.4,397,138.7,403.3,143.6,409.5L143.6,409.5z M110.4,407.5c10.1,0.8,21.5,1.6,33.2,2c-4.9-6.2-9.2-12.5-16.2-12.1
	C119.6,397.2,115.7,402.4,110.4,407.5L110.4,407.5z M186.1,409.6c12.9-0.4,23.7-1.1,32.5-1.9c-5-5.1-8.6-10.5-16.5-10.3
	C195.2,396.9,190.9,403.4,186.1,409.6z M242.7,356.4c-25.7,4.6-51.8,7-77.9,7c-26.1-0.1-52.2-2.4-77.9-7
	c2.8-33.7,35.2-69.5,77.9-69.5S240,322.6,242.7,356.4z M121.8,327.3l-6.6,6.5c-5.3,5.2,2.6,13.3,7.9,8.2l6.6-6.5
	C135.1,330.3,127.2,322.1,121.8,327.3z M160.5,305.5c-4-3.1-10.2-13.4-15.9-7.5c-2.2,2.3-2.1,5.9,0.1,8.1
	c3.9,3.1,10.2,13.4,15.9,7.5C162.8,311.3,162.7,307.7,160.5,305.5z M171.6,339.4l-5,4.8c-3.7,3.4-0.9,10,4,9.8
	c3.2,0.4,6.8-4.7,8.9-6.5C184.9,342.5,176.8,334.2,171.6,339.4z M206.5,320.4c-2.8-1.5-6.2-0.4-7.7,2.4c-1.5,2.8-0.4,6.2,2.4,7.7
	l0,0c4.2,2.1,10.9,7.3,14.4,1.1C218.7,325.3,210.6,322.7,206.5,320.4L206.5,320.4z M86.4,443.3c-0.8,6.9,2.1,13.9,9.8,15.1
	c22.7,3.9,45.6,6,68.7,6c22.8-0.1,45.6-2.1,68.1-5.9c7.6-1.3,11.1-8.4,10.2-15.3C203.3,449.4,126.3,449.4,86.4,443.3z M253.7,415.1
	c-3.1,0.2-6.1,0.5-9.2,1c-1.6,0.4-3.1,0.6-4.7,0.6c-26.8,5.5-117.2,5.8-151.7,0c-1.3-0.1-2.5-0.2-3.8-0.5c-2.6-0.4-4.9-0.7-7-1
	c-8.8-2-14.3,12.1-2.8,14.9c15.6,2.7,54.1,6.6,90.4,6.6c36.3,0,74.7-3.9,90.4-6.6C264.6,428.4,263.2,415,253.7,415.1z M87.8,405.2
	c0.6,0.1,1.2,0.1,1.8,0.2c6.9-0.1,10.5-3.6,15-8.1c13.5-15.9,34.7-15.1,46.2,2.9c8.4,13,19.9,12.9,28.3,0
	c11.2-17.9,32.8-18.8,45.6-2.6c4.3,4.6,7.4,7.8,14.1,7.9c1.4-0.2,2.8-0.4,4-0.5c8.5-2.5,15-13,18-19.6l-14.4-18
	c-26.9,5-54.2,7.5-81.6,7.5c-27.4,0-54.6-2.5-81.6-7.5l-14.4,18C71.3,391.1,77.8,403.9,87.8,405.2L87.8,405.2z M292.3,315.4
	c-0.5,1.2,0,176.7-0.2,178.1H37.5v-176l36.8-147h94.9c-7.3,30.9,31.2,54.7,55.9,35.1l36.7-27.5h64.7L292.3,315.4z M261.3,405.3
	c4.8-5.7,8.6-12.1,11.3-19c0.7-1.9,0.3-4-0.9-5.5l-17.5-21.9c-1.3-44.7-42.5-83.4-89.4-83.4s-88.1,38.7-89.4,83.4l-17.5,21.9
	c-1.2,1.5-1.6,3.5-1,5.3c2.4,7,6.1,13.6,10.7,19.4c-15.7,7.4-14.9,32,4.7,35.9c0.8,0.1,1.7,0.3,2.6,0.4c-1.6,12.9,5.6,25.8,19.3,28
	c23.3,4,46.9,6.1,70.6,6.2c23.5-0.1,46.9-2.1,70.1-6c13.7-2.3,21.1-15.1,19.6-28.1c0.9-0.1,1.8-0.3,2.7-0.4
	C275.9,438.3,278.6,412.1,261.3,405.3z M253.7,415.1c-3.1,0.2-6.1,0.5-9.2,1c-1.6,0.4-3.1,0.6-4.7,0.6c-26.8,5.5-117.2,5.8-151.7,0
	c-1.3-0.1-2.5-0.2-3.8-0.5c-2.6-0.4-4.9-0.7-7-1c-8.8-2-14.3,12.1-2.8,14.9c15.6,2.7,54.1,6.6,90.4,6.6c36.3,0,74.7-3.9,90.4-6.6
	C264.6,428.4,263.2,415,253.7,415.1z"/>
</svg>
