<?xml version="1.0" encoding="utf-8"?>
<!-- Generator: Adobe Illustrator 28.1.0, SVG Export Plug-In . SVG Version: 6.00 Build 0)  -->
<svg version="1.1" id="Layer_1" xmlns="http://www.w3.org/2000/svg" xmlns:xlink="http://www.w3.org/1999/xlink" x="0px" y="0px"
	 viewBox="0 0 512 512" style="enable-background:new 0 0 512 512;" xml:space="preserve">
<style type="text/css">
	.st0{fill:#000;}
</style>
<g>
	<g>
		<path class="st0" d="M481.3,10.2H30.7c-11.3,0-20.5,9.2-20.5,20.5V299c0,11.3,9.2,20.5,20.5,20.5h38.9
			c4.1-14.3,18.4-25.6,33.8-25.6c10.2,0,20.5,5.1,26.6,12.3V197.6c0-5.1,1-9.2,3.1-13.3v-41c0-5.1,5.1-10.2,10.2-10.2h44
			c5.1,0,10.2,5.1,10.2,10.2c0,46.1,1,44-1,47.1c0,2,1,4.1,1,6.1v35.8v8.2c9.2-4.1,19.5-3.1,27.6,1v-8.2c0-6.1,5.1-10.2,10.2-10.2
			h44c5.1,0,10.2,4.1,10.2,10.2v32.8c4.1-2,9.2-3.1,13.3-3.1c18.4,0,33.8,15.4,33.8,33.8v22.5h144.4c11.3,0,20.5-9.2,20.5-20.5V30.7
			C501.8,19.5,492.5,10.2,481.3,10.2L481.3,10.2z M105.5,278.5c0,5.1-4.1,10.2-10.2,10.2h-44c-6.1,0-10.2-5.1-10.2-10.2v-44
			c0-6.1,4.1-10.2,10.2-10.2h44c6.1,0,10.2,4.1,10.2,10.2V278.5z M105.5,186.4c0,5.1-4.1,10.2-10.2,10.2h-44
			c-6.1,0-10.2-5.1-10.2-10.2v-43c0-5.1,4.1-10.2,10.2-10.2h44c6.1,0,10.2,5.1,10.2,10.2V186.4z M105.5,95.2
			c0,5.1-4.1,10.2-10.2,10.2h-44c-6.1,0-10.2-5.1-10.2-10.2v-44C41,46.1,45.1,41,51.2,41h44c6.1,0,10.2,5.1,10.2,10.2V95.2z
			 M196.6,95.2c0,5.1-5.1,10.2-10.2,10.2h-44c-5.1,0-10.2-5.1-10.2-10.2v-44c0-5.1,5.1-10.2,10.2-10.2h44c5.1,0,10.2,5.1,10.2,10.2
			V95.2z M287.7,186.4c0,5.1-5.1,10.2-10.2,10.2h-44c-5.1,0-10.2-5.1-10.2-10.2v-43c0-5.1,5.1-10.2,10.2-10.2h44
			c5.1,0,10.2,5.1,10.2,10.2V186.4z M287.7,95.2c0,5.1-5.1,10.2-10.2,10.2h-44c-5.1,0-10.2-5.1-10.2-10.2v-44
			c0-5.1,5.1-10.2,10.2-10.2h44c5.1,0,10.2,5.1,10.2,10.2V95.2z M471,278.5c0,5.1-4.1,10.2-10.2,10.2H347.1
			c-5.1,0-10.2-5.1-10.2-10.2v-44c0-6.1,5.1-10.2,10.2-10.2h113.7c6.1,0,10.2,4.1,10.2,10.2V278.5z M471,186.4
			c0,5.1-4.1,10.2-10.2,10.2H347.1c-5.1,0-10.2-5.1-10.2-10.2v-43c0-5.1,5.1-10.2,10.2-10.2h113.7c6.1,0,10.2,5.1,10.2,10.2V186.4z
			 M471,95.2c0,5.1-4.1,10.2-10.2,10.2H347.1c-5.1,0-10.2-5.1-10.2-10.2v-44c0-5.1,5.1-10.2,10.2-10.2h113.7
			c6.1,0,10.2,5.1,10.2,10.2V95.2z"/>
		<path class="st0" d="M448.5,66.6h-89.1c-4.1,0-7.2,3.1-7.2,7.2s3.1,7.2,7.2,7.2h89.1c4.1,0,7.2-3.1,7.2-7.2
			C454.7,69.6,451.6,66.6,448.5,66.6z"/>
		<path class="st0" d="M448.5,157.7h-89.1c-4.1,0-7.2,3.1-7.2,7.2c0,4.1,3.1,7.2,7.2,7.2h89.1c4.1,0,7.2-3.1,7.2-7.2
			C454.7,160.8,451.6,157.7,448.5,157.7z"/>
		<path class="st0" d="M448.5,249.9h-89.1c-4.1,0-7.2,3.1-7.2,7.2c0,4.1,3.1,7.2,7.2,7.2h89.1c4.1,0,7.2-3.1,7.2-7.2
			C454.7,252.9,451.6,249.9,448.5,249.9z"/>
		<path class="st0" d="M302.1,273.4c-13.3,0-23.6,10.2-23.6,23.6v-11.3c0-11.3-7.2-21.5-18.4-23.6c-14.3-3.1-27.6,8.2-27.6,22.5
			v-11.3c0-11.3-7.2-21.5-18.4-23.6c-14.3-3.1-27.6,8.2-27.6,22.5v-74.8c0-14.3-13.3-25.6-27.6-22.5c-11.3,2-18.4,12.3-18.4,23.6
			V340l-16.4-23.6c-8.2-11.3-23.6-14.3-34.8-6.1c-11.3,7.2-14.3,22.5-6.1,34.8l59.4,91.1h159.7c14.3-24.6,22.5-54.3,22.5-82.9V297
			C324.6,283.6,314.4,273.4,302.1,273.4z"/>
		<path class="st0" d="M305.2,445.4H142.3c-6.1,0-11.3,5.1-11.3,11.3v34.8c0,6.1,5.1,11.3,11.3,11.3h162.8c6.1,0,11.3-5.1,11.3-11.3
			v-34.8C316.4,450.6,311.3,445.4,305.2,445.4z"/>
	</g>
</g>
</svg>
