<?xml version="1.0" encoding="utf-8"?>
<!-- Generator: Adobe Illustrator 28.1.0, SVG Export Plug-In . SVG Version: 6.00 Build 0)  -->
<svg version="1.1" id="Layer_1" xmlns="http://www.w3.org/2000/svg" xmlns:xlink="http://www.w3.org/1999/xlink" x="0px" y="0px"
	 viewBox="0 0 512 512" style="enable-background:new 0 0 512 512;" xml:space="preserve">
<style type="text/css">
	.st0{fill:#FFFFFF;}
</style>
<g id="_x30_2_x2C__Menu_x2C__food_and_restaurant_x2C__files_and_folders_x2C__menus_x2C__paper_x2C__restaurant">
	<g>
		<g>
			<path class="st0" d="M426,81h-20V11c0-6.5-6.2-11.3-12.5-9.7l-310,80C79.1,82.4,76,86.5,76,91v410c0,5.5,4.5,10,10,10h340
				c5.5,0,10-4.5,10-10V91C436,85.5,431.5,81,426,81L426,81z M416,491H96V101h320V491z"/>
			<path class="st0" d="M156,341h200c16.5,0,30-13.5,30-30c0-13-8.4-24.2-20-28.3V271c0-48.4-31.5-89.6-75-104.3V156
				c0-19.3-15.7-35-35-35s-35,15.7-35,35v10.7c-43.5,14.7-75,55.9-75,104.3v11.7c-11.6,4.1-20,15.2-20,28.3
				C126,327.5,139.5,341,156,341z M241,156c0-8.3,6.7-15,15-15s15,6.7,15,15v6c-10-1.4-20-1.4-30,0V156z M156,301h200
				c5.5,0,10,4.5,10,10s-4.5,10-10,10H156c-5.5,0-10-4.5-10-10S150.5,301,156,301z"/>
			<path class="st0" d="M126,431h260c5.5,0,10-4.5,10-10v-50c0-5.5-4.5-10-10-10H126c-5.5,0-10,4.5-10,10v50
				C116,426.5,120.5,431,126,431z"/>
			<path class="st0" d="M126,471h260c5.5,0,10-4.5,10-10s-4.5-10-10-10H126c-5.5,0-10,4.5-10,10S120.5,471,126,471z"/>
		</g>
	</g>
</g>
<g id="Layer_1_00000057148999998152148650000002061664145729168037_">
</g>
</svg>
