<svg id="Layer_1" height="512" viewBox="0 0 512 512" width="512" xmlns="http://www.w3.org/2000/svg" data-name="Layer 1"><path fill="white" d="m248.159 39.84a7.841 7.841 0 1 0 7.841-7.84 7.852 7.852 0 0 0 -7.841 7.841zm188.82 359.619a15.982 15.982 0 0 0 -15.97-15.97h-330.018a15.972 15.972 0 0 0 0 31.944h330.018a15.989 15.989 0 0 0 15.97-15.974zm-311.619-187.438c-.109-7.719-.222-15.71-.222-23.92 0-60.618 41.45-111.75 97.493-126.54a39.838 39.838 0 1 1 66.747 0c56.043 14.79 97.479 65.922 97.479 126.54 0 8.21-.108 16.2-.217 23.92-.8 57.142-1.382 98.639 41.248 139.972a47.966 47.966 0 0 1 -6.879 95.436h-97.219a67.87 67.87 0 0 1 -135.58 0h-97.219a47.966 47.966 0 0 1 -6.884-95.436c42.63-41.333 42.055-82.774 41.253-139.972zm130.64-72.532a48.668 48.668 0 0 1 48.608 48.611 16 16 0 0 0 32 0 80.7 80.7 0 0 0 -80.608-80.611 16 16 0 1 0 0 32z" fill-rule="evenodd"/></svg>