<?xml version="1.0" encoding="utf-8"?>
<!-- Generator: Adobe Illustrator 28.1.0, SVG Export Plug-In . SVG Version: 6.00 Build 0)  -->
<svg version="1.1" id="Layer_1" xmlns="http://www.w3.org/2000/svg" xmlns:xlink="http://www.w3.org/1999/xlink" x="0px" y="0px"
	 viewBox="0 0 48 31.5" style="enable-background:new 0 0 48 31.5;" xml:space="preserve">
<style type="text/css">
	.st0{fill:#FFFFFF;}
</style>
<path class="st0" d="M46,4H24.9c-1.1,0-2-0.9-2-2s0.9-2,2-2H46c1.1,0,2,0.9,2,2S47.1,4,46,4z M48,11.1c0-1.1-0.9-2-2-2H24.9
	c-1.1,0-2,0.9-2,2s0.9,2,2,2H46C47.1,13.1,48,12.2,48,11.1z M48,20.3c0-1.1-0.9-2-2-2H24.9c-1.1,0-2,0.9-2,2c0,1.1,0.9,2,2,2H46
	C47.1,22.3,48,21.4,48,20.3z M48,29.5c0-1.1-0.9-2-2-2H24.9c-1.1,0-2,0.9-2,2s0.9,2,2,2H46C47.1,31.5,48,30.6,48,29.5z M18.6,29.5V2
	c0-1.1-0.9-2-2-2s-2,0.9-2,2v27.5c0,1.1,0.9,2,2,2S18.6,30.6,18.6,29.5z M9.4,21.4c0.8-0.8,0.8-2,0-2.8l-3.8-3.8l3.8-3.8
	c0.8-0.8,0.8-2,0-2.8c-0.8-0.8-2-0.8-2.8,0L0,14.8l6.6,6.6C6.9,21.8,7.5,22,8,22S9,21.8,9.4,21.4z"/>
</svg>
