<?xml version="1.0" encoding="utf-8"?>
<!-- Generator: Adobe Illustrator 28.1.0, SVG Export Plug-In . SVG Version: 6.00 Build 0)  -->
<svg version="1.1" id="Layer_1" xmlns="http://www.w3.org/2000/svg" xmlns:xlink="http://www.w3.org/1999/xlink" x="0px" y="0px"
	 viewBox="0 0 48 48" style="enable-background:new 0 0 48 48;" xml:space="preserve">
<style type="text/css">
	.st0{fill:#FFFFFF;}
</style>
<path class="st0" d="M47.9,26.7c-1.2,11-10.1,19.9-21.1,21.1C12.3,49.5,0,38.2,0,24c0-0.6,0.5-1.1,1.1-1.1s1.1,0.5,1.1,1.1
	c0,12.9,11.2,23.2,24.3,21.7c10-1.1,18.1-9.2,19.2-19.2C47.2,13.3,36.9,2.1,24,2.1c-5.7,0-11.2,2.3-15.3,6.3l4-0.4
	c0.4,0,0.7,0.2,0.7,0.6v0c0,0.4-0.2,0.7-0.6,0.7L7.3,9.9l-1,0.1L5.8,10l0-0.5l0-1L5.5,2.9c0-0.4,0.3-0.7,0.6-0.7h0
	c0.4,0,0.7,0.3,0.7,0.6L7,7.1C11.5,2.6,17.6,0,24,0C38.1,0,49.4,12.3,47.9,26.7z M41.5,30c0,3.6-2.9,6.5-6.5,6.5
	c-3.6,0-6.5-2.9-6.5-6.5s2.9-6.5,6.5-6.5C38.6,23.5,41.5,26.4,41.5,30z M39.9,31.1c0-0.2-0.2-0.4-0.4-0.4h-4.8V26
	c0-0.2-0.2-0.4-0.4-0.4s-0.4,0.2-0.4,0.4v5.5h5.7C39.7,31.6,39.9,31.4,39.9,31.1z M26.7,30c0-4.5,3.7-8.2,8.2-8.2c0.3,0,0.5,0,0.8,0
	v-6.7c0-2.2-1.8-4-4-4H16.3c-2.2,0-4,1.8-4,4v19.1c0,2.2,1.8,4,4,4h15.5c0.4,0,0.9-0.1,1.2-0.2C29.4,37.1,26.7,33.9,26.7,30z
	 M32,18.6H16.4c-0.7,0-1.2-0.5-1.2-1.2v0c0-0.7,0.5-1.2,1.2-1.2H32c0.7,0,1.2,0.5,1.2,1.2v0C33.1,18,32.6,18.6,32,18.6z M28.9,22.2
	H16.3c-0.6,0-1.1-0.5-1.1-1.1v-0.2c0-0.6,0.5-1.1,1.1-1.1h12.6c0.6,0,1.1,0.5,1.1,1.1v0.2C30,21.7,29.5,22.2,28.9,22.2z"/>
</svg>
