<?xml version="1.0" encoding="utf-8"?>
<!-- Generator: Adobe Illustrator 28.1.0, SVG Export Plug-In . SVG Version: 6.00 Build 0)  -->
<svg version="1.1" id="Layer_1" xmlns="http://www.w3.org/2000/svg" xmlns:xlink="http://www.w3.org/1999/xlink" x="0px" y="0px"
	 viewBox="0 0 48 48" style="enable-background:new 0 0 48 48;" xml:space="preserve">
<style type="text/css">
	.st0{fill:#FFFFFF;}
</style>
<g>
	<path class="st0" d="M35.1,19.5c0-0.9-0.8-1.7-1.7-1.7H10.5c-1,0-1.7,0.8-1.7,1.7c0,1,0.8,1.7,1.7,1.7h22.9
		C34.4,21.2,35.1,20.4,35.1,19.5z"/>
	<path class="st0" d="M29.6,26c0-1-0.8-1.7-1.7-1.7H10.5c-1,0-1.7,0.8-1.7,1.7c0,0.9,0.8,1.7,1.7,1.7h17.3
		C28.8,27.7,29.6,26.9,29.6,26z"/>
	<path class="st0" d="M10.5,30.7c-1,0-1.7,0.8-1.7,1.7s0.8,1.7,1.7,1.7h11.8c1,0,1.7-0.8,1.7-1.7s-0.8-1.7-1.7-1.7H10.5z"/>
	<path class="st0" d="M46,28.7c0-0.4,0-0.7,0-1.1c0-0.2-0.1-0.5-0.1-0.7c-0.6-2.6-3-4.6-5.7-4.9c-0.1,0-0.1,0-0.2,0h-0.7
		c-0.1,0-0.1,0-0.2,0c-1.4,0.1-2.6,0.7-3.6,1.7c-4,4-8,8-12,12c-0.3,0.3-0.5,0.6-0.5,1c-0.4,2.5-0.7,5-1.1,7.5
		c-0.1,0.8,0.3,1.4,1.1,1.7c0.3,0.1,0.7,0.1,1,0c2.2-0.3,4.4-0.6,6.5-0.9c0.6-0.1,1.2-0.1,1.7-0.6c4-4,8-8,12-12
		c0.8-0.8,1.3-1.6,1.6-2.7C45.9,29.3,46,29,46,28.7L46,28.7z M39.9,32.3c-3.1,3.1-6.2,6.2-9.3,9.3c-0.1,0.1-0.3,0.2-0.4,0.2
		c-1.5,0.2-3.1,0.4-4.7,0.7l0,0c-0.2,0-0.1-0.1-0.1-0.2c0.1-1,0.3-2,0.4-3c0.1-0.5,0.2-1,0.2-1.5c0-0.2,0.1-0.4,0.2-0.5
		c3.1-3.1,6.2-6.2,9.3-9.3c0.2-0.2,0.3-0.2,0.4,0c1.3,1.3,2.6,2.6,3.9,3.9C40.1,32.1,40.1,32.2,39.9,32.3z M42.3,29.9
		c-1.3-1.3-2.6-2.6-3.9-3.9c-0.3-0.3-0.2-0.5,0.2-0.7c1.3-0.6,2.8-0.2,3.7,0.9C43.1,27.3,43.1,28.8,42.3,29.9z"/>
	<path class="st0" d="M4.9,39.2V12.2c0-2,1.7-3.7,3.7-3.7h4.6V10c0,1.1,0.9,1.9,1.9,1.9c1.1,0,1.9-0.9,1.9-1.9V8.5h5.1V10
		c0,1.1,0.9,1.9,1.9,1.9c1.1,0,1.9-0.9,1.9-1.9V8.5h4.9V10c0,1.1,0.9,1.9,1.9,1.9c1.1,0,1.9-0.9,1.9-1.9V8.5h0.9
		c2,0,3.7,1.7,3.7,3.7v8.5h3v-8.5c0-3.7-3-6.7-6.7-6.7h-0.9V4c0-1.1-0.9-1.9-1.9-1.9S30.9,3,30.9,4v1.5H26V4c0-1.1-0.9-1.9-1.9-1.9
		S22.2,3,22.2,4v1.5h-5.1V4c0-1.1-0.9-1.9-1.9-1.9S13.2,3,13.2,4v1.5H8.7c-3.7,0-6.7,3-6.7,6.7v26.9c0,3.7,3,6.7,6.7,6.7h11.9v-3
		H8.7C6.6,42.9,4.9,41.2,4.9,39.2z"/>
</g>
</svg>
