<?xml version="1.0" encoding="utf-8"?>
<!-- Generator: Adobe Illustrator 28.1.0, SVG Export Plug-In . SVG Version: 6.00 Build 0)  -->
<svg version="1.1" id="Layer_1" xmlns="http://www.w3.org/2000/svg" xmlns:xlink="http://www.w3.org/1999/xlink" x="0px" y="0px"
	 viewBox="0 0 48 37.7" style="enable-background:new 0 0 48 37.7;" xml:space="preserve">
<style type="text/css">
	.st0{fill:#FFFFFF;}
</style>
<path class="st0" d="M45.8,37.7H2.2c-0.4,0-0.7-0.2-0.9-0.5l-1.2-2.1c-0.3-0.6,0.2-1.3,0.9-1.3h46c0.7,0,1.2,0.7,0.9,1.3l-1.2,2.1
	C46.5,37.5,46.2,37.7,45.8,37.7z M45.5,32.4c0.1,0.5-0.1,0.7-0.6,0.7c-6.9,0-13.9,0-20.8,0c0,0,0,0,0,0c-6.9,0-13.9,0-20.8,0
	c-0.6,0-0.7-0.2-0.7-0.7c0.2-4.5,1.6-8.6,4.3-12.2c3.7-4.9,8.7-7.7,14.9-8.4c0.4,0,0.8-0.1,1.3-0.1c-0.4-0.3-0.6-0.7-0.6-1.2
	c0-0.9,0.7-1.6,1.6-1.6s1.6,0.7,1.6,1.6c0,0.5-0.2,0.9-0.6,1.2c3.2,0.2,6.2,1,8.9,2.4c0.4,0.8,0.9,1.5,1.3,2.3
	c0.5,0.8,1,1.6,1.4,2.4c0.4,0.7,1,1.1,1.7,1.1c0.6,0,1.2-0.3,1.6-0.9c2.8,3.1,4.5,6.8,5.1,11.1C45.4,30.7,45.4,31.6,45.5,32.4z
	 M16.3,15.4c-0.8,0.3-1.6,0.8-2.3,1.3c-2.9,2-5.1,4.6-6.7,7.6c-0.8,1.4-1.4,3-1.8,4.5c-0.1,0.4-0.1,0.7,0.5,0.7c0.5,0,1,0.1,1.5,0.2
	c0.7,0.1,0.7,0.1,0.8-0.7c0.6-4.3,2.4-8.1,5.4-11.3C14.5,16.9,15.4,16.2,16.3,15.4z M25.1,10.3c0-0.6-0.5-1.1-1.1-1.1
	s-1.1,0.5-1.1,1.1c0,0.6,0.5,1.1,1.1,1.1S25.1,10.9,25.1,10.3z M32.7,9.5c1.6,2.9,3.3,5.7,5,8.6c0.4,0.7,1.1,0.7,1.5,0
	c1.7-2.8,3.4-5.6,5-8.5c0.7-1.3,0.9-2.6,0.7-4c-0.4-3.1-3.2-5.6-6.6-5.5C34.7,0.1,32,3.1,32,6.3C32,7.5,32.2,8.5,32.7,9.5z
	 M38.4,9.9c-2,0-3.6-1.7-3.6-3.7c0-2,1.6-3.6,3.7-3.6c2,0,3.6,1.6,3.6,3.7C42.1,8.3,40.4,9.9,38.4,9.9z"/>
</svg>
