<svg fill="none" height="22" viewBox="0 0 20 22" width="20" xmlns="http://www.w3.org/2000/svg" xmlns:xlink="http://www.w3.org/1999/xlink"><clipPath id="clip0_14_7227"><path d="m0 0h20v22h-20z"/></clipPath><g clip-path="url(#clip0_14_7227)"><path clip-rule="evenodd" d="m14.0831 5.99998c0-2.206-1.8313-4-4.0831-4-2.25184 0-4.08312 1.794-4.08312 4 0 2.20601 1.83128 4 4.08312 4 2.2518 0 4.0831-1.79399 4.0831-4zm3.8627 14.00002h-1.8211c-.5635 0-1.0208-.448-1.0208-1s.4573-1 1.0208-1h.4379c.7064 0 1.228-.697.9606-1.338-1.2362-2.964-4.1393-4.662-7.5232-4.662-3.38389 0-6.28699 1.698-7.52316 4.662-.26744.641.25418 1.338.96056 1.338h.43791c.56348 0 1.02078.448 1.02078 1s-.4573 1-1.02078 1h-1.82107c-1.275976 0-2.280422-1.143-2.0099149-2.364.7431279-3.359 3.0633649-5.838 6.1195749-6.963-1.39438-1.09904-2.28859-2.78302-2.28859-4.67302 0-3.551 3.14809-6.381003 6.85859-5.9580031 2.6888.3060001 4.9161 2.4049531 5.3193 5.0279531.3471 2.261-.5971 4.32603-2.2171 5.60307 3.0562 1.125 5.3764 3.604 6.1196 6.963.2705 1.221-.734 2.364-2.0099 2.364zm-4.8835-1c0 .552-.4573 1-1.0207 1h-.8126c0 1 .1062 2-1.0208 2-.56445 0-1.02074-.448-1.02074-1v-1h-1.22902c-.56347 0-1.02079-.448-1.02079-1s.45732-1 1.02079-1h1.22902v-1c0-.552.45629-1 1.02074-1 .5635 0 1.0208.448 1.0208 1v1h.8126c.5634 0 1.0207.448 1.0207 1z" fill="rgb(0,0,0)" fill-rule="evenodd"/></g></svg>