<?xml version="1.0" encoding="UTF-8"?>
<svg xmlns="http://www.w3.org/2000/svg" viewBox="0 0 64 64" width="512" height="512"><g id="Round_Table-Chair" data-name="Round Table-Chair"><path fill="white" d="M59,23a3.01,3.01,0,0,0-2.82,2H51.77A21.037,21.037,0,0,0,39,12.23V7.82A3,3,0,0,0,38,2H26a3,3,0,0,0-1,5.82v4.41A21.037,21.037,0,0,0,12.23,25H7.82A3,3,0,0,0,2,26V38a3,3,0,0,0,5.82,1h4.41A21.037,21.037,0,0,0,25,51.77v4.41A3,3,0,0,0,26,62H38a3,3,0,0,0,1-5.82V51.77A21.037,21.037,0,0,0,51.77,39h4.41A3,3,0,0,0,62,38V26A3.009,3.009,0,0,0,59,23ZM11.63,37H8V27h3.63a20.156,20.156,0,0,0,0,10ZM37,8v3.63a20.156,20.156,0,0,0-10,0V8ZM27,56V52.37a20.156,20.156,0,0,0,10,0V56Zm5-5A19,19,0,1,1,51,32,19.017,19.017,0,0,1,32,51ZM56,37H52.37a20.156,20.156,0,0,0,0-10H56Z"/><circle fill="white" cx="32" cy="32" r="13"/></g></svg>
