<?xml version="1.0" encoding="utf-8"?>
<!-- Generator: Adobe Illustrator 28.1.0, SVG Export Plug-In . SVG Version: 6.00 Build 0)  -->
<svg version="1.1" id="Layer_2_00000111901592306083491600000007238144591230357656_"
	 xmlns="http://www.w3.org/2000/svg" xmlns:xlink="http://www.w3.org/1999/xlink" x="0px" y="0px" viewBox="0 0 512 512"
	 style="enable-background:new 0 0 512 512;" xml:space="preserve">
<style type="text/css">
	.st0{fill:#FFFFFF;}
</style>
<g id="Icon">
	<g id="_29">
		<g>
			<circle class="st0" cx="256" cy="256" r="76.3"/>
			<path class="st0" d="M458.6,314l-25.3-14.6c3.4-13.9,5.2-28.4,5.2-43.4c0-14.9-1.8-29.5-5.2-43.4l25.3-14.6
				c24.5-14.1,32.8-45.4,18.7-69.8c-9.5-16.4-26.6-25.6-44.3-25.6c-8.7,0-17.5,2.2-25.5,6.9l-25.3,14.6
				c-20.9-20-46.5-35.1-75.1-43.4V51.6c0-14.1-5.7-26.9-15-36.1c-9.2-9.2-22-15-36.1-15c-28.2,0-51.1,22.9-51.1,51.1v29.2
				c-28.5,8.3-54.2,23.4-75.1,43.4l-25.3-14.6c-24.5-14.1-55.7-5.7-69.8,18.7c-4.6,8.1-6.9,16.8-6.9,25.5c0,17.7,9.2,34.8,25.6,44.3
				l25.3,14.6c-3.4,13.9-5.2,28.4-5.2,43.4c0,14.9,1.8,29.5,5.2,43.4L53.4,314c-16.4,9.5-25.6,26.6-25.6,44.3
				c0,8.7,2.2,17.5,6.9,25.5c14.1,24.5,45.4,32.8,69.8,18.7l25.3-14.6c20.9,20,46.6,35.1,75.1,43.4v29.2c0,28.2,22.9,51.1,51.1,51.1
				c14.1,0,26.9-5.7,36.1-15c9.2-9.2,15-22,15-36.1v-29.2c28.5-8.3,54.2-23.4,75.1-43.4l25.3,14.6c8,4.6,16.8,6.9,25.5,6.9
				c17.7,0,34.8-9.2,44.3-25.6C491.4,359.3,483,328.1,458.6,314z M256,387.4c-72.6,0-131.4-58.8-131.4-131.4S183.4,124.6,256,124.6
				S387.4,183.4,387.4,256S328.6,387.4,256,387.4z"/>
		</g>
	</g>
</g>
</svg>
