<?xml version="1.0" encoding="utf-8"?>
<!-- Generator: Adobe Illustrator 28.1.0, SVG Export Plug-In . SVG Version: 6.00 Build 0)  -->
<svg version="1.1" id="Upload_Solid_Style" xmlns="http://www.w3.org/2000/svg" xmlns:xlink="http://www.w3.org/1999/xlink" x="0px"
	 y="0px" viewBox="0 0 512 512" style="enable-background:new 0 0 512 512;" xml:space="preserve">
<style type="text/css">
	.st0{fill:#FFFFFF;}
</style>
<path class="st0" d="M18,104.7h-1.2c0.8,8.5,2.9,16.9,6.3,24.8l1.3-0.7c3.8-2.2,8.7-0.9,10.9,3c2.2,3.8,0.9,8.7-3,10.9l0,0l-1.2,0.7
	c4.9,6.8,10.9,12.9,17.7,17.9l0.7-1.1c2.4-3.7,7.3-4.8,11.1-2.4c3.6,2.3,4.7,6.9,2.7,10.6l-0.7,1.2c8.3,3.9,17.2,6.3,26.3,7.1v-1.2
	c0-4.4,3.6-8,8-8s8,3.6,8,8v1.2c8.5-0.8,16.9-2.9,24.8-6.3l-0.7-1.3c-2.2-3.9-0.8-8.7,3.1-10.9c3.8-2.1,8.7-0.8,10.8,3l0.7,1.2
	c6.8-4.9,12.9-10.9,17.9-17.7l-1.1-0.7c-3.8-2.3-5-7.2-2.8-11c2.3-3.8,7.2-5,11-2.8l0,0l1.2,0.7c3.9-8.3,6.3-17.2,7.1-26.3h-1.2
	c-4.4,0-8-3.6-8-8s3.6-8,8-8h1.2c-0.8-8.5-2.9-16.9-6.3-24.8l-1.3,0.7c-3.8,2.2-8.7,0.8-10.9-3c-2.2-3.8-0.9-8.7,3-10.9l1.2-0.7
	c-4.9-6.8-10.9-12.9-17.6-17.9l-0.7,1.1c-2.3,3.8-7.2,5-11,2.8c-3.8-2.3-5-7.2-2.8-11l0,0l0.7-1.2c-8.3-3.9-17.2-6.3-26.3-7.1V18
	c0,4.4-3.6,8-8,8s-8-3.6-8-8v-1.2c-8.5,0.8-16.9,2.9-24.7,6.3l0.7,1.3c2.2,3.8,0.8,8.7-3,10.9c-3.8,2.2-8.7,0.8-10.9-3l-0.7-1.2
	C43.2,36,37.2,42,32.2,48.7l1.1,0.7c3.8,2.3,5,7.2,2.7,11c-1.4,2.4-4,3.9-6.9,3.9c-1.4,0-2.9-0.4-4.1-1.1l-1.2-0.7
	c-3.9,8.3-6.3,17.2-7.1,26.3H18c4.4,0,8,3.6,8,8S22.4,104.7,18,104.7z M88.7,41.3c0-4.4,3.6-8,8-8s8,3.6,8,8v52.4l20.7,34.3
	c2.3,3.8,1.2,8.7-2.6,11c-3.8,2.3-8.7,1.2-11-2.6l-20.3-32.8c-1.8-3-2.8-6.4-2.8-9.9V41.3z M496,394.4v89c0,7-5.7,12.6-12.6,12.6
	h-40.1V371.3c0-4.4-3.6-8-8-8s-8,3.6-8,8V496h-156v-19.1c0-1.9-0.7-3.7-2-5.1c1.3-2.6,1.9-5.4,2-8.3V300.1
	c0-10.8-8.8-19.6-19.6-19.6h-20.9c22.6-21.4,51.1-35.6,81.8-40.8L299,427.4c-0.7,7.4,2.1,14.7,7.6,19.7l13,11.8
	c8.9,8.2,22.6,8.2,31.5,0l13-11.8c5.4-4.9,8.3-12.2,7.6-19.5L358,238.6C435.6,248.1,496,314.3,496,394.4z M163.1,385.6
	c-1.8,15.2-15.6,26-30.8,24.2s-26-15.6-24.2-30.8c1.6-13.3,12.4-23.5,25.8-24.3C138.6,368.7,149.3,380,163.1,385.6L163.1,385.6z
	 M251.6,483.1c1.2-0.1,2.4-0.4,3.6-0.7v13.5c-1,0.1-2.2,0.1-3.6,0.1h-232c-1.3,0-2.5,0-3.6-0.1v-13.5c1.2,0.4,2.4,0.6,3.6,0.7
	L251.6,483.1z M338.9,237.3c1,0,2,0.1,3,0.2L355.8,429c0.2,2.3-0.7,4.7-2.4,6.2l-13,11.8c-2.8,2.6-7.2,2.6-10,0l-13-11.9
	c-1.8-1.6-2.7-4-2.4-6.5l13.9-190.9C332.1,237.6,335.5,237.3,338.9,237.3L338.9,237.3z M251.6,296.5h-232c-2,0-3.6,1.6-3.6,3.6
	c0,0,0,0,0,0v163.4c0,2,1.6,3.6,3.6,3.6h232c2,0,3.6-1.6,3.6-3.6V300.1C255.2,298.1,253.6,296.5,251.6,296.5L251.6,296.5z
	 M135.6,426c-24.1-0.1-43.6-19.8-43.5-43.9c0.1-24,19.5-43.4,43.5-43.5c1.5,0,3.1,0.2,4.6,0.4l5.6,0.8l2.1,5.7
	c2.7,12.9,12.4,23.2,25.2,26.6l5.5,1.5l0.4,5.7c0.2,1,0.2,2,0.3,3.1C179.3,406.4,159.7,426,135.6,426L135.6,426z M266.6,149
	c0-39.9,32.4-72.2,72.3-72.2s72.2,32.4,72.2,72.3c0,39.9-32.4,72.2-72.2,72.2C299,221.2,266.7,188.9,266.6,149z"/>
</svg>
