<svg id="Layer_1" enable-background="new 0 0 135 135" height="512" viewBox="0 0 135 135" width="512" xmlns="http://www.w3.org/2000/svg"><g id="_x37_0"><g><path d="m67.5 134.1c-36.8 0-66.6-29.8-66.6-66.6 0-36.9 29.9-66.6 66.6-66.6 36.8 0 66.6 29.8 66.6 66.6s-29.8 66.6-66.6 66.6" fill="#2b3642"/></g><g><g><path d="m100.5 35.9-17 17c-.8-.8-1.7-1.6-2.6-2.2-4.8-3.6-10.7-4.9-16.4-4.2-1.2.2-2.3.4-3.5.8l-6.2-23.2c1.2-.3 2.4-.6 3.6-.9 13.7-2.7 28.4.7 39.6 10.4.9.7 1.7 1.5 2.5 2.3z" fill="#16bf66"/></g><g><path d="m49 56.2c-3.8 5.6-4.8 12.5-3 18.8l-23.2 6.2c-4-14.3-1-30.2 9-42.2.7-.9 1.5-1.7 2.3-2.6l17 17c-.8 1-1.5 1.9-2.1 2.8z" fill="#ea241f"/></g><g><path d="m99.9 102.3c-.8.8-1.7 1.6-2.6 2.3-18.3 15.2-45.5 14.3-62.6-2.9-5.9-5.9-9.8-13-11.9-20.4l23.2-6.2c1 3.5 2.9 6.9 5.7 9.7 7.8 7.7 19.7 8.6 28.5 2.7.9-.6 1.9-1.3 2.7-2.1z" fill="#ffc536"/></g><g><path d="m34.1 36.5 17 17c-.8.9-1.5 1.8-2.1 2.7l-17.2-17.1c.8-.9 1.5-1.7 2.3-2.6z" fill="#db1616"/></g><g><path d="m64.5 46.5c-1.2.2-2.3.4-3.5.8l-6.2-23.2c1.2-.3 2.4-.6 3.6-.9z" fill="#10ae62"/></g><g><path d="m55.6 56.8c2-2 4.4-3.4 7-4.2l-8.6-32.9c-8.2 2.3-15.9 6.6-22.4 13.1-.2.2-.4.4-.6.6l24.1 24.1c.1-.3.3-.5.5-.7z" fill="#fff"/></g><g><path d="m82.9 85.3 17 17c-.8.8-1.7 1.6-2.6 2.3l-17.1-17.1c.9-.7 1.8-1.4 2.7-2.2z" fill="#ffb612"/></g><g><path d="m83.5 52.9c-.8-.8-1.7-1.6-2.6-2.2l17.1-17.1c.9.7 1.7 1.5 2.5 2.3z" fill="#10ae62"/></g><g><path d="m79.6 80.8c-.2.2-.4.4-.6.6l24.1 24.1.6-.6c19.9-19.9 19.9-52.2 0-72.1l-24.1 24c6.6 6.6 6.6 17.4 0 24z" fill="#20cafb"/></g></g><g fill="#fff"><g><path d="m95.8 69.7c.2.3.3.6.3 1 0 .6-.2 1-.6 1.4s-1 .4-1.7.4c-.4 0-.8-.1-1.2-.2s-.7-.3-1-.5l.4-1c.5.4 1.1.6 1.7.6.4 0 .6-.1.8-.2s.3-.4.3-.7-.1-.5-.3-.6-.4-.2-.8-.2h-.9v-1.1h.7c.4 0 .6-.1.8-.2s.3-.3.3-.6-.1-.5-.2-.6c-.2-.1-.4-.2-.7-.2s-.5.1-.8.2-.5.3-.8.5l-.4-1c.2-.2.6-.4 1-.5s.8-.2 1.2-.2.8.1 1.1.2.6.4.7.6.3.6.3.9-.1.7-.3.9c-.2.3-.4.5-.7.6.4 0 .6.2.8.5z"/><path d="m97.5 71.7c-.4-.6-.6-1.4-.6-2.5s.2-1.9.6-2.5 1-.9 1.7-.9 1.3.3 1.7.9.6 1.4.6 2.5-.2 1.9-.6 2.5-1 .9-1.7.9-1.3-.3-1.7-.9zm2.4-.8c.2-.4.2-.9.2-1.7s-.1-1.3-.2-1.7c-.2-.4-.4-.5-.7-.5s-.6.2-.7.5c-.2.4-.2.9-.2 1.7s.1 1.4.2 1.7c.2.4.4.5.7.5s.6-.1.7-.5z"/><path d="m102.5 69.3c-.3-.3-.4-.8-.4-1.5 0-.6.1-1.1.4-1.5.3-.3.7-.5 1.2-.5s.9.2 1.2.5.4.8.4 1.5-.1 1.2-.4 1.5-.7.5-1.2.5-.9-.2-1.2-.5zm1.6-.6c.1-.2.1-.5.1-.9s0-.7-.1-.9-.2-.3-.4-.3-.3.1-.4.3-.1.5-.1.9 0 .7.1.9.2.3.4.3c.2-.1.3-.1.4-.3zm.6 3.8h-1.1l3.6-6.6h1.1zm2.3-.5c-.3-.3-.4-.8-.4-1.5 0-.6.1-1.1.4-1.5.3-.3.7-.5 1.2-.5s.9.2 1.2.5.4.8.4 1.5-.1 1.2-.4 1.5-.7.5-1.2.5-.9-.1-1.2-.5zm1.6-.6c.1-.2.1-.5.1-.9s0-.7-.1-.9-.2-.3-.4-.3-.3.1-.4.3-.1.5-.1.9 0 .7.1.9.2.3.4.3.3-.1.4-.3z"/></g><g><path d="m59.1 101v1.1h-.8v1.2h-1.3v-1.2h-2.6v-1.1l2.8-4.3h1.1v4.3zm-3.5 0h1.3v-2.1z"/><path d="m60.2 102.5c-.4-.6-.6-1.4-.6-2.5s.2-1.9.6-2.5 1-.9 1.7-.9 1.3.3 1.7.9.6 1.4.6 2.5-.2 1.9-.6 2.5-1 .9-1.7.9-1.3-.3-1.7-.9zm2.4-.8c.2-.4.2-.9.2-1.7s-.1-1.3-.2-1.7c-.2-.4-.4-.5-.7-.5s-.6.2-.7.5c-.2.4-.2.9-.2 1.7s.1 1.4.2 1.7c.2.4.4.5.7.5s.6-.1.7-.5z"/><path d="m65.2 100.1c-.3-.3-.4-.8-.4-1.5 0-.6.1-1.1.4-1.5.3-.3.7-.5 1.2-.5s.9.2 1.2.5.4.8.4 1.5-.1 1.2-.4 1.5-.7.5-1.2.5-.9-.1-1.2-.5zm1.6-.6c.1-.2.1-.5.1-.9s0-.7-.1-.9c-.1-.1-.3-.2-.4-.2-.2 0-.3.1-.4.3s-.1.5-.1.9 0 .7.1.9.2.3.4.3c.2-.1.3-.2.4-.4zm.6 3.8h-1.1l3.6-6.6h1.1zm2.3-.5c-.3-.3-.4-.8-.4-1.5 0-.6.1-1.1.4-1.5.3-.3.7-.5 1.2-.5s.9.2 1.2.5.4.8.4 1.5-.1 1.2-.4 1.5-.7.5-1.2.5c-.5.1-.9-.1-1.2-.5zm1.6-.6c.1-.2.1-.5.1-.9s0-.7-.1-.9-.2-.3-.4-.3-.3.1-.4.3-.1.5-.1.9 0 .7.1.9.2.3.4.3.3-.1.4-.3z"/></g><g><path d="m28.3 63.9h1.3v1.2h-4v-1.2h1.3v-3.8l-1.2.8v-1.3l1.8-1.1h.8z"/><path d="m30.8 64.2c-.4-.6-.6-1.4-.6-2.5s.2-1.9.6-2.5 1-.9 1.7-.9 1.3.3 1.7.9.6 1.4.6 2.5-.2 1.9-.6 2.5-1 .9-1.7.9-1.3-.3-1.7-.9zm2.4-.7c.2-.4.2-.9.2-1.7s-.1-1.3-.2-1.7-.4-.6-.7-.6-.6.2-.7.5c-.2.4-.2.9-.2 1.7s.1 1.4.2 1.7c.2.4.4.5.7.5s.6-.1.7-.4z"/><path d="m35.8 61.8c-.3-.3-.4-.8-.4-1.5 0-.6.1-1.1.4-1.5.3-.3.7-.5 1.2-.5s.9.2 1.2.5.4.8.4 1.5-.1 1.2-.4 1.5-.7.5-1.2.5c-.5.1-.9-.1-1.2-.5zm1.6-.6c.1-.2.1-.5.1-.9s0-.7-.1-.9-.2-.3-.4-.3-.3.1-.4.3c-.1.3-.1.5-.1.9s0 .7.1.9.2.3.4.3.3-.1.4-.3zm.6 3.8h-1.1l3.6-6.6h1.1zm2.3-.4c-.3-.3-.4-.8-.4-1.5 0-.6.1-1.1.4-1.5.3-.3.7-.5 1.2-.5s.9.2 1.2.5.4.8.4 1.5-.1 1.2-.4 1.5-.7.5-1.2.5-.9-.2-1.2-.5zm1.6-.7c.1-.2.1-.5.1-.9s0-.7-.1-.9-.2-.3-.4-.3-.3.1-.4.3-.1.5-.1.9 0 .7.1.9.2.3.4.3.3-.1.4-.3z"/></g><g><path d="m71.4 37.4h1.3v1.2h-4v-1.2h1.3v-3.8l-1.2.8v-1.3l1.8-1.1h.8z"/><path d="m73.9 37.8c-.4-.6-.6-1.4-.6-2.5s.2-1.9.6-2.5 1-.9 1.7-.9 1.3.3 1.7.9.6 1.4.6 2.5-.2 1.9-.6 2.5-1 .9-1.7.9-1.3-.3-1.7-.9zm2.5-.8c.2-.4.2-.9.2-1.7s-.1-1.3-.2-1.7c-.2-.4-.4-.5-.7-.5s-.6.2-.7.5c-.2.4-.2.9-.2 1.7s.1 1.4.2 1.7c.2.4.4.5.7.5s.5-.1.7-.5z"/><path d="m79 35.4c-.3-.4-.5-.9-.5-1.5s.1-1.1.4-1.5c.3-.3.7-.5 1.2-.5s.9.2 1.2.5.4.8.4 1.5-.1 1.2-.4 1.5-.7.5-1.2.5-.9-.2-1.1-.5zm1.5-.6c.1-.2.1-.5.1-.9s0-.7-.1-.9-.2-.3-.4-.3-.3.1-.4.3-.1.5-.1.9 0 .7.1.9.2.3.4.3c.2-.1.4-.2.4-.3zm.7 3.8h-1.1l3.6-6.6h1.1zm2.3-.5c-.3-.3-.4-.8-.4-1.5 0-.6.1-1.1.4-1.5.3-.3.7-.5 1.2-.5s.9.2 1.2.5.4.8.4 1.5-.1 1.2-.4 1.5-.7.5-1.2.5c-.6 0-1-.1-1.2-.5zm1.5-.6c.1-.2.1-.5.1-.9s0-.7-.1-.9-.2-.3-.4-.3-.3.1-.4.3-.1.5-.1.9 0 .7.1.9.2.3.4.3.3-.1.4-.3z"/></g></g></g></svg>