<svg id="Layer_1" viewBox="0 0 64 64" xmlns="http://www.w3.org/2000/svg" data-name="Layer 1" width="300" height="300" version="1.1" xmlns:xlink="http://www.w3.org/1999/xlink" xmlns:svgjs="http://svgjs.dev/svgjs"><g width="100%" height="100%" transform="matrix(1,0,0,1,0,0)"><path d="m49.5 5h-28v7.67c0 1.84-1.91 3.33-3.75 3.33h-6.25a4.35 4.35 0 0 0 -1 0v6h43v-13a4 4 0 0 0 -4-4z" fill="#c94c4f" fill-opacity="1" data-original-color="#c94c4fff" stroke="none" stroke-opacity="1"/><path d="m11.5 16h6.25c1.84 0 3.75-1.49 3.75-3.33v-7.67l-11 11a4.35 4.35 0 0 1 1 0z" fill="#edb2b7" fill-opacity="1" data-original-color="#edb2b7ff" stroke="none" stroke-opacity="1"/><path d="m10.5 55a4 4 0 0 0 4 4h35a4 4 0 0 0 4-4v-33h-43z" fill="#f4f2f2" fill-opacity="1" data-original-color="#f4f2f2ff" stroke="none" stroke-opacity="1"/><g fill="none" stroke="#000" stroke-miterlimit="10" stroke-width="2"><path d="m10.5 16v39a4 4 0 0 0 4 4h35a4 4 0 0 0 4-4v-46a4 4 0 0 0 -4-4h-28z" fill="none" fill-opacity="1" stroke="#c94c4f" stroke-opacity="1" data-original-stroke-color="#000000ff" stroke-width="2" data-original-stroke-width="2"/><path d="m21.5 6v6.67c0 1.84-1.91 3.33-3.75 3.33h-6.25" fill="none" fill-opacity="1" stroke="#c94c4f" stroke-opacity="1" data-original-stroke-color="#000000ff" stroke-width="2" data-original-stroke-width="2"/><path d="m10.5 22h43" fill="none" fill-opacity="1" stroke="#c94c4f" stroke-opacity="1" data-original-stroke-color="#000000ff" stroke-width="2" data-original-stroke-width="2"/></g><path d="m22.79 53.28a3 3 0 0 1 -2.27-1 3.31 3.31 0 0 1 .4-4.46c.93-1 3.55-2.08 6.57-3q1-2.58 2.11-6.34a20.21 20.21 0 0 1 -1.4-6.58c-.14-2.7 1.3-4.24 2.79-4.37 1.18-.1 2.57.74 2.83 2.81a7 7 0 0 1 -.27 2.83l-.38 1.31c-.37 1.3-.74 2.6-1.12 3.87a17 17 0 0 0 3.1 4.65 28.33 28.33 0 0 1 4.23-.49c2.91 0 4 1.32 4.44 2.1a2.9 2.9 0 0 1 -.13 3 3.11 3.11 0 0 1 -2.93 1.31 12.68 12.68 0 0 1 -6.34-3.44c-1.67.34-3.48.78-5.18 1.26-1.07 2.65-2.13 4.59-3.17 5.32a5.74 5.74 0 0 1 -3.28 1.22zm3.58-5.66a11.39 11.39 0 0 0 -3.77 1.81c-.5.54-.57 1.12-.35 1.38s1.11.34 2.49-.63a7 7 0 0 0 1.63-2.56zm11-2.65a8.32 8.32 0 0 0 3.63 1.65.83.83 0 0 0 .81-.29.6.6 0 0 0 0-.63c-.11-.21-.6-.87-2.42-.88a16.13 16.13 0 0 0 -2.01.18zm-6.28-3.5c-.3.91-.59 1.79-.88 2.63.79-.21 1.58-.4 2.36-.57a19 19 0 0 1 -1.47-2.06zm.09-11.61c-.23 0-.75.62-.69 2a19.38 19.38 0 0 0 .31 2.62c.05-.19.11-.37.16-.56l.38-1.32a4.79 4.79 0 0 0 .2-1.9c-.08-.64-.3-.84-.35-.84z" fill="#c94c4f" fill-opacity="1" data-original-color="#c94c4fff" stroke="none" stroke-opacity="1"/><path d="m32.79 13.44a2.11 2.11 0 0 1 -.86.81 3 3 0 0 1 -1.44.31h-1.06v2.52h-1.71v-7h2.77a3.21 3.21 0 0 1 1.42.29 2.11 2.11 0 0 1 .87.8 2.44 2.44 0 0 1 0 2.29zm-1.7-.44a.85.85 0 0 0 .24-.65.87.87 0 0 0 -.24-.65 1 1 0 0 0 -.73-.23h-.93v1.73h.93a1 1 0 0 0 .73-.2z" fill="#ffffff" fill-opacity="1" data-original-color="#ffffffff" stroke="none" stroke-opacity="1"/><path d="m38.53 10.5a3.18 3.18 0 0 1 1.28 1.24 3.55 3.55 0 0 1 .46 1.83 3.55 3.55 0 0 1 -.46 1.83 3 3 0 0 1 -1.29 1.24 4 4 0 0 1 -1.93.44h-2.59v-7h2.63a4.14 4.14 0 0 1 1.9.42zm-.53 4.57a2 2 0 0 0 .54-1.5 1.87 1.87 0 0 0 -2.05-2.05h-.81v4.08h.81a2 2 0 0 0 1.51-.53z" fill="#ffffff" fill-opacity="1" data-original-color="#ffffffff" stroke="none" stroke-opacity="1"/><path d="m45.8 10.06v1.37h-2.86v1.48h2.14v1.33h-2.14v2.84h-1.71v-7z" fill="#ffffff" fill-opacity="1" data-original-color="#ffffffff" stroke="none" stroke-opacity="1"/></g></svg>