<svg id="Layer_1" enable-background="new 0 0 510 510" height="512" viewBox="0 0 510 510" width="512" xmlns="http://www.w3.org/2000/svg"><g><path d="m237.25 387.75-33.062 17.25-20 60 35.406 12.25 35.406-12.25 10-32.5-10-27.5z" fill="#454572"/><path d="m281.25 392-26.25 13v60l30 13.5 40.811-13.5-20-60z" fill="#34345a"/><path d="m0 15v390h255l10-195-10-195z" fill="#565686"/><path d="m255 15h255v390h-255z" fill="#454572"/><path d="m30 45v285h225l10-148.12-10-136.88z" fill="#7ce2f8"/><path d="m255 45h225v285h-225z" fill="#47c8e4"/><path d="m150 495h105l10-15-10-15h-105z" fill="#565686"/><path d="m255 465h105v30h-105z" fill="#454572"/><path d="m140 95c-49.706 0-90 40.295-90 90 0 24.854 10.073 47.354 26.36 63.64l41.307-31.306 22.333-32.334 10-45z" fill="#fc7267"/><path d="m140 95v90l36.667 10 53.333-10c0-49.705-40.295-90-90-90z" fill="#fdd82e"/><g><path d="m299 80h150v30h-150z" fill="#ebe4f0"/></g><g><path d="m299 140h150v30h-150z" fill="#ebe4f0"/></g><g><path d="m299 200h60v30h-60z" fill="#ebe4f0"/></g><g><path d="m299 260h60v30h-60z" fill="#ebe4f0"/></g><g><path d="m389 200h60v30h-60z" fill="#ebe4f0"/></g><g><path d="m389 260h60v30h-60z" fill="#ebe4f0"/></g><path d="m76.36 248.64c16.287 16.287 38.787 26.36 63.64 26.36 49.705 0 90-40.295 90-90h-90z" fill="#bde55e"/></g></svg>