<?xml version="1.0" encoding="UTF-8"?>
<svg xmlns="http://www.w3.org/2000/svg" xmlns:xlink="http://www.w3.org/1999/xlink" viewBox="0 0 170.58 154.59">
  <defs>
    <style>
      .cls-1 {
        fill: #febd01;
      }

      .cls-2 {
        fill: #fff;
      }

      .cls-3 {
        fill: #ff625f;
      }

      .cls-4 {
        stroke: #ccc;
        stroke-miterlimit: 10;
        stroke-width: .93px;
      }

      .cls-4, .cls-5 {
        fill: none;
      }

      .cls-6 {
        fill: #3fc6f3;
      }

      .cls-7 {
        isolation: isolate;
      }

      .cls-8 {
        fill: #40ed9a;
      }

      .cls-9 {
        fill: #465866;
      }

      .cls-10 {
        mix-blend-mode: overlay;
        opacity: .3;
      }

      .cls-11 {
        clip-path: url(#clippath);
      }
    </style>
    <clipPath id="clippath">
      <rect class="cls-5" x="80.1" width="90.47" height="154.59"/>
    </clipPath>
  </defs>
  <g class="cls-7">
    <g id="Layer_2" data-name="Layer 2">
      <g id="objects">
        <g>
          <g>
            <polygon class="cls-8" points="48.97 65.9 111.24 65.9 97.28 41.72 62.93 41.72 48.97 65.9"/>
            <polygon class="cls-6" points="16.77 121.68 143.44 121.68 129.48 97.5 30.73 97.5 16.77 121.68"/>
            <polygon class="cls-1" points="0 150.72 160.21 150.72 145.58 125.39 14.62 125.39 0 150.72"/>
            <polygon class="cls-9" points="32.87 93.79 127.34 93.79 113.38 69.61 46.83 69.61 32.87 93.79"/>
            <polygon class="cls-3" points="80.1 11.97 65.07 38.01 95.13 38.01 80.1 11.97"/>
          </g>
          <line class="cls-4" x1="93.55" y1="24.99" x2="142.58" y2="24.99"/>
          <line class="cls-4" y1="49.32" x2="45.82" y2="49.32"/>
          <g class="cls-11">
            <g class="cls-10">
              <polygon class="cls-2" points="97.28 41.72 62.93 41.72 48.97 65.9 111.24 65.9 97.28 41.72"/>
              <polygon class="cls-2" points="129.48 97.5 30.73 97.5 16.77 121.68 143.44 121.68 129.48 97.5"/>
              <polygon class="cls-2" points="145.58 125.39 14.62 125.39 0 150.72 160.21 150.72 145.58 125.39"/>
              <polygon class="cls-2" points="113.38 69.61 46.83 69.61 32.87 93.79 127.34 93.79 113.38 69.61"/>
              <polygon class="cls-2" points="80.1 11.97 65.07 38.01 95.13 38.01 80.1 11.97"/>
            </g>
          </g>
        </g>
      </g>
    </g>
  </g>
</svg>