<?xml version="1.0" encoding="UTF-8"?>
<svg id="Layer_2" data-name="Layer 2" xmlns="http://www.w3.org/2000/svg" viewBox="0 0 192.46 143.9">
  <defs>
    <style>
      .cls-1 {
        fill: #febd01;
      }

      .cls-2 {
        fill: #ff625f;
      }

      .cls-3 {
        fill: #3fc6f3;
      }

      .cls-4 {
        fill: none;
        stroke: #ccc;
        stroke-miterlimit: 10;
      }

      .cls-5 {
        fill: #40ed9a;
      }

      .cls-6 {
        fill: #ccc;
      }

      .cls-7 {
        fill: #465866;
      }
    </style>
  </defs>
  <g id="objects">
    <g>
      <path class="cls-3" d="M124.88,39.16l8.02-4.63C120.57,14.22,98.42.51,73.09,0v9.26c21.91.51,41.06,12.35,51.79,29.9Z"/>
      <path class="cls-5" d="M73.09,133.93v9.26c25.33-.51,47.48-14.21,59.81-34.53l-8.02-4.63c-10.73,17.55-29.88,29.39-51.79,29.9Z"/>
      <path class="cls-7" d="M155.83,71.59c0,10.83-2.78,21.02-7.65,29.9l8.01,4.63c5.66-10.25,8.9-22.02,8.9-34.53s-3.23-24.28-8.9-34.53l-8.01,4.63c4.87,8.88,7.65,19.07,7.65,29.9Z"/>
      <path class="cls-2" d="M9.26,71.59c0-10.83,2.78-21.02,7.65-29.9l-8.01-4.63C3.23,47.31,0,59.08,0,71.59s3.23,24.28,8.9,34.53l8.01-4.63c-4.87-8.88-7.65-19.07-7.65-29.9Z"/>
      <path class="cls-3" d="M70.17,9.26V0C44.84.51,22.69,14.22,10.36,34.53l8.02,4.63c10.73-17.55,29.88-29.39,51.79-29.9Z"/>
      <path class="cls-1" d="M18.38,104.03l-8.02,4.63c12.33,20.31,34.48,34.02,59.81,34.53v-9.26c-21.91-.51-41.06-12.35-51.79-29.9Z"/>
      <path class="cls-2" d="M21.44,71.59c0-8.61,2.18-16.72,6.02-23.81l-8.02-4.63c-4.63,8.45-7.26,18.15-7.26,28.44s2.63,19.99,7.26,28.44l8.02-4.63c-3.84-7.09-6.02-15.2-6.02-23.81Z"/>
      <path class="cls-3" d="M70.17,21.44v-9.26c-20.83.51-39.04,11.76-49.26,28.44l8.02,4.63c8.61-13.91,23.83-23.31,41.24-23.81Z"/>
      <path class="cls-3" d="M114.33,45.25l8.02-4.63c-10.22-16.67-28.43-27.93-49.26-28.44v9.26c17.41.5,32.62,9.9,41.24,23.81Z"/>
      <path class="cls-7" d="M143.65,71.59c0,8.61-2.18,16.72-6.02,23.81l8.02,4.63c4.63-8.45,7.26-18.15,7.26-28.44s-2.63-19.99-7.26-28.44l-8.02,4.63c3.84,7.09,6.02,15.2,6.02,23.81Z"/>
      <path class="cls-1" d="M28.93,97.93l-8.02,4.63c10.22,16.67,28.43,27.93,49.26,28.44v-9.26c-17.41-.5-32.62-9.9-41.24-23.81Z"/>
      <path class="cls-5" d="M73.09,121.74v9.26c20.83-.51,39.04-11.76,49.26-28.44l-8.02-4.63c-8.61,13.91-23.83,23.31-41.24,23.81Z"/>
      <path class="cls-6" d="M73.09,109.56v9.26c16.33-.5,30.6-9.31,38.7-22.35l-8.02-4.63c-6.49,10.27-17.77,17.23-30.68,17.72Z"/>
      <path class="cls-7" d="M131.46,71.59c0,6.4-1.59,12.42-4.4,17.72l8.02,4.63c3.59-6.66,5.63-14.27,5.63-22.35s-2.04-15.69-5.63-22.35l-8.02,4.63c2.8,5.29,4.4,11.32,4.4,17.72Z"/>
      <path class="cls-6" d="M39.49,91.84l-8.02,4.63c8.1,13.04,22.37,21.85,38.7,22.35v-9.26c-12.91-.49-24.19-7.45-30.68-17.72Z"/>
      <path class="cls-6" d="M33.62,71.59c0-6.4,1.59-12.42,4.4-17.72l-8.02-4.63c-3.59,6.66-5.63,14.27-5.63,22.35s2.04,15.69,5.63,22.35l8.02-4.63c-2.8-5.29-4.4-11.32-4.4-17.72Z"/>
      <path class="cls-3" d="M103.77,51.35l8.02-4.63c-8.1-13.04-22.37-21.85-38.7-22.35v9.26c12.91.49,24.19,7.45,30.68,17.72Z"/>
      <path class="cls-3" d="M70.17,33.62v-9.26c-16.33.5-30.6,9.31-38.7,22.35l8.02,4.63c6.49-10.27,17.77-17.23,30.68-17.72Z"/>
      <path class="cls-7" d="M119.28,71.59c0,4.18-1,8.12-2.77,11.62l8.02,4.63c2.55-4.86,4.01-10.39,4.01-16.25s-1.45-11.39-4.01-16.25l-8.02,4.63c1.77,3.5,2.77,7.44,2.77,11.62Z"/>
      <polyline class="cls-4" points="171.75 67.71 191.96 67.71 191.96 143.4 133.89 143.4"/>
    </g>
  </g>
</svg>