<?xml version="1.0" encoding="UTF-8"?>
<svg id="Layer_2" data-name="Layer 2" xmlns="http://www.w3.org/2000/svg" viewBox="0 0 176.28 137.44">
  <defs>
    <style>
      .cls-1 {
        fill: #febd01;
      }

      .cls-2 {
        fill: #ff625f;
      }

      .cls-3 {
        fill: #3fc6f3;
      }

      .cls-4 {
        stroke-linecap: round;
        stroke-width: 1.52px;
      }

      .cls-4, .cls-5 {
        fill: none;
        stroke: #ccc;
        stroke-miterlimit: 10;
      }

      .cls-5 {
        stroke-width: 1.15px;
      }

      .cls-6 {
        font-size: 9.92px;
      }

      .cls-6, .cls-7 {
        fill: #ccc;
        font-family: Exo-DemiBold, 'Exo DemiBold';
        font-weight: 300;
      }

      .cls-8 {
        fill: #40ed9a;
      }

      .cls-7 {
        font-size: 9.92px;
      }

      .cls-9 {
        fill: #465866;
      }
    </style>
  </defs>
  <g id="objects">
    <g>
      <path class="cls-9" d="M19.13,48.21h1.23c1.91,0,3.46,1.55,3.46,3.46v68.76h-8.14V51.67c0-1.91,1.55-3.46,3.46-3.46Z"/>
      <path class="cls-9" d="M31.49,23.99h.72c1.91,0,3.46,1.55,3.46,3.46v92.98h-7.63V27.44c0-1.91,1.55-3.46,3.46-3.46Z"/>
      <path class="cls-9" d="M63.23,7.53h.72c1.91,0,3.46,1.55,3.46,3.46v109.43h-7.63V10.99c0-1.91,1.55-3.46,3.46-3.46Z"/>
      <path class="cls-9" d="M74.49,53.24h1.23c1.91,0,3.46,1.55,3.46,3.46v63.73h-8.14v-63.73c0-1.91,1.55-3.46,3.46-3.46Z"/>
      <rect class="cls-8" x="15.68" y="60.04" width="8.14" height="60.38"/>
      <rect class="cls-2" x="28.04" y="39.79" width="7.63" height="80.63"/>
      <rect class="cls-1" x="59.77" y="26.03" width="7.63" height="94.39"/>
      <rect class="cls-3" x="71.03" y="64.25" width="8.14" height="56.18"/>
      <path class="cls-9" d="M109.7,48.21h1.23c1.91,0,3.46,1.55,3.46,3.46v68.76h-8.14V51.67c0-1.91,1.55-3.46,3.46-3.46Z"/>
      <path class="cls-9" d="M122.06,23.99h.72c1.91,0,3.46,1.55,3.46,3.46v92.98h-7.63V27.44c0-1.91,1.55-3.46,3.46-3.46Z"/>
      <path class="cls-9" d="M153.8,7.53h.72c1.91,0,3.46,1.55,3.46,3.46v109.43h-7.63V10.99c0-1.91,1.55-3.46,3.46-3.46Z"/>
      <path class="cls-9" d="M165.06,53.24h1.23c1.91,0,3.46,1.55,3.46,3.46v63.73h-8.14v-63.73c0-1.91,1.55-3.46,3.46-3.46Z"/>
      <rect class="cls-8" x="106.24" y="60.04" width="8.14" height="60.38"/>
      <rect class="cls-2" x="118.6" y="39.79" width="7.63" height="80.63"/>
      <rect class="cls-1" x="150.34" y="26.03" width="7.63" height="94.39"/>
      <rect class="cls-3" x="161.6" y="64.25" width="8.14" height="56.18"/>
      <text class="cls-7" transform="translate(14.43 134.12)"><tspan x="0" y="0">2012</tspan></text>
      <text class="cls-7" transform="translate(58.31 134.12)"><tspan x="0" y="0">2013</tspan></text>
      <text class="cls-6" transform="translate(104.02 134.34) rotate(.53)"><tspan x="0" y="0">2014</tspan></text>
      <text class="cls-6" transform="translate(150.17 134.77) rotate(.53)"><tspan x="0" y="0">2015</tspan></text>
      <line class="cls-4" x1="3.7" y1="104.51" x2=".76" y2="104.51"/>
      <line class="cls-4" x1="3.7" y1="84.81" x2=".76" y2="84.81"/>
      <line class="cls-4" x1="3.7" y1="65.12" x2=".76" y2="65.12"/>
      <line class="cls-4" x1="3.7" y1="45.42" x2=".76" y2="45.42"/>
      <line class="cls-4" x1="3.7" y1="25.73" x2=".76" y2="25.73"/>
      <line class="cls-4" x1="3.7" y1="6.03" x2=".76" y2="6.03"/>
      <polyline class="cls-5" points="3.7 0 3.7 122.52 176.28 122.52"/>
    </g>
  </g>
</svg>