<?xml version="1.0" encoding="UTF-8"?>
<svg xmlns="http://www.w3.org/2000/svg" viewBox="0 0 132.49 133.99">
  <defs>
    <style>
      .cls-1, .cls-2 {
        fill: #febd01;
      }

      .cls-3, .cls-4 {
        fill: #ff625f;
      }

      .cls-3, .cls-5, .cls-6, .cls-2 {
        mix-blend-mode: multiply;
        opacity: .4;
      }

      .cls-5, .cls-7 {
        fill: #40ed9a;
      }

      .cls-8, .cls-6 {
        fill: #3fc6f3;
      }

      .cls-9 {
        fill: none;
        stroke: #ccc;
        stroke-miterlimit: 10;
        stroke-width: .8px;
      }

      .cls-10 {
        isolation: isolate;
      }

      .cls-11 {
        fill: #ccc;
      }

      .cls-12 {
        fill: #e6e6e6;
      }
    </style>
  </defs>
  <g class="cls-10">
    <g id="Layer_2" data-name="Layer 2">
      <g id="objects">
        <g>
          <rect class="cls-7" x="33.65" y="91.75" width="15.41" height="32.96"/>
          <polygon class="cls-7" points="28.15 112.97 33.65 124.71 33.65 91.75 28.15 80.01 28.15 112.97"/>
          <polygon class="cls-12" points="44.49 78.41 29.11 78.41 34.6 90.04 49.98 90.04 44.49 78.41"/>
          <rect class="cls-4" x="57.67" y="72.78" width="15.41" height="51.93"/>
          <polygon class="cls-4" points="52.17 112.97 57.67 124.71 57.67 72.78 52.17 61.04 52.17 112.97"/>
          <polygon class="cls-12" points="68.46 59.47 53.08 59.47 58.57 71.1 73.95 71.1 68.46 59.47"/>
          <rect class="cls-1" x="81.69" y="49.3" width="15.41" height="75.41"/>
          <polygon class="cls-1" points="76.19 112.97 81.69 124.71 81.69 49.3 76.19 37.55 76.19 112.97"/>
          <polygon class="cls-12" points="92.42 36.04 77.05 36.04 82.54 47.67 97.92 47.67 92.42 36.04"/>
          <rect class="cls-8" x="105.71" y="69.14" width="15.41" height="55.57"/>
          <polygon class="cls-8" points="100.21 112.97 105.71 124.71 105.71 69.14 100.21 57.4 100.21 112.97"/>
          <polygon class="cls-5" points="28.15 112.97 33.65 124.71 33.65 91.75 28.15 80.01 28.15 112.97"/>
          <polygon class="cls-3" points="52.17 112.97 57.67 124.71 57.67 72.78 52.17 61.04 52.17 112.97"/>
          <polygon class="cls-2" points="76.19 112.97 81.69 124.71 81.69 49.3 76.19 37.55 76.19 112.97"/>
          <polygon class="cls-6" points="100.21 112.97 105.71 124.71 105.71 69.14 100.21 57.4 100.21 112.97"/>
          <polygon class="cls-12" points="116.39 55.84 101.02 55.84 106.51 67.47 121.88 67.47 116.39 55.84"/>
          <polyline class="cls-9" points="11.26 68.21 88.51 4.26 132.24 38.95"/>
          <polyline class="cls-9" points="3.8 3.8 3.8 131.93 127.27 131.93"/>
          <circle class="cls-11" cx="3.8" cy="3.8" r="3.8"/>
          <circle class="cls-11" cx="3.8" cy="24.87" r="3.8"/>
          <circle class="cls-11" cx="3.8" cy="45.93" r="3.8"/>
          <circle class="cls-11" cx="3.8" cy="67" r="3.8"/>
          <circle class="cls-11" cx="3.8" cy="88.06" r="3.8"/>
          <circle class="cls-11" cx="3.8" cy="109.13" r="3.8"/>
          <circle class="cls-11" cx="3.8" cy="130.19" r="3.8"/>
        </g>
      </g>
    </g>
  </g>
</svg>