<?xml version="1.0" encoding="UTF-8"?>
<svg xmlns="http://www.w3.org/2000/svg" viewBox="0 0 171.47 125.34">
  <defs>
    <style>
      .cls-1 {
        fill: #ccc;
        font-family: Exo-Regular, 'Exo Regular';
        font-size: 7.94px;
      }

      .cls-2 {
        fill: #febd01;
      }

      .cls-3 {
        fill: #ff625f;
      }

      .cls-4 {
        isolation: isolate;
      }

      .cls-5 {
        fill: #40ed9a;
      }

      .cls-6 {
        fill: #fff;
        mix-blend-mode: overlay;
        opacity: .26;
      }

      .cls-7 {
        fill: #465866;
      }

      .cls-8 {
        fill: #3e3e46;
      }

      .cls-9 {
        fill: #e6e6e6;
      }
    </style>
  </defs>
  <g class="cls-4">
    <g id="Layer_2" data-name="Layer 2">
      <g id="objects">
        <g>
          <rect class="cls-9" x="11.97" y="27.37" width="159.5" height="14"/>
          <rect class="cls-9" x="11.97" width="159.5" height="14"/>
          <rect class="cls-9" x="11.97" y="55.36" width="159.5" height="14"/>
          <rect class="cls-9" x="11.97" y="83.36" width="159.5" height="14"/>
          <rect class="cls-9" x="11.97" y="111.35" width="159.5" height="14"/>
          <text class="cls-1" transform="translate(2.05 121.1)"><tspan x="0" y="0">10</tspan></text>
          <text class="cls-1" transform="translate(.23 92.53)"><tspan x="0" y="0">30</tspan></text>
          <text class="cls-1" transform="translate(.16 65.26)"><tspan x="0" y="0">50</tspan></text>
          <text class="cls-1" transform="translate(.6 37.39)"><tspan x="0" y="0">70</tspan></text>
          <text class="cls-1" transform="translate(0 10.05)"><tspan x="0" y="0">90</tspan></text>
          <polygon class="cls-7" points="17.37 125.34 23.63 86.67 33.92 74.73 38.75 59.73 60.28 52.5 76.68 24.88 97.76 61.54 103.62 57.6 110.34 38.01 120.2 33.14 133.59 6.98 149.74 50.33 158.75 43.07 165.99 40.36 171.47 31.56 171.47 125.34 17.37 125.34"/>
          <polygon class="cls-6" points="23.63 86.67 23.63 125.34 33.92 125.34 33.92 74.73 23.63 86.67"/>
          <polygon class="cls-6" points="38.75 59.73 38.75 125.34 60.28 125.34 60.28 52.5 38.75 59.73"/>
          <polygon class="cls-6" points="76.68 24.88 76.68 125.34 97.76 125.34 97.76 61.54 76.68 24.88"/>
          <polygon class="cls-6" points="103.62 57.6 103.62 125.34 110.34 125.34 110.34 38.01 103.62 57.6"/>
          <polygon class="cls-6" points="120.2 33.14 120.2 124.43 133.59 124.43 133.59 6.98 120.2 33.14"/>
          <polygon class="cls-6" points="149.74 50.33 149.74 124.43 158.75 124.43 158.75 43.07 149.74 50.33"/>
          <polygon class="cls-6" points="165.99 40.36 165.99 124.43 171.47 124.43 171.47 31.26 165.99 40.36"/>
          <polygon class="cls-2" points="17.37 125.34 30.12 112.74 33.48 83.56 47.69 64.64 58.65 71.87 77.61 59.73 82.83 69.56 91.4 72.13 100.4 86.67 110.96 79.82 117.06 66.42 129.99 59.73 144.53 91.96 165.99 73.98 171.47 81.7 171.47 125.34 17.37 125.34"/>
          <polygon class="cls-6" points="30.12 112.74 33.48 83.56 33.48 125.34 30.12 125.34 30.12 112.74"/>
          <polygon class="cls-6" points="47.69 64.64 47.69 125.34 58.65 125.34 58.65 71.87 47.69 64.64"/>
          <polygon class="cls-6" points="77.61 59.73 77.61 125.34 82.83 125.34 82.83 69.56 77.61 59.73"/>
          <polygon class="cls-6" points="91.4 72.13 91.4 125.34 100.4 125.34 100.4 86.67 91.4 72.13"/>
          <polygon class="cls-6" points="110.96 79.82 117.06 66.42 117.06 124.89 110.96 124.89 110.96 79.82"/>
          <polygon class="cls-6" points="129.99 59.73 129.99 125.34 144.53 125.34 144.53 91.96 129.99 59.73"/>
          <polygon class="cls-6" points="165.99 73.98 165.99 125.34 171.47 125.34 171.47 81.7 165.99 73.98"/>
          <polygon class="cls-3" points="19.01 112.74 43.62 89.36 61.31 83.56 73.64 69.56 82.83 91.96 103.76 105.06 119.43 101.2 132.05 77.75 151.05 71.87 169.41 101.2 171.47 115.73 171.47 125.34 17.37 125.34 19.01 112.74"/>
          <polygon class="cls-6" points="19.01 112.74 19.01 125.34 43.67 125.34 43.67 89.36 19.01 112.74"/>
          <polygon class="cls-6" points="61.31 83.56 61.31 125.34 73.64 125.34 73.64 69.56 61.31 83.56"/>
          <polygon class="cls-6" points="82.83 91.96 82.83 125.34 103.91 125.34 103.76 105.06 82.83 91.96"/>
          <polygon class="cls-6" points="119.43 101.2 119.43 125.34 132.05 125.34 132.05 77.75 119.43 101.2"/>
          <polygon class="cls-6" points="151.05 71.87 151.05 125.34 169.41 125.34 169.41 101.2 151.05 71.87"/>
          <polygon class="cls-5" points="17.37 125.34 30.48 109.59 40.59 112.14 49.04 91.96 57.92 99.77 67.68 95.88 83.23 112.74 97.76 108.47 103.2 114.7 119.53 107.77 127.95 111.08 135.29 114.55 152.59 101.06 159.47 103.39 168.4 114.03 171.47 125.34 17.37 125.34"/>
          <polygon class="cls-6" points="17.37 125.34 30.48 109.59 30.48 125.34 17.37 125.34"/>
          <polygon class="cls-6" points="40.59 112.14 49.04 91.96 49.04 125.34 40.59 125.34 40.59 112.14"/>
          <polygon class="cls-6" points="57.92 99.77 57.92 125.34 67.68 125.34 67.68 95.88 57.92 99.77"/>
          <polygon class="cls-6" points="83.23 112.74 83.23 125.34 97.76 125.34 97.76 108.47 83.23 112.74"/>
          <polygon class="cls-6" points="103.2 114.7 103.2 125.34 119.53 125.34 119.53 107.77 103.2 114.7"/>
          <polygon class="cls-6" points="135.29 114.55 135.29 125.34 152.59 125.34 152.59 101.06 135.29 114.55"/>
          <polygon class="cls-6" points="159.47 103.39 159.47 125.34 168.4 125.34 168.4 114.03 159.47 103.39"/>
          <path class="cls-8" d="M37.53,124.84h0s-.99-.01-.99-.01h0c.17.01.33,0,.5,0s.33.01.5.01Z"/>
          <path class="cls-8" d="M37.03,125.33c.17,0,.33.01.5.01v-.5c-.17,0-.33-.01-.5-.01v.5Z"/>
          <path class="cls-8" d="M37.03,125.33v-.5c-.17,0-.33.01-.5.01v.5c.17,0,.33-.01.5-.01Z"/>
        </g>
      </g>
    </g>
  </g>
</svg>