<?xml version="1.0" encoding="UTF-8"?>
<svg id="Layer_1" xmlns="http://www.w3.org/2000/svg" version="1.1" viewBox="0 0 171.5 125.3">
  <!-- Generator: Adobe Illustrator 29.0.0, SVG Export Plug-In . SVG Version: 2.1.0 Build 186)  -->
  <defs>
    <style>
      .st0 {
        fill: #febd01;
      }

      .st1 {
        fill: #ff625f;
      }

      .st2 {
        fill: #fff;
        mix-blend-mode: overlay;
        opacity: .3;
      }

      .st2, .st3 {
        isolation: isolate;
      }

      .st4 {
        fill: #40ed9a;
      }

      .st5 {
        fill: #465866;
      }

      .st6 {
        fill: #3e3e46;
      }
    </style>
  </defs>
  <g class="st3">
    <g id="Layer_2">
      <g id="objects">
        <g>
          <polygon class="st5" points="17.4 125.3 23.6 86.7 33.9 74.7 38.8 59.7 60.3 52.5 76.7 24.9 97.8 61.5 103.6 57.6 110.3 38 120.2 33.1 133.6 7 149.7 50.3 158.8 43.1 166 40.4 171.5 31.6 171.5 125.3 17.4 125.3"/>
          <polygon class="st2" points="23.6 86.7 23.6 125.3 33.9 125.3 33.9 74.7 23.6 86.7"/>
          <polygon class="st2" points="38.8 59.7 38.8 125.3 60.3 125.3 60.3 52.5 38.8 59.7"/>
          <polygon class="st2" points="76.7 24.9 76.7 125.3 97.8 125.3 97.8 61.5 76.7 24.9"/>
          <polygon class="st2" points="103.6 57.6 103.6 125.3 110.3 125.3 110.3 38 103.6 57.6"/>
          <polygon class="st2" points="120.2 33.1 120.2 124.4 133.6 124.4 133.6 7 120.2 33.1"/>
          <polygon class="st2" points="149.7 50.3 149.7 124.4 158.8 124.4 158.8 43.1 149.7 50.3"/>
          <polygon class="st2" points="166 40.4 166 124.4 171.5 124.4 171.5 31.3 166 40.4"/>
          <polygon class="st0" points="17.4 125.3 30.1 112.7 33.5 83.6 47.7 64.6 58.7 71.9 77.6 59.7 82.8 69.6 91.4 72.1 100.4 86.7 111 79.8 117.1 66.4 130 59.7 144.5 92 166 74 171.5 81.7 171.5 125.3 17.4 125.3"/>
          <polygon class="st2" points="30.1 112.7 33.5 83.6 33.5 125.3 30.1 125.3 30.1 112.7"/>
          <polygon class="st2" points="47.7 64.6 47.7 125.3 58.7 125.3 58.7 71.9 47.7 64.6"/>
          <polygon class="st2" points="77.6 59.7 77.6 125.3 82.8 125.3 82.8 69.6 77.6 59.7"/>
          <polygon class="st2" points="91.4 72.1 91.4 125.3 100.4 125.3 100.4 86.7 91.4 72.1"/>
          <polygon class="st2" points="111 79.8 117.1 66.4 117.1 124.9 111 124.9 111 79.8"/>
          <polygon class="st2" points="130 59.7 130 125.3 144.5 125.3 144.5 92 130 59.7"/>
          <polygon class="st2" points="166 74 166 125.3 171.5 125.3 171.5 81.7 166 74"/>
          <polygon class="st1" points="19 112.7 43.6 89.4 61.3 83.6 73.6 69.6 82.8 92 103.8 105.1 119.4 101.2 132.1 77.8 151.1 71.9 169.4 101.2 171.5 115.7 171.5 125.3 17.4 125.3 19 112.7"/>
          <polygon class="st2" points="19 112.7 19 125.3 43.7 125.3 43.7 89.4 19 112.7"/>
          <polygon class="st2" points="61.3 83.6 61.3 125.3 73.6 125.3 73.6 69.6 61.3 83.6"/>
          <polygon class="st2" points="82.8 92 82.8 125.3 103.9 125.3 103.8 105.1 82.8 92"/>
          <polygon class="st2" points="119.4 101.2 119.4 125.3 132.1 125.3 132.1 77.8 119.4 101.2"/>
          <polygon class="st2" points="151.1 71.9 151.1 125.3 169.4 125.3 169.4 101.2 151.1 71.9"/>
          <polygon class="st4" points="17.4 125.3 30.5 109.6 40.6 112.1 49 92 57.9 99.8 67.7 95.9 83.2 112.7 97.8 108.5 103.2 114.7 119.5 107.8 127.9 111.1 135.3 114.6 152.6 101.1 159.5 103.4 168.4 114 171.5 125.3 17.4 125.3"/>
          <polygon class="st2" points="17.4 125.3 30.5 109.6 30.5 125.3 17.4 125.3"/>
          <polygon class="st2" points="40.6 112.1 49 92 49 125.3 40.6 125.3 40.6 112.1"/>
          <polygon class="st2" points="57.9 99.8 57.9 125.3 67.7 125.3 67.7 95.9 57.9 99.8"/>
          <polygon class="st2" points="83.2 112.7 83.2 125.3 97.8 125.3 97.8 108.5 83.2 112.7"/>
          <polygon class="st2" points="103.2 114.7 103.2 125.3 119.5 125.3 119.5 107.8 103.2 114.7"/>
          <polygon class="st2" points="135.3 114.6 135.3 125.3 152.6 125.3 152.6 101.1 135.3 114.6"/>
          <polygon class="st2" points="159.5 103.4 159.5 125.3 168.4 125.3 168.4 114 159.5 103.4"/>
          <path class="st6" d="M37.5,124.8h-1c.2,0,.3,0,.5,0s.3,0,.5,0h0Z"/>
          <path class="st6" d="M37,125.3c.2,0,.3,0,.5,0v-.5c-.2,0-.3,0-.5,0v.5Z"/>
          <path class="st6" d="M37,125.3v-.5c-.2,0-.3,0-.5,0v.5c.2,0,.3,0,.5,0Z"/>
        </g>
      </g>
    </g>
  </g>
</svg>