<?xml version="1.0" encoding="UTF-8"?>
<svg id="Layer_2" data-name="Layer 2" xmlns="http://www.w3.org/2000/svg" viewBox="0 0 173.34 155.35">
  <defs>
    <style>
      .cls-1 {
        fill: #febd01;
      }

      .cls-2 {
        fill: #ff625f;
      }

      .cls-3 {
        fill: none;
        stroke: #ccc;
        stroke-miterlimit: 10;
        stroke-width: .83px;
      }

      .cls-4 {
        fill: #3fc6f3;
      }

      .cls-5 {
        fill: #fff;
        opacity: .32;
      }

      .cls-6 {
        fill: #40ed9a;
      }

      .cls-7 {
        fill: #ccc;
      }

      .cls-8 {
        fill: #465866;
      }
    </style>
  </defs>
  <g id="objects">
    <g>
      <polyline class="cls-1" points="40.45 147.77 28.17 109.55 15.89 147.77"/>
      <polyline class="cls-6" points="65 147.77 52.73 40.97 40.45 147.77"/>
      <polyline class="cls-8" points="89.56 147.77 77.28 73.79 65 147.77"/>
      <polyline class="cls-4" points="114.11 147.77 101.84 86.04 89.56 147.77"/>
      <polyline class="cls-1" points="138.67 147.77 126.39 48.81 114.11 147.77"/>
      <polyline class="cls-2" points="163.23 147.77 150.95 3.25 138.67 147.77"/>
      <polygon class="cls-5" points="15.89 147.77 17.18 147.77 40.45 147.77 34.68 129.81 21.66 129.81 16.71 145.23 15.89 147.77"/>
      <polygon class="cls-5" points="65 147.77 62.94 129.81 42.51 129.81 40.45 147.77 65 147.77"/>
      <polygon class="cls-5" points="89.56 147.77 86.58 129.81 67.98 129.81 65 147.77 89.56 147.77"/>
      <polygon class="cls-5" points="114.11 147.77 110.54 129.81 93.13 129.81 89.56 147.77 114.11 147.77"/>
      <polygon class="cls-5" points="138.67 147.77 136.44 129.81 116.34 129.81 114.11 147.77 138.67 147.77"/>
      <polygon class="cls-5" points="163.23 147.77 161.7 129.81 140.2 129.81 138.67 147.77 163.23 147.77"/>
      <line class="cls-3" x1="3.25" y1="4.62" x2="3.25" y2="154.98"/>
      <line class="cls-3" x1="1.34" y1="152.1" x2="173.34" y2="152.1"/>
      <circle class="cls-7" cx="3.25" cy="152.1" r="3.25"/>
      <circle class="cls-7" cx="3.25" cy="3.25" r="3.25"/>
      <circle class="cls-7" cx="52.73" cy="40.97" r="3.25"/>
      <circle class="cls-7" cx="150.95" cy="3.25" r="3.25"/>
      <line class="cls-3" x1="150.95" y1="3.25" x2="3.65" y2="3.25"/>
      <line class="cls-3" x1="52.73" y1="40.97" x2="3.25" y2="40.97"/>
    </g>
  </g>
</svg>