<svg id="Glyph" enable-background="new 0 0 48 48" viewBox="0 0 48 48" xmlns="http://www.w3.org/2000/svg"><g><path fill="white" d="m22 38.75c1.81 0 3.38-1.01001 4.17999-2.5h-8.35999c.8 1.48999 2.37 2.5 4.18 2.5z"/><path fill="white" d="m10.64795 30.75c-.25391.40088-.39795.87061-.39795 1.36816 0 1.45117 1.18066 2.63184 2.63184 2.63184h18.23633c1.45117 0 2.63184-1.18066 2.63184-2.63184 0-.49756-.14404-.96729-.39795-1.36816z"/><path fill="white" d="m31.75 28.88184v-.76746c-.24536.05707-.49597.09021-.75.09021-1.06348 0-2.07715-.5127-2.81348-1.41553-1.16656.12866-2.38623-.27704-3.15924-1.17926-.63959-.74658-.92572-1.73291-.81635-2.79828-.90137-.73633-1.41406-1.74805-1.41406-2.80865-.00104-1.10577.56989-2.12469 1.41406-2.81488-.09399-.93524.13019-1.79736.61194-2.50031-.11597-.03522-.22961-.07599-.34735-.10699.47608-.56549.77448-1.2854.77448-2.08069 0-1.79199-1.45801-3.25-3.25-3.25s-3.25 1.45801-3.25 3.25c0 .79529.2984 1.5152.77448 2.08069-4.17896 1.09979-7.27448 4.89996-7.27448 9.41931v4.88184c0 .12964-.03052.25159-.07391.36816h19.64783c-.0434-.11658-.07392-.23853-.07392-.36816zm-11.5-16.38184c0-.96484.78516-1.75 1.75-1.75s1.75.78516 1.75 1.75-.78516 1.75-1.75 1.75-1.75-.78516-1.75-1.75z"/><path fill="white" d="m36.71289 18.25146c-.32227-.23584-.49805-.65967-.43652-1.05524.25073-1.62366-.86426-2.72552-2.47363-2.4726-.39746.06201-.81836-.11377-1.05377-.43713-.97009-1.32587-2.53882-1.31116-3.49799.00061-.23529.32263-.65308.49841-1.05334.43658-1.62433-.25104-2.7215.86963-2.474 2.4726.06152.39545-.11426.81927-.43646 1.05511-1.31018.95905-1.33093 2.52399-.00006 3.49713.32227.23584.49805.65967.43652 1.05463-.24969 1.60345.85669 2.72552 2.47363 2.47321.40039-.06152.8183.1142 1.05365.43695.95801 1.31348 2.52557 1.32959 3.49811-.00043.23535-.32227.65619-.49805 1.05365-.43652 1.60907.24896 2.72516-.84375 2.47369-2.47314-.06152-.39502.11426-.81885.43646-1.05469 1.30652-.95623 1.32178-2.53063.00006-3.49707zm-5.71289 5.24854c-.41418 0-.75-.33582-.75-.75 0-.41425.33582-.75.75-.75s.75.33575.75.75c0 .41418-.33582.75-.75.75zm.75-3c0 .41406-.33594.75-.75.75s-.75-.33594-.75-.75v-3c0-.41406.33594-.75.75-.75s.75.33594.75.75z"/></g></svg>