0<?xml version="1.0" encoding="UTF-8"?>
<svg id="Layer_1" xmlns="http://www.w3.org/2000/svg" viewBox="0 0 50 50">
  <defs>
    <style>
      .cls-1 {
        fill: #fff;
      }
    </style>
  </defs>
  <path class="cls-1" d="M26.76,1c8.67,0,16.27,4.6,20.49,11.5,0,0-4.04,7.03-21.6,7.03v-4.46c0-.95-1.15-1.42-1.81-.74l-9.78,9.93c-.41.41-.41,1.07,0,1.48l9.78,9.93c.66.67,1.81.2,1.81-.74v-4.46c4.39,0,7.94.44,10.79,1.1,8.55,1.98,10.82,5.94,10.82,5.94-4.22,6.89-11.82,11.5-20.49,11.5-13.25,0-24-10.75-24-24S13.5,1,26.76,1Z"/>
</svg>