<svg id="Layer_1" data-name="Layer 1" xmlns="http://www.w3.org/2000/svg" viewBox="0 0 512 512"><defs><style>.cls-1{fill:#fff;}</style></defs><path class="cls-1" d="M258.4,352.8H178a51,51,0,0,1-27.1-7.7l-26,69.3a24.72,24.72,0,0,0,14.4,31.8,25.77,25.77,0,0,0,8.7,1.6H493.2A47.61,47.61,0,0,0,446.1,406a5.74,5.74,0,0,1-5.7-5.2L425.7,238.2a26.89,26.89,0,0,1-19.8-14.6H391.5l9.7,116.5c4.1,81.2-114.2,90.2-121.3,8a51.74,51.74,0,0,1-21.5,4.7Zm-26.9,62.7a5.76,5.76,0,0,1-5.7,5.7H165a5.76,5.76,0,0,1-5.7-5.7V392.7a20.89,20.89,0,0,1,20.9-20.9h30.4a20.89,20.89,0,0,1,20.9,20.9h0Zm-11.4-22.8v17.1H170.7V392.7a9.56,9.56,0,0,1,9.5-9.5h30.4a9.56,9.56,0,0,1,9.5,9.5ZM218,163.5c-10.5-76.1-110.7-76.1-121.3,0a559,559,0,0,0,121.3,0Zm-37.9-21.8c3.3-5.4,8.7-1.7,12.6.7a5.73,5.73,0,0,1,2.1,7.8c-3.2,5.4-8.8,1.7-12.6-.7a5.73,5.73,0,0,1-2.1-7.8Zm-44.8,5.5c-2.2,1.9-5.6,7.3-8.9,6.9-4.8.2-7.6-6.2-4.2-9.6l4.8-5.1c5-5.4,13.5,2.5,8.3,7.8Zm15.1-22.1c-5.1-5.3,3.3-13.3,8.3-7.8l5.7,6.1c5.1,5.3-3.3,13.3-8.3,7.8Zm68.4,89.4c.5,6.3-.5,14.1-7.7,15.3a284.91,284.91,0,0,1-53.7,5.2,285.16,285.16,0,0,1-53.8-5.2c-7-1.3-8.1-8.9-7.6-15.2a4.85,4.85,0,0,0,1.7,0c9.3,0,14.3-3.5,18.3-6.4,5.5-5.5,17.6-5.5,23.2.1,4,2.8,8.9,6.3,18.2,6.3s14.2-3.5,18.2-6.3c5.6-5.5,17.7-5.6,23.3,0,3.8,3,11,7.2,19.9,6.2Zm185.4-13.6a26,26,0,0,0-1.4,11.4H351.1c-7.4-.1-7.4-11.3,0-11.4ZM81.9,183.2l10.3-8.7a581.1,581.1,0,0,0,130.5,0l10.1,8.6c-2.1,5.8-6.2,15-11.5,18.8-5.5,3.5-11.9.2-15.8-2.8-4-2.8-9-6.3-18.2-6.3-15.9-.4-16.5,9.9-29.9,10.6-13.4-.6-13.8-11-29.8-10.6-16.4-.3-16.2,10.1-30.5,10.6-5.4.2-12.6-13-15.2-20.2Zm375.7,10.6c17.3,3.7,17.3,29.5,0,33.2C439.9,222.9,439.8,197.9,457.6,193.8Zm-26.5-.5h7.4a29.77,29.77,0,0,0,0,34.2H431c-22.7-.7-22.7-33.6.1-34.2ZM148.6,493.4H43.4a24.75,24.75,0,0,1-24.7-24.7V43.2A24.75,24.75,0,0,1,43.4,18.5H271.3A24.75,24.75,0,0,1,296,43.2V297.6c-4.8-2.8-13.7-1.8-19-2V58.4a20.89,20.89,0,0,0-20.9-20.9H58.6A20.89,20.89,0,0,0,37.7,58.4h0V453.5a20.89,20.89,0,0,0,20.9,20.9h75.8a46.73,46.73,0,0,0,14.2,19ZM124.2,384.1l-8,21.1a11.55,11.55,0,0,1-10-12.8.9.9,0,0,1,.1-.5C107.4,385.3,113.9,380,124.2,384.1Zm171-65c-6.7,13.4-21.5,22.3-36.9,22.3H178a39.47,39.47,0,0,1-35.7-22.1,8.34,8.34,0,0,1,3.7-11.2,8.49,8.49,0,0,1,3.8-.9c31.6-.1,113.9-.2,138-.2a8.37,8.37,0,0,1,8.4,8.3A10.21,10.21,0,0,1,295.2,319.1ZM220.6,459.2c-7.1,46.3-72.5,45.4-78.7-.6C138.9,459.7,219.8,459,220.6,459.2Zm186.2,0h78.7c-3.3,23.4-22.1,34.2-39.3,34.2S410.2,482.6,406.8,459.2ZM149.7,295.8l115.9-.2V58.4a9.56,9.56,0,0,0-9.5-9.5H58.6a9.56,9.56,0,0,0-9.5,9.5V453.5a9.56,9.56,0,0,0,9.5,9.5H131a49.13,49.13,0,0,1-.8-8.6c-13.3-7.2-20.7-23.6-17.5-38.3-30.4-7-19.2-55.9,15.4-42.8l13.4-35.7a54.09,54.09,0,0,1-9.5-13.2,19.71,19.71,0,0,1,8.8-26.5,21.14,21.14,0,0,1,8.9-2.1ZM153.4,62a6,6,0,0,1,8.1,0c3.6,3.4.9,9.9-4,9.7-5,.2-7.7-6.4-4.1-9.7ZM71.9,176.7,85,165.5c4.8-48.2,40.5-70.2,72.5-70.2s67.6,22.1,72.3,70.2l13.3,11.2a5.67,5.67,0,0,1,1.8,5.9c-.5,2-5.1,17.9-14.7,26.4v10.9c0,10.3-7.3,19.5-16.9,21.2a298.79,298.79,0,0,1-55.8,5.3,299,299,0,0,1-55.9-5.3c-9.7-1.8-16.9-10.7-16.9-21.2V209.4c-5.8-5.5-10.1-14.2-12.5-20.4-2.4-5.5-4-9.4-.3-12.3Zm47.5,183.7H73.8V349h45.6Zm0-26.6H73.8V322.4h45.6Zm0-26.6H73.8V295.8h45.6Zm-45.6-29V266.8H241v11.4ZM354.9,121.1c15.6-.3,30.9-1.6,35.3,15.8a20.67,20.67,0,0,1,16,20.3v32.3H394.8V157.2a9.35,9.35,0,0,0-5.1-8.4c-2.5,7.6-9,13.9-19.5,14.1H354.9c-27.4-.6-27.4-41.2,0-41.8Z"/></svg>