<svg id="Capa_1" enable-background="new 0 0 512 512" viewBox="0 0 512 512" xmlns="http://www.w3.org/2000/svg"><g><path fill="white" d="m241 15.938v202.93l-155.01-155.02c37.778-33.625 85.545-56.253 138.234-62.811 8.919-1.109 16.776 5.913 16.776 14.901z"/><path fill="white" d="m234.79 255.078-170.01 170.01c-12.823-14.383-64.78-75.939-64.78-170.01 0-19.269 2.18-99.792 64.78-170.01z"/><path fill="white" d="m495.146 270.078c9.064 0 15.998 7.97 14.873 16.964-15.777 126.134-123.677 224.036-254.019 224.036-65.19 0-124.76-24.51-170.01-64.78l176.22-176.22z"/><path fill="white" d="m352 149.968v56.94h-35c-8.284 0-15-6.716-15-15v-26.94c0-8.284 6.716-15 15-15z"/><path fill="white" d="m432 86.798v120.11h-50v-105.11c0-8.284 6.716-15 15-15z"/><path fill="white" d="m512 37.248v154.66c0 8.284-6.716 15-15 15h-35v-169.66c0-8.284 6.716-15 15-15h20c8.284 0 15 6.716 15 15z"/></g><g/><g/><g/><g/><g/><g/><g/><g/><g/><g/><g/><g/><g/><g/><g/></svg>