<svg id="svg11588" height="74.668" viewBox="0 0 69.344719 74.668396" width="69.345" xmlns="http://www.w3.org/2000/svg" xmlns:xlink="http://www.w3.org/1999/xlink" xmlns:svg="http://www.w3.org/2000/svg"><clipPath id="clipPath11604"><path id="path11602" d="m0 64h64v-64h-64z"/></clipPath><g id="g11596" transform="matrix(1.333 0 0 -1.333 -7.994 80.001)"><g id="g11598"><g id="g11600" clip-path="url(#clipPath11604)"><g id="g11606" transform="translate(57.631 25.471)"><path fill="white" id="path11608" d="m0 0v.001c-1.018 4.252-4.42 7.684-8.465 8.538-3.058.647-6.027-.175-8.521-1.062l-1.576-.564c-1.572-.584-3.197-1.189-4.797-1.53-.684-.144-1.347-.204-2.031-.182-1.995.052-4.028.757-6.235 1.522-2.48.849-5.045 1.728-8.033 1.907-2.561.151-4.935-.396-6.86-1.592-2.975-1.851-4.881-5.295-5.098-9.216-.15-2.834.584-5.724 2.069-8.14 2.536-4.119 6.742-6.317 10.524-7.925 5.272-2.233 9.441-3.229 13.52-3.229.212 0 .424.001.587.01 5.038.121 9.955 2.044 13.216 3.481 9.06 3.992 13.434 10.714 11.7 17.981"/></g><g id="g11610" transform="translate(31.996 36.001)"><path fill="white" id="path11612" d="m0 0c6.617 0 12 5.383 12 12s-5.383 12-12 12-12-5.383-12-12 5.383-12 12-12"/></g></g></g></g></svg>