<svg id="Layer_1" data-name="Layer 1" xmlns="http://www.w3.org/2000/svg" viewBox="0 0 512 512"><defs><style>.cls-1{fill:#fff;fill-rule:evenodd;}</style></defs><path class="cls-1" d="M504.4,242.73l-37.77-29.64a12.41,12.41,0,0,0-20.05,9.73v6.56H385.52a7.48,7.48,0,0,0-7.5,7.48V275.7a7.5,7.5,0,0,0,7.5,7.5h61.07v6.55a12.39,12.39,0,0,0,20,9.73l37.77-29.63a17.23,17.23,0,0,0,2.93-24.19A16.93,16.93,0,0,0,504.4,242.73Zm-148.4-59a7.44,7.44,0,0,0,5.28,2.2,7.54,7.54,0,0,0,5.33-2.2l43.2-43.21,4.62,4.63a12.37,12.37,0,0,0,21-7.26l5.75-47.67a17.22,17.22,0,0,0-15-19.18,17,17,0,0,0-4.15,0L374.4,76.81a12.35,12.35,0,0,0-7.27,21l4.63,4.64-43.25,43.21a7.61,7.61,0,0,0,0,10.61ZM53,302.14a12.46,12.46,0,0,0,5.47-1.26,12.27,12.27,0,0,0,6.94-11.13V283.2h61.11a7.5,7.5,0,0,0,7.5-7.5V236.88a7.49,7.49,0,0,0-7.48-7.5H65.37v-6.56a12.35,12.35,0,0,0-20-9.73L7.6,242.73a17.25,17.25,0,0,0,0,27.12l37.77,29.63a12.21,12.21,0,0,0,7.6,2.66ZM76.5,137.9a12.41,12.41,0,0,0,8.25,10.21,12.26,12.26,0,0,0,12.78-3l4.62-4.63,43.25,43.21a7.49,7.49,0,0,0,10.6,0h0l27.44-27.45a7.56,7.56,0,0,0,0-10.61l-43.24-43.21,4.67-4.64a12.38,12.38,0,0,0-7.26-21L89.94,71.05a17.27,17.27,0,0,0-19.2,19.18Zm146-72.23h6.56v61.11a7.5,7.5,0,0,0,7.5,7.5h38.8a7.5,7.5,0,0,0,7.5-7.5V65.67h6.55a12.35,12.35,0,0,0,9.72-20L269.56,7.89a17.23,17.23,0,0,0-27.12,0L212.78,45.67a12.39,12.39,0,0,0,9.76,20Zm59.37,207.46c0,11.63-7.4,20.63-18.43,23.43v4.83a7.5,7.5,0,1,1-15,0V296.3a24.39,24.39,0,0,1-16.84-23.17,7.5,7.5,0,0,1,15,0,9.36,9.36,0,0,0,9.34,9.35c1.84,0,10.94-.45,10.94-9.35s-9.1-9.35-10.94-9.35c-15,0-25.89-10.23-25.89-24.34,0-11.63,7.4-20.63,18.39-23.43v-4.83a7.5,7.5,0,1,1,15,0v5.11a24.43,24.43,0,0,1,16.88,23.17,7.5,7.5,0,0,1-15,0h0a9.4,9.4,0,0,0-9.38-9.35c-1.79,0-10.9.45-10.9,9.35s9.1,9.35,10.9,9.35c15,0,25.93,10.24,25.93,24.34ZM256,149.61A106.68,106.68,0,1,0,362.65,256.3h0A106.8,106.8,0,0,0,256,149.61Zm0,168.69a62,62,0,1,1,62-62h0a62.08,62.08,0,0,1-62,62Zm137.51,41.95a29.47,29.47,0,0,0-40.18-10.76L260.6,403a33.84,33.84,0,0,0-25-32.35L139.69,345c-19.81-5.3-39.85,4.18-59.28,13.34-3.44,1.61-6.88,3.24-10.37,4.8L68.67,358a12.43,12.43,0,0,0-15.19-8.76L33.77,354.5A12.39,12.39,0,0,0,25,369.67h0L60.32,501.52a12.37,12.37,0,0,0,15.13,8.78l.06,0L95.22,505A12.47,12.47,0,0,0,104,489.82L101.87,482c42-8.68,70.12-2.81,102,5.74a48.62,48.62,0,0,0,12.59,1.71,45.81,45.81,0,0,0,23.2-6.42l143-82.56a29.48,29.48,0,0,0,10.75-40.18Zm-11.56,18.43a14.48,14.48,0,0,1-6.7,8.76L232.21,470a30.75,30.75,0,0,1-24.43,3.21c-34.09-9.14-64.18-15.38-109.78-5.77L74,377.79c4.38-1.91,8.68-3.93,12.83-5.9,17.77-8.38,34.56-16.3,49-12.41l95.87,25.68A18.75,18.75,0,0,1,222,421.38h0l-53.24-14.27a7.5,7.5,0,0,0-4,14.45l.16,0,53.24,14.27a33.7,33.7,0,0,0,34.66-11l108-62.37a14.39,14.39,0,0,1,21.12,16.2Z"/></svg>