<?xml version="1.0" encoding="utf-8"?>
<!-- Generator: Adobe Illustrator 28.1.0, SVG Export Plug-In . SVG Version: 6.00 Build 0)  -->
<svg version="1.1" id="Layer_1" xmlns="http://www.w3.org/2000/svg" xmlns:xlink="http://www.w3.org/1999/xlink" x="0px" y="0px"
	 viewBox="0 0 512 512" style="enable-background:new 0 0 512 512;" xml:space="preserve">
<style type="text/css">
	.st0{fill:#FFFFFF;}
</style>
<g id="_x35_06">
	<path class="st0" d="M459.6,91.2c0-39.4-32.3-71.5-71.7-71.5H124.1c-39.6,0-71.7,32.1-71.7,71.5v329.5c0,39.4,32.1,71.7,71.7,71.7
		h263.9c39.4,0,71.7-32.3,71.7-71.7V91.2z M246.5,377.1c0,20.1-16.3,36.4-36.2,36.4h-52.6c-20.1,0-36.4-16.3-36.4-36.4v-60.3
		c0-20.1,16.3-36.4,36.4-36.4h52.6c19.9,0,36.2,16.3,36.2,36.4V377.1z M246.5,195c0,19.9-16.3,36.2-36.2,36.2h-52.6
		c-20.1,0-36.4-16.3-36.4-36.2v-60.3c0-20.1,16.3-36.2,36.4-36.2h52.6c19.9,0,36.2,16.1,36.2,36.2V195z M371,374.2h-53.8
		c-11,0-19.7-8.9-19.7-19.7c0-11,8.7-19.7,19.7-19.7H371c10.8,0,19.7,8.7,19.7,19.7C390.7,365.3,381.8,374.2,371,374.2z M371,177.2
		h-53.8c-11,0-19.7-8.9-19.7-19.7c0-11,8.7-19.7,19.7-19.7H371c10.8,0,19.7,8.7,19.7,19.7C390.7,168.4,381.8,177.2,371,177.2z"/>
</g>
</svg>
