<?xml version="1.0" encoding="utf-8"?>
<!-- Generator: Adobe Illustrator 28.1.0, SVG Export Plug-In . SVG Version: 6.00 Build 0)  -->
<svg version="1.1" id="Upload_Solid_Style" xmlns="http://www.w3.org/2000/svg" xmlns:xlink="http://www.w3.org/1999/xlink" x="0px"
	 y="0px" viewBox="0 0 512 512" style="enable-background:new 0 0 512 512;" xml:space="preserve">
<style type="text/css">
	.st0{fill:#FF5838;}
</style>
<g>
	<path class="st0" d="M0,143c1.7-7.4,2.4-15.1,4.5-22.5c15.7-55.8,64.3-93.3,123-94c33.5-0.5,67-0.2,100.5-0.1
		c14.1,0,24.5,8.9,26.3,21.8c1.8,12.8-5.6,24.5-17.9,28.2c-3.7,1.1-7.5,1.2-11.4,1.2c-32.3,0-64.7-0.1-97,0.1
		c-37.6,0.2-67.8,25.2-75.4,61.9c-1.2,5.6-1.5,11.2-1.5,16.9c0,74.8,0,149.6,0,224.5c0,46.5,33,79.6,79.6,79.7
		c44.2,0.1,88.3,0,132.5,0c30.8,0,61.7,0.1,92.5,0c38.3-0.2,68.8-24.5,76.8-61c1.3-5.9,1.6-11.9,1.6-17.9c0-32-0.1-64,0-96
		c0-10.1,4.3-18.1,13.2-23c8.6-4.7,17.3-4.5,25.7,0.6c7.6,4.6,12,11.6,12,20.6c0.1,36,0.8,72-0.3,108c-1.8,58.4-50,110.4-108,118.3
		c-4.3,0.6-8.7,0.2-12.8,1.8c-80.7,0-161.3,0-242,0c-1.5-0.3-2.9-0.7-4.4-0.8C64.2,507,19.4,470.3,4.7,419c-2.1-8-2.9-16.1-4.7-24
		C0,311,0,227,0,143z"/>
	<path class="st0" d="M512,113c-1.1,5.3-2,10.7-3.5,16c-4.8,17-13.5,31.9-26,44.4C416.2,240,349.7,306.3,283.4,373
		c-7.8,7.9-17.7,8.5-27.5,9.9c-36.2,5.3-72.5,10.4-108.8,15.6c-5.7,0.8-11.3,0.9-16.8-0.7c-12.5-3.6-19.8-14.6-18-27.5
		c5.9-41.7,11.9-83.4,17.9-125.1c1-6.7,3.8-12.2,8.6-17C205.3,161.8,271.7,95.3,338.4,29c16.3-16.2,36.1-25.9,59.2-28.3
		c1.1-0.1,2.2-0.5,3.3-0.8c3.7,0,7.3,0,11,0c1.1,0.3,2.2,0.7,3.4,0.8c45.2,4.8,83.5,38.2,94.1,82.1c1,4,1.7,8.1,2.5,12.1
		C512,101,512,107,512,113z M170.3,343.5c26.3-3.8,52-7.5,77.7-11.1c3-0.4,5.2-1.6,7.3-3.8c51.6-51.8,103.3-103.6,155.1-155.2
		c2.7-2.7,2.9-4.2,0.1-7c-21.8-21.5-43.5-43.2-65-65c-2.9-2.9-4.2-3.1-7.2-0.1C286.8,153,235.1,204.5,183.4,256
		c-2.5,2.5-3.8,5.2-4.2,8.6c-1,8.4-2.3,16.8-3.5,25.2c-2.4,16.8-4.8,33.6-7.2,50.4C167.9,342.4,167.7,344.3,170.3,343.5z M449.3,133
		c14-17.8,13.7-43.1-0.4-61.2c-14.1-18.2-40-24.5-61.3-14.9c-9.9,4.4-9.9,4.4-2.5,11.8C406.4,90.1,427.7,111.4,449.3,133z"/>
</g>
</svg>
