<?xml version="1.0" encoding="utf-8"?>
<!-- Generator: Adobe Illustrator 28.1.0, SVG Export Plug-In . SVG Version: 6.00 Build 0)  -->
<svg version="1.1" id="Layer_1" xmlns="http://www.w3.org/2000/svg" xmlns:xlink="http://www.w3.org/1999/xlink" x="0px" y="0px"
	 viewBox="0 0 48 42.7" style="enable-background:new 0 0 48 42.7;" xml:space="preserve">
<style type="text/css">
	.st0{fill:#FFFFFF;}
</style>
<g>
	<path class="st0" d="M18.3,24.2c-2.4-0.9-3.3-1.5-3.3-2.4c0-0.8,0.6-1.6,2.4-1.6c2,0,3.3,0.6,4,0.9l0.8-3.2c-0.9-0.4-2.2-0.8-4-0.9
		v-2.5h-2.7v2.6c-3,0.6-4.7,2.5-4.7,5c0,2.7,2,4.1,5,5.1c2.1,0.7,3,1.4,3,2.4c0,1.1-1.1,1.7-2.7,1.7c-1.8,0-3.5-0.6-4.6-1.2
		l-0.8,3.3c1.1,0.6,2.9,1.1,4.7,1.2v2.6h2.7v-2.8c3.2-0.6,5-2.7,5-5.2C22.9,26.9,21.6,25.3,18.3,24.2z"/>
	<path class="st0" d="M39,0H17.7c-4,0-7.3,3.3-7.3,7.3v3.2C4.3,13,0,19,0,26c0,9.2,7.5,16.7,16.7,16.7c0.2,0,0.4,0,0.6,0
		c0.1,0,0.3,0,0.4,0h23c4,0,7.3-3.3,7.3-7.3V9.1L39,0z M39.6,3.5l5,5h-5V3.5z M16.7,40.7C8.6,40.7,2,34.1,2,26s6.6-14.7,14.7-14.7
		S31.4,17.9,31.4,26S24.8,40.7,16.7,40.7z M46,35.4c0,2.9-2.4,5.3-5.3,5.3h-16c5.2-2.8,8.7-8.3,8.7-14.7c0-9.2-7.5-16.7-16.7-16.7
		c-1.5,0-2.9,0.2-4.3,0.6V7.3c0-2.9,2.4-5.3,5.3-5.3h19.9v8.5H46V35.4z"/>
</g>
</svg>
