<svg id="Layer_1" enable-background="new 0 0 100 100" viewBox="0 0 100 100" xmlns="http://www.w3.org/2000/svg"><path fill="white" d="m9.68186 3.4153247c-1.5291691-1.5290949-3.646339-1.3416402-4.3703943 2.097517-.5493612 2.608376-2.4189053 12.5247211 5.9937282 25.1454754 13.2268763 19.8426971 28.6361046 26.4796562 35.9742928 26.4395485 5.6063194-.0306091 6.9971085 2.9835892 11.1858444 8.9728203 9.6467209 13.7938461 20.4396591 30.5536118 29.549263 31.3889999 1.9899902.2103729 3.9787064-.4087906 5.4975815-1.7116013 2.3479156-2.3478546 2.8313141-5.6711273-1.7918549-10.2942352z"/><path fill="white" d="m96.9240265 19.0622578-.0685425-.0685387c-.7589417-.7589035-1.9893951-.7589035-2.7483444 0l-16.898468 16.8983936c-.5402298.8608551-1.6760254 1.1207733-2.5368805.5805511-.8608475-.5402298-1.1207657-1.6760292-.5805435-2.5368805.1473389-.2347908.3458252-.4332619.5806198-.5805931l16.8983459-16.898386c.7595825-.7583008.7606201-1.9887886.0023193-2.7483702-.7583008-.7595835-1.9887848-.760623-2.7483749-.0023222-.0007553.000761-.0015182.0015211-.0022736.0022821l-16.8984756 16.8983985c-.707962.8654099-1.9767303 1.0087337-2.8599014.3230553-.6857224-.8831711-.5424423-2.1519699.3229599-2.8599796l16.898468-16.8983955c.7607498-.7571201.7636795-1.9875917.0065689-2.7483349-.7571259-.7607436-1.9875946-.7636809-2.7483368-.0065622-.0021973.002182-.0043793.0043688-.0065613.0065603l-16.8984528 16.898407c-.7079773.8653927-1.9767532 1.0086708-2.8599014.3229618-.6857605-.8831406-.5425224-2.1519489.3228607-2.8599796l16.8984757-16.898399c.758934-.7588615.7589951-1.9892764.0001297-2.7482088-.0000381-.0000427-.0000916-.0000854-.0001297-.0001283l-.0685425-.0685394c-.7072372-.7073011-1.8358536-.7622106-2.6084137-.126905l-10.282959 8.4552832c-10.7215232 8.8159973-14.0479583 13.4453822-14.0894393 20.9068881.0656357 2.7022324-.462429 5.3859634-1.5469398 7.8618889l7.423687 7.4236984c2.4759216-1.0845184 5.1596527-1.6125832 7.8618851-1.5469398 7.461441-.0414886 12.0909195-3.3678703 20.9069901-14.0895023l8.4552841-10.2828941c.6351774-.772667.5801848-1.9012604-.1271135-2.6085091z"/><path fill="white" d="m5.0170751 85.6439438c-3.4173937 4.6099014-3.0584531 7.5638351-.6450887 9.9773026 2.4136281 2.4135666 5.3603754 2.7777176 9.9773588-.6449509 13.1977568-9.7839813 22.4002953-22.4285278 31.675869-33.7052536-4.1516418-.4348526-8.1840858-1.64851-11.8860626-3.5773888-10.022193 8.0823479-20.6450205 16.5154839-29.1220765 27.9502907z"/></svg>