<svg id="Layer_1" enable-background="new 0 0 512 512" height="512" viewBox="0 0 512 512" width="512" xmlns="http://www.w3.org/2000/svg"><path fill="white" clip-rule="evenodd" d="m280.962 464.773-8.089 15.127c2.67 1.534 6.986 4.03 8.901 5.086 7.451 4.098 16.165.462 19.733-6.021 3.941-7.166 1.251-16.182-5.854-20.164-3.672-2.059-7.369-4.341-11.073-6.438-.322 4.254-1.519 8.485-3.618 12.41zm-38.579-25.806-18.36 35.287c-.638 6.225 2.509 12.322 8.049 15.285 7.493 4.007 16.95 1.161 20.961-6.336l13.866-25.93c4.005-7.49 1.079-16.994-6.34-20.96-5.929-3.17-13.389-2.046-18.176 2.654zm-40.188-21.458c4.784-4.718 12.26-5.848 18.201-2.678 5.969 3.185 9.128 10.057 7.847 16.669l-18.74 36.018c-4.571 5.951-12.947 7.783-19.573 4.24-5.416-2.896-8.538-8.722-8.094-14.824zm-38.902-22.63c-7.97 13.794-16.106 27.405-23.616 41.445-4.007 7.491-1.177 16.98 6.333 20.957 7.452 3.947 16.572 1.311 20.783-6.009l21.274-41.193c1.313-6.628-1.847-13.536-7.835-16.731-5.429-2.896-12.112-2.265-16.939 1.531zm-13.335-8.827-19.176 33.189c-5.63 4.352-11.264 3.902-17.353 1.184-6.954-4.058-9.629-12.93-6.102-20.163 5.01-7.931 10.162-19.021 14.726-27.555 4.01-7.497 13.466-10.338 20.96-6.338 6.991 3.731 10.028 12.393 6.945 19.683zm105.821-83.82c22.125-8.957 43.372-17.558 63.614-6.02l78.766 44.894c3.247 1.85 6.124 4.239 8.523 7.103l11.716-4.889-40.171-103.621-1.763.974c-16.15 8.401-30.474 2.546-46.704-4.088-19.148-7.826-41.573-16.989-72.061 3.788-17.109 12.826-30.137 27.665-47.298 40.55-8.373 6.287-17.182 12.208-26.365 17.784 22.035 23.642 47.523 13.33 71.743 3.525zm58.311 62.064c18.027 10.32 36.151 20.474 54.274 30.625 7.087 3.989 9.832 12.94 5.884 20.118-3.896 7.083-12.839 9.715-19.956 5.893l-71.413-40.184c-3.849-2.157-8.718-.786-10.875 3.063s-.786 8.718 3.062 10.875c19.411 10.922 38.779 22.027 58.189 32.909 7.155 4.027 9.832 12.992 5.844 20.216-3.924 7.011-12.893 9.659-19.954 5.775-13.904-7.686-27.73-15.688-41.565-23.517-2.629-3.223-5.852-5.858-9.52-7.819-7.626-4.075-16.51-4.822-24.694-2.107-2.293-8.323-7.828-15.296-15.47-19.375-7.629-4.072-16.508-4.818-24.693-2.106-2.29-8.322-7.83-15.298-15.47-19.376-6.408-3.42-13.749-4.497-20.865-3.09-1.258-10.126-7.31-19.064-16.355-23.892-12.327-6.579-27.585-4.168-37.309 5.782-1.939-10.037-4.63-19.811-15.971-24.213-.678-.263-1.81-.737-3.29-1.373l45.214-102.296 5.205 2.402c15.822 8.785 30.494 5.351 46.436 1.617 14.335-3.358 29.919-7.008 47.568.773-12.877 10.725-24.05 23.057-37.528 33.176-9.239 6.937-19.372 13.578-30.263 19.935-5.58 3.258-7.008 10.745-3.058 15.833 28.313 36.431 57.311 28.062 94.261 13.103 18.477-7.48 36.22-14.663 49.74-6.957l78.766 44.894c6.991 3.985 9.885 12.87 5.943 20.1-4.052 7.012-12.639 9.928-19.889 5.995-18.047-10.308-36.264-20.324-54.31-30.655-3.831-2.192-8.715-.863-10.906 2.969-2.192 3.832-.863 8.715 2.968 10.907zm-53.961-340.82 21.201 55.842c.638 1.679 2.121 2.757 3.914 2.844l59.66 2.908c4.057.198 5.719 5.309 2.552 7.854l-46.556 37.421c-1.4 1.124-1.966 2.869-1.495 4.601l15.671 57.639c1.066 3.92-3.282 7.079-6.681 4.854l-49.976-32.715c-1.502-.983-3.336-.983-4.838 0l-49.975 32.715c-3.399 2.225-7.747-.934-6.681-4.854l15.67-57.64c.471-1.732-.096-3.476-1.495-4.601l-46.557-37.42c-3.166-2.545-1.506-7.657 2.552-7.854l59.661-2.908c1.793-.087 3.277-1.165 3.914-2.844l21.201-55.842c1.433-3.775 6.825-3.775 8.258 0zm234.933 312.752-57.317-147.848c-2.771-7.149-10.888-10.73-18.037-7.959l-28.461 11.034c-7.149 2.771-10.73 10.888-7.959 18.036l57.317 147.848c2.772 7.149 10.888 10.73 18.037 7.959l28.462-11.034c7.148-2.771 10.729-10.887 7.958-18.036zm-79.176-113.956c-5.238 0-9.485-4.246-9.485-9.485 0-5.238 4.247-9.485 9.485-9.485s9.485 4.247 9.485 9.485c0 5.239-4.247 9.485-9.485 9.485zm-288.293-39.964-27.92-12.34c-7.013-3.1-15.287.102-18.386 7.115l-64.103 145.034c-3.1 7.013.102 15.286 7.115 18.386l27.92 12.34c7.013 3.099 15.286-.102 18.386-7.115l64.103-145.035c3.099-7.012-.102-15.286-7.115-18.385zm-26.04 29.643c-5.233-.242-9.278-4.681-9.035-9.914.243-5.232 4.681-9.278 9.914-9.035s9.278 4.681 9.035 9.914c-.243 5.232-4.682 9.277-9.914 9.035z" fill-rule="evenodd"/></svg>