<svg id="SVGRoot" height="512" viewBox="0 0 512 512" width="512" xmlns="http://www.w3.org/2000/svg" xmlns:svg="http://www.w3.org/2000/svg"><g id="g9089" clip-rule="evenodd" fill-rule="evenodd" stroke-linecap="round" stroke-linejoin="round" stroke-miterlimit="10" transform="translate(-7.377 -6.8)"><path id="path4212" d="m283.26835 26.695312c-130.26817-.000065-236.108364 105.838288-236.108364 236.104998-.000031.53953.04907 1.0777.05273 1.61719l-21.056546-21.0566a11.000203 11.000228 0 0 0 -15.556575 0 11.000203 11.000228 0 0 0 0 15.55856l39.792799 39.79289a11.001303 11.001328 0 0 0 15.556575 0l39.792801-39.79094a11.000203 11.000228 0 0 0 0-15.55661 11.000203 11.000228 0 0 0 -15.556576-.002l-20.974521 20.97457c-.0036-.51212-.05081-1.023-.05078-1.53516a11.001303 11.001328 0 0 0 0-.002c0-118.37659 95.729987-214.103148 214.108457-214.103088 118.37848-.000063 214.10651 95.726488 214.10651 214.103088 0 118.37661-95.72803 214.10511-214.10651 214.10505-56.78896-.00006-111.242-22.55551-151.39779-62.71082a11.000203 11.000228 0 0 0 -15.55657 0 11.000203 11.000228 0 0 0 .002 15.55661c44.27571 44.27518 104.33711 69.1541 166.9524 69.15416 130.26818.00007 236.10837-105.83829 236.10838-236.105 0-130.26671-105.84019-236.105067-236.10838-236.104998z"/><path id="path9072" d="m283.2613 111.10547c-83.64534 0-151.68903 68.04371-151.68903 151.68903 0 83.64533 68.04369 151.69098 151.68903 151.69098 83.64533 0 151.69098-68.04565 151.69097-151.69098 0-83.64532-68.04564-151.68903-151.69097-151.68903zm.006 84.41382c21.48508 0 39.13857 17.65293 39.13857 39.13856 0 9.28419-3.43105 17.74049-8.90818 24.47846 12.15682 6.148 22.28971 15.74841 28.81828 27.6757 5.7495 10.50403 3.34152 23.13262-3.29687 30.95108-6.63839 7.81844-16.65942 12.31247-27.6132 12.31247h-56.27329c-10.95405 0-20.97502-4.49343-27.6132-12.31247-6.63817-7.81906-9.04701-20.44881-3.29686-30.95303 6.52813-11.92556 16.66095-21.52606 28.81632-27.67375-5.47711-6.73798-8.90818-15.19433-8.90818-24.47846 0-21.48549 17.65137-39.13856 39.13661-39.13856z" stroke-width="22.001"/></g></svg>