<svg id="Layer_1" data-name="Layer 1" xmlns="http://www.w3.org/2000/svg" viewBox="0 0 512 512"><defs><style>.cls-1{fill:#fff;}</style></defs><g id="Glyph"><path class="cls-1" d="M192,461.23l7-54.83a106.73,106.73,0,0,1,30.51-61.87L350.72,223.15a106.7,106.7,0,0,1,54.61-28.38V128A106.66,106.66,0,0,0,298.67,21.33H128A106.67,106.67,0,0,0,21.33,128V384A106.67,106.67,0,0,0,128,490.67h67.84A62.76,62.76,0,0,1,192,461.23Zm-85.33-311.9H277.33a21.34,21.34,0,1,1,0,42.67H106.67a21.34,21.34,0,1,1,0-42.67Zm0,85.34h128a21.33,21.33,0,1,1,0,42.66h-128a21.33,21.33,0,1,1,0-42.66Zm42.66,128H106.67a21.34,21.34,0,1,1,0-42.67h42.66a21.34,21.34,0,1,1,0,42.67Zm322.56-18.78L350.51,465.28a62.47,62.47,0,0,1-37.12,18.13l-54.62,7.26H256a21.33,21.33,0,0,1-21.51-21.15,20.91,20.91,0,0,1,.18-3l7-54.61a62.47,62.47,0,0,1,18.13-37.12L381.23,253.44a65.69,65.69,0,0,1,90.45,0,64,64,0,0,1,.21,90.45Z"/></g></svg>