<svg height="512" viewBox="0 0 24 24" width="512" xmlns="http://www.w3.org/2000/svg"><g fill="white" id="Layer_2" data-name="Layer 2"><path fill="white" d="m8 5.5a1 1 0 0 1 0-2h13a1 1 0 0 1 0 2z"/><circle cx="4" cy="4.5" r="1.25"/><path fill="white" d="m8 10.5a1 1 0 0 1 0-2h13a1 1 0 0 1 0 2z"/><circle cx="4" cy="9.5" r="1.25"/><path fill="white" d="m8 15.5a1 1 0 0 1 0-2h13a1 1 0 0 1 0 2z"/><circle cx="4" cy="14.5" r="1.25"/><path fill="white" d="m8 20.5a1 1 0 0 1 0-2h13a1 1 0 0 1 0 2z"/><circle cx="4" cy="19.5" r="1.25"/></g></svg>