<svg fill="white" id="Capa_1" enable-background="new 0 0 526.77 526.77" height="512" viewBox="0 0 526.77 526.77" width="512" xmlns="http://www.w3.org/2000/svg"><g><g fill="white" id="图层_x0020_1_23_"><g fill="white" id="_151268856" clip-rule="evenodd" fill-rule="evenodd"><g><circle id="_152772120" cx="70.913" cy="70.925" r="70.913"/><path fill="white" id="_152765208" d="m247.818 4.45h213.726c35.878 0 65.227 29.354 65.227 65.227 0 35.878-29.349 65.227-65.227 65.227-71.239 0-142.487 0-213.726 0-35.873 0-65.222-29.349-65.222-65.227-.001-35.873 29.349-65.227 65.222-65.227z"/></g><g><circle id="_152771856" cx="70.913" cy="263.385" r="70.913"/><path fill="white" id="_152771952" d="m247.818 196.91h213.726c35.878 0 65.227 29.354 65.227 65.227 0 35.878-29.349 65.227-65.227 65.227-71.239 0-142.487 0-213.726 0-35.873 0-65.222-29.349-65.222-65.227-.001-35.873 29.349-65.227 65.222-65.227z"/></g><g><circle id="_126808312" cx="70.913" cy="455.846" r="70.913"/><path fill="white" id="_151119576" d="m247.818 389.37h213.726c35.878 0 65.227 29.354 65.227 65.227 0 35.878-29.349 65.227-65.227 65.227-71.239 0-142.487 0-213.726 0-35.873 0-65.222-29.349-65.222-65.227-.001-35.872 29.349-65.227 65.222-65.227z"/></g></g></g></g></svg>