<svg height="512" viewBox="0 0 48 48" width="512" xmlns="http://www.w3.org/2000/svg"><g id="Pay_per_Click" data-name="Pay per Click"><path fill="white" d="m31 30v3h6v-6h-3a3 3 0 0 0 -3 3z"/><path fill="white" d="m42 27h-3v6h6v-3a3 3 0 0 0 -3-3z"/><path fill="white" d="m31 40a7 7 0 0 0 14 0v-5h-14z"/><path fill="white" d="m37 20v5h2v-5a7 7 0 0 0 -14 0v11a6 6 0 0 1 -12 0v-2a9.55 9.55 0 0 1 -2 0v2a8 8 0 0 0 16 0v-11a5 5 0 0 1 10 0z"/><path fill="white" d="m21 18a9 9 0 1 0 -9 9 9 9 0 0 0 9-9zm-10 4.82a3 3 0 0 1 -2-2.82 1 1 0 0 1 2 0 1 1 0 1 0 1-1 3 3 0 0 1 -1-5.82 1 1 0 1 1 2 0 3 3 0 0 1 2 2.82 1 1 0 0 1 -2 0 1 1 0 1 0 -1 1 3 3 0 0 1 1 5.82 1 1 0 1 1 -2 0z"/><path fill="white" d="m13 5v-3a1 1 0 0 0 -2 0v3a1 1 0 0 0 2 0z"/><path fill="white" d="m7.05 7.46a1 1 0 1 0 1.41-1.41l-2.12-2.12a1 1 0 0 0 -1.41 1.41z"/><path fill="white" d="m16.24 7.76c.55 0 .57-.16 2.83-2.42a1 1 0 0 0 -1.41-1.41l-2.12 2.12a1 1 0 0 0 .7 1.71z"/></g></svg>