<?xml version="1.0" encoding="utf-8"?>
<!-- Generator: Adobe Illustrator 28.1.0, SVG Export Plug-In . SVG Version: 6.00 Build 0)  -->
<svg version="1.1" id="Layer_1" xmlns="http://www.w3.org/2000/svg" xmlns:xlink="http://www.w3.org/1999/xlink" x="0px" y="0px"
	 viewBox="0 0 48 39.2" style="enable-background:new 0 0 48 39.2;" xml:space="preserve">
<style type="text/css">
	.st0{fill:#FFFFFF;}
</style>
<path class="st0" d="M42.8,15.6c-0.1,0-0.1,0-0.2,0V9.5c0-2.2-1.8-4.1-4.1-4.1h-3.6l-0.5-2.3C34,1,31.9-0.4,29.7,0.1L4,5.5
	c-1.9,0-3.4,1.3-3.9,3.1c0,0,0,0,0,0c0,0.1,0,0.1,0,0.2c0,0,0,0,0,0.1l0,0C0,8.9,0,9,0,9.1c0,0,0,0.1,0,0.1c0,0,0,0,0,0
	c0,0.1,0,0.2,0,0.4c0,0,0,0,0,0v25.6c0,2.2,1.8,4.1,4.1,4.1h34.5c2.2,0,4.1-1.8,4.1-4.1v-4.8c0.1,0,0.1,0,0.2,0H48V15.6H42.8z
	 M30.1,1.8c1.2-0.2,2.3,0.5,2.6,1.7l0.4,1.9H12.7L30.1,1.8z M40.8,35.1c0,1.2-1,2.3-2.3,2.3H4.1c-1.2,0-2.3-1-2.3-2.3V9.5
	c0-0.1,0-0.1,0-0.2c0,0,0,0,0-0.1c0,0,0-0.1,0-0.1C2,8.3,2.7,7.6,3.5,7.4l0.7-0.1h34.4c1.2,0,2.3,1,2.3,2.3v6.4
	c-3.1,0.9-5.4,3.7-5.4,7.1c0,3.4,2.3,6.2,5.4,7.1V35.1z M46.4,28.7h-3.6c-3.2,0-5.7-2.6-5.7-5.7s2.6-5.7,5.7-5.7h3.6V28.7z
	 M23.2,16.7L23.2,16.7c-0.1,0.1-0.3,0.1-0.4,0l-1.1-1.1v4c0,0.1-0.1,0.3-0.3,0.3h-0.4c-0.1,0-0.3-0.1-0.3-0.3v-4l-1.1,1.1
	c-0.1,0.1-0.3,0.1-0.4,0l0,0c-0.1-0.1-0.1-0.3,0-0.4l1.9-2l1.9,2C23.3,16.5,23.3,16.7,23.2,16.7z"/>
</svg>
