<?xml version="1.0" encoding="utf-8"?>
<!-- Generator: Adobe Illustrator 28.1.0, SVG Export Plug-In . SVG Version: 6.00 Build 0)  -->
<svg version="1.1" id="Layer_1" xmlns="http://www.w3.org/2000/svg" xmlns:xlink="http://www.w3.org/1999/xlink" x="0px" y="0px"
	 viewBox="0 0 64 64" style="enable-background:new 0 0 64 64;" xml:space="preserve">
<style type="text/css">
	.st0{fill:#000;}
</style>
<g>
	<path class="st0" d="M56.8,14H54V7.3C54,4.4,51.6,2,48.7,2H15.3C12.4,2,10,4.4,10,7.3V14H7.2C4.3,14,2,16.3,2,19.2v24.7
		C2,46.7,4.3,49,7.2,49H10v7.3c0,3.1,2.5,5.7,5.7,5.7h32.7c3.1,0,5.7-2.5,5.7-5.7V49h2.8c2.8,0,5.2-2.3,5.2-5.2V19.2
		C62,16.3,59.7,14,56.8,14z M14,7.3C14,6.6,14.6,6,15.3,6h33.3C49.4,6,50,6.6,50,7.3V14H14V7.3z M50,56.3c0,0.9-0.7,1.7-1.7,1.7
		H15.7c-0.9,0-1.7-0.7-1.7-1.7V29h36V56.3z"/>
	<path class="st0" d="M21,38h22c1.1,0,2-0.9,2-2s-0.9-2-2-2H21c-1.1,0-2,0.9-2,2S19.9,38,21,38z"/>
	<path class="st0" d="M21,53h11c1.1,0,2-0.9,2-2s-0.9-2-2-2H21c-1.1,0-2,0.9-2,2S19.9,53,21,53z"/>
	<path class="st0" d="M21,45.5h22c1.1,0,2-0.9,2-2s-0.9-2-2-2H21c-1.1,0-2,0.9-2,2S19.9,45.5,21,45.5z"/>
</g>
</svg>
