<svg fill="none" height="512" viewBox="0 0 24 24" width="512" xmlns="http://www.w3.org/2000/svg"><g clip-rule="evenodd" fill="rgb(0,0,0)" fill-rule="evenodd"><path fill="#fff" d="m5 2c-1.65685 0-3 1.34315-3 3v14c0 1.6569 1.34315 3 3 3h7.3924c-2.0328-1.2249-3.3924-3.4537-3.3924-6 0-3.866 3.134-7 7-7 .695 0 1.3663.10128 2 .28988v-4.28988c0-1.65685-1.3431-3-3-3zm0 4c0-.55228.44772-1 1-1h6c.5523 0 1 .44772 1 1s-.4477 1-1 1h-6c-.55228 0-1-.44772-1-1zm1 5c-.55228 0-1 .4477-1 1s.44772 1 1 1h2c.55228 0 1-.4477 1-1s-.44772-1-1-1zm-1-2c0-.55228.44772-1 1-1h4c.5523 0 1 .44772 1 1s-.4477 1-1 1h-4c-.55228 0-1-.44772-1-1z"/><path fill="#fff" d="m16 10c-3.3137 0-6 2.6863-6 6s2.6863 6 6 6 6-2.6863 6-6-2.6863-6-6-6zm2.3223 7.0919c.3905-.3905.3905-1.0237 0-1.4142-.3612-.3612-.93-.3883-1.3223-.0814v-1.5963c0-.5523-.4477-1-1-1s-1 .4477-1 1v1.5963c-.3924-.3069-.9612-.2798-1.3223.0814-.3906.3905-.3906 1.0237 0 1.4142l1.6152 1.6152c.3905.3905 1.0237.3905 1.4142 0z"/></g></svg>