<svg id="Capa_1" enable-background="new 0 0 512 512" height="512" viewBox="0 0 512 512" width="512" xmlns="http://www.w3.org/2000/svg"><g><path fill="white" d="m65 262h-50c-8.284 0-15 6.716-15 15v200c0 8.284 6.716 15 15 15h50c8.284 0 15-6.716 15-15v-200c0-8.284-6.716-15-15-15z"/><path fill="white" d="m255.883 178.046-14.011 81.693c-2.102 12.254 10.76 21.598 21.764 15.813l73.364-38.57 73.364 38.57c11.004 5.785 23.866-3.559 21.764-15.813l-14.011-81.693 59.353-57.854c8.903-8.678 3.99-23.798-8.313-25.585l-82.023-11.919-36.683-74.327c-5.502-11.148-21.4-11.148-26.902 0l-36.682 74.326-82.023 11.919c-12.303 1.788-17.216 16.907-8.313 25.585z"/><path fill="white" d="m506.54 361.84c-10.156-16.927-31.519-23.357-49.331-14.847l-90.886 43.422c-8.533 31.274-36.926 53.333-69.89 53.333-4.204 0-8.448-.372-12.614-1.106l-101.507-17.898c-7.955-1.403-13.722-8.722-12.695-16.734 1.096-8.554 9.094-14.366 17.485-12.885h.001l101.923 17.972c23.114 4.075 45.156-11.358 49.232-34.472 4.076-23.114-11.358-45.156-34.472-49.232l-56.601-9.98c-7.623-1.344-14.647-4.842-20.313-10.116-31.814-29.609-77.332-37.902-116.872-23.039v184.235l104.838 32.023c20.603 6.294 41.972 9.484 63.513 9.484 42.003 0 82.845-12.062 118.11-34.88l98.049-63.443c17.327-11.211 22.648-34.14 12.03-51.837z"/></g></svg>