<svg fill="none" height="24" viewBox="0 0 24 24" width="24" xmlns="http://www.w3.org/2000/svg"><g fill="rgb(0,0,0)"><path d="m4.44236 14.6547c3.09552-1.8729 7.01964-1.8729 10.11514 0 .097.0587.218.1281.356.2071.6126.351 1.558.8927 2.2045 1.5358.4051.4029.7989.9422.8705 1.6087.0765.7108-.2302 1.3733-.8306 1.9546-1.0168.9843-2.2532 1.7891-3.8612 1.7891h-7.59353c-1.60806 0-2.84441-.8048-3.86123-1.7891-.6004-.5813-.90712-1.2438-.83065-1.9546.07169-.6665.46544-1.2058.8705-1.6087.64658-.6431 1.59192-1.1848 2.20458-1.5358.13793-.079.25899-.1484.35599-.2071z"/><path d="m4.75 7c0-2.62335 2.12665-4.75 4.75-4.75 2.6234 0 4.75 2.12665 4.75 4.75s-2.1266 4.75-4.75 4.75c-2.62335 0-4.75-2.12665-4.75-4.75z"/><path clip-rule="evenodd" d="m16 5c0-.55228.4477-1 1-1h5c.5523 0 1 .44772 1 1 0 .55229-.4477 1-1 1h-5c-.5523 0-1-.44772-1-1zm0 3c0-.55228.4477-1 1-1h5c.5523 0 1 .44772 1 1 0 .55229-.4477 1-1 1h-5c-.5523 0-1-.44772-1-1zm3 3c0-.5523.4477-1 1-1h2c.5523 0 1 .4477 1 1s-.4477 1-1 1h-2c-.5523 0-1-.4477-1-1z" fill-rule="evenodd"/></g></svg>