<svg viewBox="0 0 24.03 24" xmlns="http://www.w3.org/2000/svg"><g id="Layer_2" data-name="Layer 2"><g id="Layer_1-2" data-name="Layer 1"><path d="m22.31 9.76-1-.76c.13-.46.24-.85.34-1.19.4-1.34.62-2.08.07-2.84s-1.3-.79-2.72-.83h-1.24c-.17-.44-.3-.83-.42-1.17-.46-1.32-.72-2-1.61-2.33s-1.53.14-2.69.94l-1 .69-1-.67c-1.04-.81-1.8-1.31-2.71-1.01s-1.15 1-1.62 2.33c-.12.33-.25.72-.42 1.16l-1.29.05c-1.4 0-2.17.05-2.72.81s-.28 1.5.1 2.85c.1.34.22.73.34 1.19l-1 .76c-1.08.84-1.72 1.31-1.72 2.26s.61 1.41 1.72 2.26l1 .76c-.12.46-.24.85-.34 1.19-.4 1.34-.62 2.08-.07 2.84s1.33.78 2.72.82h1.23c.17.44.3.83.42 1.17.46 1.32.72 2 1.62 2.34s1.53-.15 2.69-.94l1-.69 1 .67a4.2 4.2 0 0 0 2.19 1 1.71 1.71 0 0 0 .53-.09c.9-.29 1.15-1 1.62-2.33.12-.33.25-.72.42-1.17h1.24c1.4 0 2.17-.05 2.72-.81s.34-1.5-.06-2.84c-.1-.34-.22-.73-.34-1.19l1-.76c1.1-.8 1.69-1.23 1.69-2.23s-.58-1.39-1.69-2.24z" fill="#2db674"/><path d="m10.38 17.26a1 1 0 0 1 -.71-.34l-2.96-3.29a1 1 0 0 1 1.5-1.33l2.22 2.51 6.32-6.16a1 1 0 1 1 1.4 1.43l-7.07 6.92a1 1 0 0 1 -.7.26z" fill="#fff"/><path d="m0 0h24v24h-24z" fill="none"/></g></g></svg>