<svg id="Layer_1" enable-background="new 0 0 512 512" viewBox="0 0 512 512" xmlns="http://www.w3.org/2000/svg"><g><g><path clip-rule="evenodd" d="m408.183 170.819v68.674c0 82.084-62.77 133.247-139.501 133.247-76.702 0-139.472-51.164-139.472-133.247v-68.674c0-196.163 278.973-196.163 278.973 0z" fill="#8a4634" fill-rule="evenodd"/></g><g><path clip-rule="evenodd" d="m435.612 470.909c-5.614-78.069-58.058-139.792-121.409-139.792h-91.013c-63.351 0-115.824 61.723-121.409 139.792z" fill="#ff7eb8" fill-rule="evenodd"/></g><g><path clip-rule="evenodd" d="m170.717 337.371c-25.597-23.066-41.507-56.545-41.507-97.878v-68.674c0-158.146 181.299-188.745 251.573-91.886-78.942-71.758-233.888-34.555-233.888 111.665v68.645c0 30.745 8.784 57.127 23.822 78.128z" fill="#80402e" fill-rule="evenodd"/></g><g><path clip-rule="evenodd" d="m220.688 331.146c-62.217 1.6-113.381 62.712-118.908 139.763h31.879c6.633-61.112 41.45-119.664 87.029-139.763z" fill="#ff5ba8" fill-rule="evenodd"/></g><g><path clip-rule="evenodd" d="m309.287 274.776v56.341c12.827 0 23.095.873 35.486 4.945-6.603 26.12-38.162 45.928-76.092 45.928s-69.46-19.808-76.062-45.928c12.391-4.072 22.63-4.945 35.457-4.945v-56.341z" fill="#ffd3bc" fill-rule="evenodd"/></g><g><path clip-rule="evenodd" d="m268.682 97.956c14.194 34.643 48.11 60.326 83.189 60.326 6.021 0 11.722-.785 17.074-2.182v54.596c0 30.192-12.682 56.167-35.893 73.503-53.287 39.791-77.517 38.249-128.71 0-23.211-17.336-35.893-43.31-35.893-73.503v-54.596c5.323 1.425 11.053 2.182 17.045 2.182 35.078 0 69.023-25.684 83.188-60.326z" fill="#ffe0cc" fill-rule="evenodd"/></g><g><path d="m268.682 282.135c-12.19 0-23.638-6.038-33.107-17.463-2.532-3.055-2.107-7.585.947-10.116 3.055-2.533 7.584-2.108 10.116.947 4.636 5.595 12.224 12.262 22.043 12.262 9.851 0 17.42-6.663 22.034-12.252 2.526-3.059 7.055-3.49 10.114-.966 3.06 2.526 3.493 7.055.966 10.115-9.436 11.43-20.886 17.473-33.113 17.473z" fill="#ff7eb8"/></g><path d="m242.533 203.076c0 3.968-3.217 7.185-7.184 7.185s-7.184-3.217-7.184-7.185c0-5.95-4.841-10.79-10.791-10.79s-10.791 4.84-10.791 10.79c0 3.968-3.217 7.185-7.184 7.185s-7.184-3.217-7.184-7.185c0-13.873 11.287-25.16 25.16-25.16s25.158 11.287 25.158 25.16zm77.459-25.16c-13.874 0-25.161 11.287-25.161 25.16 0 3.968 3.217 7.185 7.184 7.185s7.184-3.217 7.184-7.185c0-5.95 4.841-10.79 10.792-10.79 5.95 0 10.791 4.84 10.791 10.79 0 3.968 3.217 7.185 7.184 7.185s7.184-3.217 7.184-7.185c.002-13.873-11.285-25.16-25.158-25.16z" fill="#8a4634"/><g><path clip-rule="evenodd" d="m182.177 11.568h-168.326c-7.359 0-13.351 5.991-13.351 13.35v87.785c0 7.33 5.992 13.322 13.351 13.322h92.177l28.389 33.392c1.658 1.949 4.218 2.618 6.603 1.745s3.927-3.054 3.927-5.614v-29.523h37.231c7.33 0 13.351-5.992 13.351-13.322v-87.785c-.001-7.359-6.022-13.35-13.352-13.35z" fill="#00d696" fill-rule="evenodd"/></g><path d="m22.897 40.451c0-3.968 3.217-7.185 7.184-7.185h135.865c3.968 0 7.184 3.217 7.184 7.185s-3.217 7.185-7.184 7.185h-135.865c-3.967 0-7.184-3.216-7.184-7.185zm143.05 21.175h-135.866c-3.968 0-7.184 3.217-7.184 7.185s3.217 7.185 7.184 7.185h135.865c3.968 0 7.184-3.217 7.184-7.185.001-3.968-3.216-7.185-7.183-7.185zm-67.947 28.331h-67.919c-3.968 0-7.184 3.217-7.184 7.185s3.217 7.185 7.184 7.185h67.919c3.968 0 7.184-3.217 7.184-7.185s-3.217-7.185-7.184-7.185z" fill="#fff"/><g><path clip-rule="evenodd" d="m433.431 500.432c43.02 0 78.069-35.079 78.069-78.069 0-42.991-35.05-78.069-78.069-78.069-42.991 0-78.069 35.079-78.069 78.069-.001 42.991 35.078 78.069 78.069 78.069z" fill="#ffca28" fill-rule="evenodd"/></g><g><path clip-rule="evenodd" d="m440.615 500.112c-39.762-3.636-70.885-37.057-70.885-77.749 0-40.693 31.123-74.114 70.885-77.749-2.356-.204-4.741-.32-7.184-.32-43.107 0-78.069 34.963-78.069 78.069 0 43.107 34.963 78.069 78.069 78.069 2.443 0 4.828-.116 7.184-.32z" fill="#fcb73e" fill-rule="evenodd"/></g><path d="m440.615 415.412v-18.151h15.475c3.968 0 7.184-3.217 7.184-7.185s-3.217-7.185-7.184-7.185h-15.475v-6.311c0-3.968-3.217-7.185-7.184-7.185s-7.184 3.217-7.184 7.185v6.548c-12.774 1.607-22.629 11.348-22.629 23.091 0 11.744 9.856 21.484 22.629 23.091v18.183h-15.154c-3.968 0-7.184 3.217-7.184 7.185s3.217 7.185 7.184 7.185h15.154v6.282c0 3.968 3.217 7.185 7.184 7.185s7.184-3.217 7.184-7.185v-6.516c12.788-1.598 22.659-11.356 22.659-23.123 0-11.752-9.872-21.499-22.659-23.094zm-22.63-9.193c0-3.889 3.523-7.288 8.261-8.491v16.981c-4.738-1.201-8.261-4.601-8.261-8.49zm22.63 40.814v-17.025c4.753 1.196 8.29 4.602 8.29 8.499 0 3.909-3.537 7.326-8.29 8.526z" fill="#fd982e"/><g><path clip-rule="evenodd" d="m11.931 112.703v-87.785c0-7.359 5.992-13.351 13.322-13.351h-11.402c-7.359.001-13.351 5.992-13.351 13.351v87.785c0 7.33 5.992 13.322 13.351 13.322h11.402c-7.33 0-13.322-5.992-13.322-13.322z" fill="#00c78b" fill-rule="evenodd"/></g></g></svg>