<svg height="512" viewBox="0 0 64 64" width="512" xmlns="http://www.w3.org/2000/svg"><g id="bank-finance-money-transfer-currency"><path d="m61 12h-38l19-9z" fill="#91dc5a"/><path d="m25 26h34v4h-34z" fill="#7ed63e"/><g fill="#5eac24"><path d="m44 16h4v10h-4z"/><path d="m36 16h4v10h-4z"/><path d="m28 16h4v10h-4z"/><path d="m52 16h4v10h-4z"/></g><path d="m25 12h34v4h-34z" fill="#7ed63e"/><circle cx="42" cy="8" fill="#5eac24" r="2"/><path d="m40 16h4v10h-4z" fill="#4e901e"/><path d="m32 16h4v10h-4z" fill="#4e901e"/><path d="m48 16h4v10h-4z" fill="#4e901e"/><path d="m23 21-6-5v3h-10a2 2 0 0 0 -2 2v13h4v-11h8v3z" fill="#5eac24"/><path d="m41 52 6 5v-3h10a2 2 0 0 0 2-2v-13h-4v11h-8v-3z" fill="#ed1c24"/><path d="m25 12h34v1h-34z" fill="#5eac24"/><path d="m41 43h-38l19-9z" fill="#ffa733"/><path d="m5 57h34v4h-34z" fill="#ff9811"/><path d="m24 47h4v10h-4z" fill="#ee8700"/><path d="m16 47h4v10h-4z" fill="#ee8700"/><path d="m8 47h4v10h-4z" fill="#ee8700"/><path d="m32 47h4v10h-4z" fill="#ee8700"/><path d="m5 43h34v4h-34z" fill="#ff9811"/><circle cx="22" cy="39" fill="#ee8700" r="2"/><path d="m20 47h4v10h-4z" fill="#cc7400"/><path d="m12 47h4v10h-4z" fill="#cc7400"/><path d="m28 47h4v10h-4z" fill="#cc7400"/><path d="m5 43h34v1h-34z" fill="#ee8700"/></g></svg>