<svg clip-rule="evenodd" fill-rule="evenodd" height="512" image-rendering="optimizeQuality" shape-rendering="geometricPrecision" text-rendering="geometricPrecision" viewBox="0 0 512 512" width="512" xmlns="http://www.w3.org/2000/svg" xmlns:xodm="http://www.corel.com/coreldraw/odm/2003"><g id="Layer_x0020_1"><g id="_2028681463696"><path d="m5.98 207.12c-2.23 0-4.37-1.25-5.39-3.4-1.43-2.98-.17-6.55 2.81-7.97l403.67-192.78c1.77-.85 3.85-.77 5.56.21 1.7.98 2.81 2.73 2.97 4.69l8.19 99.51c.27 3.29-2.18 6.18-5.47 6.45-3.3.27-6.17-2.18-6.44-5.47l-19.77 59.04-332.42 27.77-51.14 11.37c-.83.39-1.7.58-2.57.58z" fill="#74a53b"/><path d="m5.97 207.12c-2.73 0-5.2-1.88-5.82-4.66-.73-3.22 1.29-6.42 4.51-7.15l441.65-99.51c1.69-.38 3.46-.01 4.85 1.02 1.39 1.02 2.28 2.6 2.42 4.32l8.18 99.52c.27 3.29-2.18 6.17-5.46 6.44-3.3.27-6.18-2.17-6.45-5.46l-.53-6.47h-389.63l-52.4 11.81c-.44.1-.88.14-1.32.14z" fill="#81b741"/><path d="m506.02 509.62h-500.04c-3.3 0-5.98-2.68-5.98-5.98v-302.5c0-3.3 2.68-5.97 5.98-5.97h500.04c3.3 0 5.98 2.67 5.98 5.97v302.5c0 3.3-2.68 5.98-5.98 5.98z" fill="#9fe250"/><path d="m402.31 457.76h-292.62c-3.3 0-5.97-2.68-5.97-5.98 0-25.29-20.59-45.87-45.88-45.87-3.3 0-5.98-2.68-5.98-5.98v-95.07c0-3.3 2.68-5.98 5.98-5.98 25.29 0 45.88-20.58 45.88-45.88 0-3.3 2.67-5.98 5.97-5.98h292.62c3.3 0 5.98 2.68 5.98 5.98 0 25.3 20.58 45.88 45.88 45.88 3.3 0 5.98 2.68 5.98 5.98v95.07c0 3.3-2.68 5.98-5.98 5.98-25.3 0-45.88 20.58-45.88 45.87 0 3.3-2.68 5.98-5.98 5.98z" fill="#74a53b"/><path d="m138.22 385.19c-11.65 0-21.13-9.48-21.13-21.13v-23.33c0-11.66 9.48-21.14 21.13-21.14 11.66 0 21.13 9.48 21.13 21.14v23.33c.01 11.65-9.47 21.13-21.13 21.13zm235.56 0c-11.65 0-21.13-9.48-21.13-21.13v-23.33c0-11.66 9.48-21.14 21.13-21.14 11.66 0 21.14 9.48 21.14 21.14v23.33c0 11.65-9.48 21.13-21.14 21.13z" fill="#ffcd00"/><g><path d="m256 432.19c-44 0-79.8-35.8-79.8-79.8s35.8-79.8 79.8-79.8c44.01 0 79.8 35.8 79.8 79.8s-35.79 79.8-79.8 79.8z" fill="#feb04c"/><path d="m256 281.92c-38.85 0-70.47 31.61-70.47 70.47s31.61 70.47 70.47 70.47 70.47-31.61 70.47-70.47-31.61-70.47-70.47-70.47z" fill="#ffe4af"/><g fill="#fe8e3d"><path d="m256 400.05c-14.42 0-26.16-11.74-26.16-26.16 0-2.58 2.09-4.67 4.67-4.67 2.57 0 4.66 2.09 4.66 4.67 0 9.28 7.55 16.83 16.83 16.83s16.83-7.55 16.83-16.83-7.55-16.83-16.83-16.83c-14.42 0-26.16-11.74-26.16-26.16 0-14.43 11.74-26.17 26.16-26.17 14.43 0 26.17 11.74 26.17 26.17 0 2.57-2.09 4.66-4.67 4.66s-4.67-2.09-4.67-4.66c0-9.28-7.55-16.84-16.83-16.84s-16.83 7.55-16.83 16.84c0 9.28 7.55 16.82 16.83 16.82 14.43 0 26.17 11.74 26.17 26.17 0 14.42-11.74 26.16-26.17 26.16z"/><path d="m256 314.07c-2.57 0-4.66-2.1-4.66-4.67v-8.87c0-2.57 2.09-4.66 4.66-4.66 2.58 0 4.67 2.09 4.67 4.66v8.87c0 2.58-2.09 4.67-4.67 4.67z"/><path d="m256 408.91c-2.57 0-4.66-2.09-4.66-4.66v-8.87c0-2.57 2.09-4.66 4.66-4.66 2.58 0 4.67 2.09 4.67 4.66v8.87c0 2.57-2.09 4.66-4.67 4.66z"/></g></g></g></g></svg>