<svg id="Layer_1" enable-background="new 0 0 512 512" viewBox="0 0 512 512" xmlns="http://www.w3.org/2000/svg"><g clip-rule="evenodd" fill-rule="evenodd"><g><path d="m16.281 214.1c-9.707-9.707-9.707-25.591 0-35.299l162.52-162.52c9.708-9.708 25.591-9.708 35.299 0l281.62 281.62c9.707 9.707 9.707 25.591 0 35.298l-162.52 162.52c-9.708 9.708-25.591 9.708-35.298 0z" fill="#72d561"/><path d="m16.281 214.1c-8.612-8.612-9.582-22.082-2.915-31.792.849 1.236 1.82 2.411 2.915 3.507l281.619 281.619c9.708 9.708 25.591 9.708 35.299 0l162.52-162.52c1.096-1.096 2.067-2.271 2.915-3.507 6.667 9.709 5.696 23.18-2.915 31.792l-162.52 162.52c-9.708 9.708-25.591 9.708-35.299 0z" fill="#3cbe52"/><path d="m129.008 140.126 74.474 74.473c4.269 4.269 4.269 11.254 0 15.523l-35.082 35.082c-4.269 4.269-11.254 4.268-15.522 0l-74.474-74.474c-4.269-4.269-4.269-11.254 0-15.523l35.082-35.082c4.268-4.268 11.253-4.268 15.522.001z" fill="#ffda2d"/><path d="m204.114 215.29c3.624 4.301 3.413 10.786-.633 14.833l-35.082 35.082c-4.269 4.269-11.254 4.268-15.522 0l-74.474-74.473c-4.046-4.046-4.257-10.532-.633-14.832.2.237.41.467.633.69l74.474 74.473c4.269 4.269 11.253 4.269 15.522 0l35.082-35.082c.223-.224.433-.454.633-.691z" fill="#ffc700"/><path d="m180.283 253.32-25.597-25.597-19.646 19.645-11.314-11.314 50.605-50.605 11.314 11.314-19.646 19.646 25.598 25.597zm-84.044-44.753 11.314 11.314 50.605-50.605-11.314-11.314-19.646 19.646-25.597-25.597-11.314 11.314 25.597 25.597z" fill="#ffc700"/><path d="m180.283 253.32-7.071-7.071 11.314-11.314 7.071 7.071zm-38.171-13.023-7.071 7.071-11.314-11.314 7.071-7.071zm-45.873-31.73 7.071-7.071 11.314 11.314-7.071 7.071z" fill="#fdb800"/><path d="m328.077 432.924c3.124 3.124 3.124 8.19 0 11.314s-8.19 3.124-11.314 0l-118.46-118.46c-3.124-3.124-3.124-8.19 0-11.314s8.189-3.124 11.314 0zm54.438-54.438-45.62-45.62c-3.124-3.124-8.19-3.124-11.314 0s-3.124 8.19 0 11.314l45.62 45.62c3.124 3.124 8.19 3.124 11.314 0s3.124-8.19 0-11.314zm-27.219 27.219-77.221-77.221c-3.124-3.124-8.19-3.124-11.314 0s-3.124 8.19 0 11.314l77.221 77.221c3.124 3.124 8.19 3.124 11.314 0s3.124-8.19 0-11.314z" fill="#eff4f7"/><path d="m287.549-18.891h38.495v448.19h-38.495z" fill="#465759" transform="matrix(.707 -.707 .707 .707 -55.242 277.04)"/><path d="m438.937 346.591h38.495v20h-38.495z" fill="#3a484a" transform="matrix(.707 -.707 .707 .707 -117.95 428.424)"/></g><g><path d="m79.77 503c-13.729 0-24.96-11.231-24.96-24.96v-229.838c0-13.729 11.231-24.96 24.96-24.96h398.27c13.728 0 24.96 11.231 24.96 24.96v229.838c0 13.729-11.232 24.96-24.96 24.96z" fill="#fc685b"/><path d="m79.77 503c-12.179 0-22.391-8.839-24.542-20.418 1.474.273 2.992.418 4.542.418h398.27c13.728 0 24.96-11.231 24.96-24.96v-229.838c0-1.55-.145-3.068-.418-4.541 11.579 2.151 20.418 12.362 20.418 24.541v229.838c0 13.729-11.232 24.96-24.96 24.96z" fill="#f35244"/><path d="m107.173 370.983h105.322c6.037 0 10.976 4.939 10.976 10.976v49.614c0 6.037-4.939 10.976-10.976 10.976h-105.322c-6.037 0-10.976-4.939-10.976-10.976v-49.614c0-6.037 4.939-10.976 10.976-10.976z" fill="#ffda2d"/><path d="m213.43 371.024c5.603.479 10.041 5.214 10.041 10.936v49.614c0 6.037-4.939 10.976-10.976 10.976h-105.322c-5.722 0-10.457-4.437-10.936-10.041.308.026.62.041.935.041h105.322c6.037 0 10.976-4.939 10.976-10.976v-49.614c0-.316-.014-.628-.04-.936z" fill="#ffc700"/><path d="m223.47 414.766h-36.2v27.783h-16v-71.566h16v27.783h36.2zm-91.073 27.783v-27.783h-36.2v-16h36.2v-27.783h16v71.566z" fill="#ffc700"/><path d="m223.47 414.766h-10v-16h10zm-36.2 17.783v10h-16v-10zm-54.873 10v-10h16v10z" fill="#fdb800"/><path d="m454.976 437.26c4.418 0 8 3.582 8 8s-3.582 8-8 8h-167.528c-4.418 0-8-3.582-8-8s3.582-8 8-8zm0-76.988c4.418 0 8 3.582 8 8s-3.582 8-8 8h-64.517c-4.418 0-8-3.582-8-8s3.582-8 8-8zm0 38.494c4.418 0 8 3.582 8 8s-3.582 8-8 8h-109.208c-4.418 0-8-3.582-8-8s3.582-8 8-8z" fill="#eff4f7"/><path d="m54.81 272.037h448.19v38.494h-448.19z" fill="#465759"/><path d="m483 272.037h20v38.494h-20z" fill="#3a484a"/></g></g></svg>