<svg id="Layer_1" enable-background="new 0 0 64 64" height="512" viewBox="0 0 64 64" width="512" xmlns="http://www.w3.org/2000/svg"><g><path d="m61.83 55.833c-.73.72-1.73 1.17-2.83 1.17 0 0 0-13-11-13s-11 13-11 13h-16v-4h12v-4c0-4.42 3.58-8 8-8 1.48 0 2.77-.8 3.46-2h10.54s3.38 2.26 5.92 6.35c1.41 2.28 2.08 4.96 2.08 7.65 0 1.1-.45 2.1-1.17 2.83z" fill="#db4040"/><path d="m42 6.003h-5-5c0-2.76 2.24-5 5-5 1.38 0 2.63.56 3.54 1.46.9.91 1.46 2.16 1.46 3.54z" fill="#8dc691"/><path d="m42 6.003v6c-5-1-5-6-5-6z" fill="#9b6d4e"/><path d="m37 6.003s0 5 5 6c0 2.21-1.79 4-4 4h-2c-1.1 0-2.1-.45-2.83-1.17-.72-.73-1.17-1.73-1.17-2.83v-6z" fill="#f4baa6"/><path d="m13.24 55.003c.97.97 2.2 1.63 3.54 1.88-.85 3.51-4.01 6.12-7.78 6.12-4.42 0-8-3.58-8-8 0-2.85 1.49-5.36 3.74-6.77 1.33.56 2.87 1.36 4.34 2.45l-2.2 2.2c-1.17 1.17-1.17 3.07 0 4.24s3.07 1.17 4.24 0z" fill="#666"/><path d="m13.24 55.003-2.12 2.12c-1.17 1.17-3.07 1.17-4.24 0s-1.17-3.07 0-4.24l2.2-2.2c1.22.91 2.38 2.02 3.35 3.37.25.35.52.67.81.95z" fill="#808080"/><path d="m13.24 55.003c-.29-.28-.56-.6-.81-.95-.97-1.35-2.13-2.46-3.35-3.37-1.47-1.09-3.01-1.89-4.34-2.45-2.13-.91-3.74-1.23-3.74-1.23 4-6 9-5 9-5l11 6v1 4 4h-3c-.42 0-.82-.04-1.22-.12-1.34-.25-2.57-.91-3.54-1.88z" fill="#db4040"/><path d="m33 49.003v4h-12v-4h5z" fill="#808080"/><path d="m44.46 39.003c-.69 1.2-1.98 2-3.46 2h-12l4 8h-7l-4.53-9.04v-.01l.23-3.81s.88-1.14 2.54-1.14h4.76 16v2c0 .73-.2 1.41-.54 2z" fill="#379b4a"/><path d="m22 31.003-.3 5.14-.23 3.81v.01l-.47 8.04-11-6 4.81-11h4.19z" fill="#db4040"/><path d="m18.414 24.003 3.293-3.293c.188-.188.293-.441.293-.707v-4c0-.553-.447-1-1-1s-1 .447-1 1v3.586l-4.414 4.414h1.414z" fill="#808080"/><path d="m19.5 24.003h-1.086-1.414-1.414-6.586v7h5.81 4.19v-1c0-2.14 1.34-3.96 3.23-4.68-.63-.801-1.62-1.32-2.73-1.32z" fill="#f08c8e"/><path d="m45 35.003h-16v-4h6.52c1.44 0 2.67-1.03 2.92-2.44l.92-5.05c.33-1.83-1.07-3.51-2.92-3.51-1.42 0-2.64 1-2.92 2.39l-.52 2.61h-4v-2c0-3.87 3.13-7 7-7h2c3.87 0 7 3.13 7 7v10z" fill="#44b260"/><path d="m63 19.003v2h-18v-2c0-1.1.9-2 2-2h14c1.1 0 2 .9 2 2z" fill="#ffca83"/><path d="m63 21.003v12h-2-6-10v-10-2z" fill="#fbb03b"/><path d="m61 33.003c1.1 0 2 .9 2 2 0 .55-.22 1.05-.59 1.41-.36.37-.86.59-1.41.59h-6v-4z" fill="#808080"/><path d="m55 37.003v2h-10.54c.34-.59.54-1.27.54-2v-2-2h10z" fill="#b3b3b3"/><path d="m40.25 57.003h-3.25s0-13 11-13 11 13 11 13h-3.25z" fill="#f08c8e"/><path d="m40.25 57.003h15.5c-.89 3.45-4.02 6-7.75 6s-6.86-2.55-7.75-6z" fill="#666"/><path d="m20 31.003-1.349 6.071c-.38 1.711-1.898 2.929-3.651 2.929h-4.125l-.875 2 11 6 .47-8.04v-.01l.23-3.81.3-5.14z" fill="#c63232"/><path d="m45 28.003h18v5h-18z" fill="#ea9626"/><path d="m33 53.003h-3-9v4h16s.002-1.769.553-4z" fill="#c63232"/><path d="m29 25.003h-5c-.62 0-1.22.11-1.77.32-1.89.72-3.23 2.54-3.23 4.68v1h3 2 5 6.52c1.44 0 2.67-1.03 2.92-2.44l-5.44-3.56z" fill="#e09b8d"/><path d="m36.44 20.003c-1.42 0-2.64 1-2.92 2.39l-.52 2.61 5.44 3.56.92-5.05c.33-1.831-1.07-3.51-2.92-3.51z" fill="#8dc691"/><path d="m41.243 1.752c-1.139-1.128-2.646-1.749-4.243-1.749-2.967 0-5.431 2.167-5.91 5h-3.09c-.553 0-1 .447-1 1s.447 1 1 1h14c.553 0 1-.447 1-1 0-1.598-.621-3.105-1.757-4.251zm-4.243.251c1.066 0 2.073.416 2.829 1.164.512.517.853 1.151 1.029 1.836h-7.717c.448-1.721 2-3 3.859-3z" fill="#44b260"/><path d="m41.541 54.293c-.09 0-.181-.012-.271-.037-.531-.149-.842-.701-.692-1.233 1.142-4.068 3.777-6.31 7.423-6.31.553 0 1 .447 1 1s-.447 1-1 1c-2.745 0-4.595 1.632-5.497 4.851-.125.441-.526.729-.963.729z" fill="#db4040"/><path d="m25 31v-1.997c0-.553-.447-1-1-1s-1 .447-1 1v1.997z" fill="#d68f83"/></g></svg>