<svg enable-background="new 0 0 512 512" viewBox="0 0 512 512" xmlns="http://www.w3.org/2000/svg"><g id="Layer_1"><g><path d="m82.165 259.072 21.2 3.986c5.122-27.252 23.127-50.67 48.171-62.652l-9.309-19.457c-31.226 14.936-53.677 44.142-60.062 78.123z"/><path d="m405.356 224.946c-28.653-51.535-77.552-87.306-134.049-99.661-1.175-23.369-20.495-42.036-44.15-42.036-23.685 0-43.023 18.709-44.158 42.116-36.674 8.102-70.512 26.22-98.039 53.06-38.182 37.233-60.093 87.047-61.704 140.219-.149 4.349 1.549 8.688 4.655 11.903 2.9 2.995 6.68 4.647 10.655 4.647h257.723c.436 5.297 1.278 10.48 2.499 15.517h-271.478c-5.185 0-9.975 2.583-12.81 6.91-2.827 4.31-3.284 9.703-1.227 14.435.114.253.233.505.363.75l25.082 47.249c2.556 5.287 7.915 8.675 13.785 8.675 0 0 342.294.021 345.451.021 56.269 0 102.046-45.778 102.046-102.051 0-53.781-41.818-97.944-94.644-101.754zm-178.199-120.125c10.476 0 19.23 7.173 21.833 16.841-7.2-.76-14.484-1.154-21.838-1.154-7.346 0-14.63.426-21.841 1.195 2.589-9.688 11.351-16.882 21.846-16.882zm69.614 208.801h-251.69c5.843-96.646 84.752-171.542 182.071-171.542 63.028 0 120.47 31.848 153.708 84.029-43.928 7.444-78.371 43.033-84.089 87.513zm-240.48 93.536-18.51-34.874h268.914c6.84 13.651 16.658 25.555 28.596 34.874zm391.62-67.073h-39.173v39.171h-21.567v-39.171h-39.176v-21.573h39.176v-39.175h21.567v39.175h39.173z"/></g></g><g id="Layer_2"/><g id="Layer_3"/></svg>