<svg fill="none" height="64" viewBox="0 0 64 64" width="64" xmlns="http://www.w3.org/2000/svg"><g clip-rule="evenodd" fill="#000" fill-rule="evenodd"><path d="m47 39c0-8.2843-6.7157-15-15-15s-15 6.7157-15 15 6.7157 15 15 15 15-6.7157 15-15zm-7.8203-7.615c.8919.6515 1.0869 1.9027.4353 2.7947l-8.7651 12c-.3708.5077-.9587.8114-1.5873.8201s-1.2248-.2786-1.6095-.7758l-4.2348-5.4728c-.676-.8735-.5158-2.1297.3577-2.8057.8736-.676 2.1298-.5158 2.8057.3578l2.6071 3.3691 7.1962-9.8521c.6515-.8919 1.9027-1.0868 2.7947-.4353z"/><path d="m2 10c0-4.41828 3.58172-8 8-8h44c4.4183 0 8 3.58172 8 8v44c0 4.4183-3.5817 8-8 8h-44c-4.41828 0-8-3.5817-8-8zm56 10h-52v34c0 2.2091 1.79086 4 4 4h44c2.2091 0 4-1.7909 4-4zm-42-7c1.1046 0 2-.8954 2-2 0-1.10457-.8954-2-2-2h-4c-1.1046 0-2 .89543-2 2 0 1.1046.8954 2 2 2z"/></g></svg>