<svg id="Layer_1" viewBox="0 0 512 512" xmlns="http://www.w3.org/2000/svg" data-name="Layer 1"><path  d="m69 278h374a22 22 0 0 0 0-44h-374a22 22 0 0 0 0 44z"/><path  d="m474.06 352.41a37.62 37.62 0 0 0 -49.67-23l-124.07 50c-.17 1.39-.15 2.78-.42 4.16a51.68 51.68 0 0 1 -62 40.41l-76.63-17a11 11 0 1 1 4.73-21.52l76.63 17a29.85 29.85 0 0 0 31.19-12.42 28.45 28.45 0 0 0 2-3.6c.24-.49.57-.93.78-1.44a29.57 29.57 0 0 0 1.58-5.12c.05-.23.16-.44.21-.68s0-.49.07-.74a29.72 29.72 0 0 0 .51-5.19c0-.7-.16-1.38-.2-2.08a32.9 32.9 0 0 0 -.39-3.74c-.16-.8-.48-1.56-.71-2.34a30.82 30.82 0 0 0 -1-3.18 29.94 29.94 0 0 0 -6.39-9.58 30.44 30.44 0 0 0 -2.75-2.3c-.57-.45-1.08-1-1.68-1.38a29.81 29.81 0 0 0 -3.52-1.91c-.56-.28-1.06-.64-1.64-.88a30.49 30.49 0 0 0 -5.47-1.68l-.23-.07-41.45-8.29-106.63-21.29v118.18l131.44 40.44a63.86 63.86 0 0 0 43.59-2.17l171-72a37.62 37.62 0 0 0 21.12-46.59z"/><path  d="m36 325.55v96.18a11 11 0 0 0 11 11h37.91v-118.18h-37.91a11 11 0 0 0 -11 11z"/><path  d="m271.27 58.71a16.5 16.5 0 1 0 -30.54 0 176 176 0 0 0 -159.21 153.29h349a176 176 0 0 0 -159.25-153.29zm-70.07 55.72a111.64 111.64 0 0 0 -46.83 40.42 9.9 9.9 0 1 1 -16.58-10.85 131.41 131.41 0 0 1 55.14-47.58 9.9 9.9 0 1 1 8.27 18zm46.25-10.09q-5.1 0-10.1.45c-.3 0-.61 0-.91 0a9.9 9.9 0 0 1 -.88-19.76q5.88-.52 11.89-.53a9.9 9.9 0 1 1 0 19.8z"/></svg>