<svg enable-background="new 0 0 32 32" height="32" viewBox="0 0 32 32" width="32" xmlns="http://www.w3.org/2000/svg"><g id="box"><path  d="m0 0h32v32h-32z" fill="none"/></g><g id="_x31_"/><g id="_x32_"/><g id="_x33_"/><g id="_x34_"/><g id="_x35_"><g><path  d="m6 28v1c0 1.103.897 2 2 2h16c1.103 0 2-.897 2-2v-1z"/><path  d="m30.98 13.656c-1.691 2.085-4.239 3.344-6.98 3.344-4.963 0-9-4.038-9-9 0-2.602 1.116-5.024 3.06-6.74-.67-.158-1.357-.26-2.06-.26-3.487 0-6.604 1.976-8.1 5.083-3.916.541-6.9 3.905-6.9 7.917 0 3.314 1.98 6.208 5 7.419v3.581 1h20v-1-3.581c3.02-1.211 5-4.105 5-7.419 0-.115-.015-.229-.02-.344z"/></g><path  d="m24 1c-1.581 0-3.07.513-4.309 1.484-1.71 1.345-2.691 3.355-2.691 5.516 0 3.86 3.141 7 7 7 2.552 0 4.902-1.39 6.135-3.625.566-1.023.865-2.19.865-3.375 0-3.86-3.141-7-7-7zm2.707 6.428-2.4 2.4c-.195.195-.451.293-.707.293s-.512-.098-.707-.293l-1.6-1.6c-.391-.391-.391-1.023 0-1.414s1.023-.391 1.414 0l.893.893 1.693-1.693c.391-.391 1.023-.391 1.414 0s.391 1.024 0 1.414z"/></g><g id="_x36_"/><g id="_x37_"/><g id="_x38_"/><g id="_x39_"/><g id="_x31_0"/><g id="_x31_1"/><g id="_x31_2"/><g id="_x31_3"/><g id="_x31_4"/><g id="_x31_5"/><g id="_x31_6"/><g id="_x31_7"/><g id="_x31_8"/><g id="_x31_9"/><g id="_x32_0"/><g id="_x32_1"/><g id="_x32_2"/><g id="_x32_3"/><g id="_x32_4"/><g id="_x32_5"/></svg>